/* XPM */
static char *result[] = {
/* columns rows colors chars-per-pixel */
"60 60 216 2 ",
"   c #2D1C13",
".  c #0E3E0E",
"X  c #123E0E",
"o  c #1C2E12",
"O  c #0F3E12",
"+  c #113E12",
"@  c #113E1C",
"#  c #362014",
"$  c #213013",
"%  c #363C1C",
"&  c #0E3C2C",
"*  c #123E23",
"=  c #143F2B",
"-  c #183D3A",
";  c #483D24",
":  c #553A27",
">  c #593928",
",  c #0E410C",
"<  c #14490B",
"1  c #17550C",
"2  c #19540C",
"3  c #0E4113",
"4  c #114113",
"5  c #14451C",
"6  c #1C5215",
"7  c #357F0E",
"8  c #30691E",
"9  c #367E12",
"0  c #397C12",
"q  c #357518",
"w  c #144524",
"e  c #14422B",
"r  c #0E4931",
"t  c #164735",
"y  c #1B433D",
"u  c #1B5438",
"i  c #32592B",
"p  c #3C7A26",
"a  c #377428",
"s  c #3E7E2B",
"d  c #696017",
"f  c #407F28",
"g  c #0C3B43",
"h  c #133C45",
"j  c #183D47",
"k  c #163D4A",
"l  c #1B3E4B",
"z  c #1E3F50",
"x  c #233A42",
"c  c #0D4445",
"v  c #0C4948",
"b  c #134346",
"n  c #1B4244",
"m  c #1A4A43",
"M  c #15444B",
"N  c #1B434D",
"B  c #144B4C",
"V  c #1B4B4D",
"C  c #175649",
"Z  c #13524D",
"A  c #1A524E",
"S  c #1D4451",
"D  c #164C51",
"F  c #1C4B52",
"G  c #1B4956",
"H  c #0D5251",
"J  c #165352",
"K  c #1C5354",
"L  c #155B56",
"P  c #1C5B55",
"I  c #1D5559",
"U  c #1D5C5A",
"Y  c #22434D",
"T  c #214C4C",
"R  c #26554B",
"E  c #214452",
"W  c #214C54",
"Q  c #294B56",
"!  c #244D59",
"~  c #225255",
"^  c #215B56",
"/  c #24545A",
"(  c #2A555D",
")  c #235B5C",
"_  c #2A5B5E",
"`  c #1B675A",
"'  c #1C635C",
"]  c #2F6E56",
"[  c #23615D",
"{  c #29645B",
"}  c #2A5561",
"|  c #265D61",
" . c #2C5C63",
".. c #325C65",
"X. c #1F6F63",
"o. c #256462",
"O. c #2B6364",
"+. c #246B63",
"@. c #2A6A65",
"#. c #2C6569",
"$. c #246B69",
"%. c #2C6D6A",
"&. c #316267",
"*. c #34646A",
"=. c #326C6C",
"-. c #386A6B",
";. c #237265",
":. c #2B7566",
">. c #25736A",
",. c #2B736B",
"<. c #257C6C",
"1. c #2B7B6C",
"2. c #32726E",
"3. c #327A6E",
"4. c #2C6D72",
"5. c #396C71",
"6. c #2C7571",
"7. c #2B7C72",
"8. c #2B7E78",
"9. c #337572",
"0. c #3D7374",
"q. c #327D73",
"w. c #3C7B78",
"e. c #45757B",
"r. c #4D7678",
"t. c #BC1412",
"y. c #922F0D",
"u. c #BD2525",
"i. c #844414",
"p. c #EB706D",
"a. c #EA7F7B",
"s. c #36810E",
"d. c #278913",
"f. c #2A8A12",
"g. c #338212",
"h. c #3C8714",
"j. c #3C8914",
"k. c #3B811E",
"l. c #269719",
"z. c #3E9017",
"x. c #17A71B",
"c. c #1BA61D",
"v. c #16A91D",
"b. c #19A81C",
"n. c #22A415",
"m. c #21A31B",
"M. c #2CA61E",
"N. c #2AA91E",
"B. c #30A31E",
"V. c #3C8022",
"C. c #3D8029",
"Z. c #1BA521",
"A. c #27A922",
"S. c #33A420",
"D. c #3EB62C",
"F. c #4D831A",
"G. c #419217",
"H. c #6CA11C",
"J. c #418128",
"K. c #4D9F26",
"L. c #539E26",
"P. c #4BA227",
"I. c #4DA22A",
"U. c #44B32B",
"Y. c #4BB32E",
"T. c #5FAC3A",
"R. c #56BC36",
"E. c #5BBE39",
"W. c #70B821",
"Q. c #61AB3C",
"!. c #64B93A",
"~. c #6BBF3B",
"^. c #56C13A",
"/. c #66C235",
"(. c #69C236",
"). c #66C23B",
"_. c #69C03B",
"`. c #2C826D",
"'. c #2A8C6E",
"]. c #2C8373",
"[. c #298B73",
"{. c #328E76",
"}. c #348779",
"|. c #7A9545",
" X c #62A941",
".X c #46817F",
"XX c #799867",
"oX c #6BAD6E",
"OX c #68C141",
"+X c #82A31E",
"@X c #B7BE26",
"#X c #D4C41C",
"$X c #D3C521",
"%X c #8D8D4D",
"&X c #81C17E",
"*X c #F0E35C",
"=X c #F2E66E",
"-X c #4A7C83",
";X c #368B80",
":X c #349782",
">X c #478684",
",X c #538989",
"<X c #538D8F",
"1X c #52938E",
"2X c #599795",
"3X c #678C92",
"4X c #689B9E",
"5X c #63A2A0",
"6X c #6AA7A6",
"7X c #71ABAB",
"8X c #76B0B0",
"9X c #85BE82",
"0X c #B7B8B4",
"qX c #B9B8B5",
"wX c #DDDBD7",
"eX c #E3E2DA",
/* pixels */
"V [ E E S M z F / S W G 7XN V G N ' Y J / Y o.>.K J V M K ;X2X! j W S h F U W N E <XO.0.N l v S h k K %./ X.>.o.l S K <.",
"V U -XG S S  .G S S M B >XF V _ M ) U N 4XW O.@.K J M B A o.V N E N W ~ %.o.S G l M 7Xn S l v B D K ~ %.) V { +.N N %.,.",
",.F V E S F ! ~ N 3X/ V M Q F F Y ^ V n 0._ o.) B L D F @.~ ( N l S n | ~ ~ K 9.l S z S B N >.}.S h | q.1Xo.1.c N | ;.$.",
"^ n c z W S 5.>XF j M h M V / K Y ~ 6XF M W / @.V o.9.$.K T { =.N l / #.B / { ' M N N k B N B b S S B e.8X9.:.>.M [ [ ;.",
"@.N b N K ( / T M j M M W ^ ~ M K =.4X! F ~ I K o.L &.| , X X 4 M N M V B B b K Z E 7XS  .=.;.b j M F 1X9.[ %.' ,.[ o.@.",
"@.B M M [ ! z ! W N / W b W E S B W M W N V / F ) @.r y 1 2 2 2 n y M | / / o.` +.l <XM G b ' J F 2.K J P $.2.{ K | I o.",
"e.K I M O.F ! S S F +.b F M V G P S  .z N  .0.F F ;.+ + /._._.(.X . M ^ _ F ,.].U E S ) V P o.O.^ J 9.) O.o.o.K J K F o.",
"=.K M _ ) ! ( ..F M ` B h V S I [ Y N N ! E E ! r u V.V.(._._./.J.J.w R &.~ %.].| W S E J K U F ) ` ,.O.=.K o.;.I ) ^ [ ",
"K ~ N / U V / ( D ( L V r.,X*.L B l S k } S S I & O OX_.(._._._._.OX< w E Y L ].) h N T o.O.U F B ;.+.F W F ^ ' o.;.K U ",
"V M ( b ^ W ! N S F [ n W [ W ' V 5.z N } z y w 8 q (._.S.N.A.N._.(.q 8 w t [ q.2.V Y M D / ~  .h <.@./ ! S ~ J K ].~ ~ ",
"N N V V +.#.S S S V [ / S N b _ L @.N W S E y 4 q 0  X_.c.b.A.b._. X0 q + t M =.S h M n ) j E N }.` q./ V -.-XF V `.F F ",
"E h N M | h W S S ) K b N N Q %.U #.S M h V - X  X!.).).c.b.b.b._._.~.Q.X - L :.M +.B >X/ | Q z 6.c A %.G ! ,XS >X].E D ",
"S E ! M ) l E W W M L S M k ~ o.J O.N I D G - X Q._.~.(.b.b.c.b.(._._.Q.X y B +.@.J @.F W S N l ,.].D K N N S S B `.L S ",
"k E M ~ ) j S #.I k o.w.Y } ) B c | M O.y 4 f ~.~.(.c.c.b.c.c.b.v.N._._.~.s + { D $.F V J N S S W B m O.V N l V >.;./ S ",
"..e.l l I } l z N  .^ ~ l l N / ^ | ^ M B 4 J._._._.b.c.c.b.b.c.Z.b._._.~.s O L l | B V &.F k 9.;.C }.2X .! l S { %.2.Y ",
"l ! } j / G ! W @.=.^ 6.N Y _ M V W G @ 6 _._.~.M.c.c.c.b.c.c.b.b.b.b.N. X)._.2 + F $.K 2X>XV W h 3.L 2.5.E l G O.$.U Y ",
"S S }  .K ..-.! b G %...D ( ~ N } ! K 3 2 _._._.N.b.c.b.c.b.c.c.c.Z.c.S._.~.~.6 X o.| M 6Xc M B <.K 6X;.>X%.M | _ @./ V ",
"z S M M / ( 6X>XF U %.M ,.N N E _ w + Z.x.x.Z.b.Z.c.c.c.c.c.c.c.c.Z.=X*X#X+X0 Z.v.O +  .G ~ G O.2.P A 2X0.S j ) / ^ K M ",
"S l Q S / S e.h K ) / ) j k z Y 6X5 X c.c.c.Z.x.b.Z.c.c.x.b.b.c.c.m.=X*X#X+X9 l.c.. + I M :XM 6.' _ v J V F G / F ) 3.K ",
"S M c 2X/ ! N D @.O.L | / N z @ 5 c.c.b.b.Z.|.a.u.t.0 0 x.c.c.c.c.m.$X#X$X+X9 m.c.c.Z.+ 3 {.B y @.@.B %.) _ b w.w.~ :X/ ",
"S 2Xz -X! S E N M ~ / / B R n 6 1 N.N.x.b.c.|.p.u.t.0 0 Z.x.b.b.c.n.@X@X@XH.s.c.x.M.A.6 2 `.A V @.O.[ / { F N #.F ! {.N ",
"N W S S ! S S E F M / D K 5 @ ~._.)._.c.c.b.d t.t.t.0 g.x.Z.Z.b.c.c.0 0 7 l.v.c.b.!._._.(.+ @ D o.~ B / ( N ~ ( Y V {.S ",
"5.e.l D S N N G F V / G V 5 4 p V.K.K.D.D.U.F.i.i.i.L.L.D.U.Z.b.c.c.P.K.f.S.D.D.U.P.P.k.J.+ 5 V / K I V K W / ( S V [.F ",
"}  .S D j ,X..S F W F N e.5 4 4 O 7 s._._.).L.0 0 0 _._._.).Z.b.v.c.).E.c.U._._.(.s.0 + , X 5 K ) F / N J F N ) S D '.V ",
"z l S M S W S G W S / M W -.b n n < < j.G._.!.!.!.!._._.~._.^.^.^.^._._.^.^.~.G.j.< < n R `.] T M J ) K ^ ! S S ! M [.N ",
"z S l V S z F W F / [ o.N n M S W + + 9 j._._.!.~.~._._._._.(._._._._._._._._.h.9 . + / v [.^ V w.2X5.W V ( M I j S [.8.",
"M z l F N Y N V M ~ ( &.V Q Y z ;.+ + 9 g.g.9 7 9 0 9 g.9 7 7 7 9 7 7 9 s.7 7 0 9 O X O.1.{.].b 6X>X) F K G  .8XF N [.M ",
"c E  .M M F _ k 0.^ A =.l z l z M 4 X 0 9 9 0 9 9 9 9 9 9 9 9 9 9 9 9 9 g.9 9 9 7 . 4 7.b `.M U V &.V S N j N / =.N <.S ",
"z l M / j M J c e.N | Z S z l 4 O v.c.0 d.c.l.9 9 9 9 0 9 9 9 9 0 9 9 9 g.d.c.f.9 c.c.X + 7.+.o.l *.G V S N h j B K <.Y ",
"l V N n j F ;X#.E z M F S z S + + c.x.9 g.v.l.0 9 9 0 0 9 9 9 9 0 9 g.9 0 l.v.s.0 c.c.+ + <.M o.S >XN S N S G 2X6XB >.%.",
"h g V M E M 1.) l z V b ! + + _.~.c.Z.eXwX0XXX9 9 9 c.c.0 9 9 0 Z.b.s.d.c.c.c.c.c.v.c.)._.O 4 4.G S M S E N l e.}.V >.j ",
"#.N N l V Z n ..( F V n ..+ , _.!.c.c.eXwX0XXX9 0 9 c.c.0 9 0 9 c.m.7 d.x.v.c.c.c.v.Z._._.+ + =.( N / V S N S S F M >.h ",
"O.D S M V v <.%.K G ~ 4 + _.(._.(.c.c.qXqX0XXX7 l.Z.b.b.Z.b.c.c.b.c.A.c.Z.%Xa.u.t.7 9 !._._._.4 X j b S ..=.S N _ M 2.N ",
"b ! } k M ;.` >X5.{ M < X _._._._.x.Z.0X0X0XXX0 l.m.b.b.n.Z.m.n.m.c.c.c.A.%Xa.u.t.7 9 ~._._.~.+ , T _ V -.8X( O.V h o.N ",
"! O.N N S 3.J J F w O ).(._.~.c.x.c.c.g.9 9 l.m.b.b.b.Z.=X=X#X#X7 7 c.c.x.d t.t.t.7 0 v.Z.~._.)._.+ @ T l z S S F N +.F ",
"G J S W E O.+.u y 6 2  X_._._.B.S.M.M.j.h.d.l.M.m.b.b.Z.*X*X$X#X9 9 v.c.v.d y.y.y.h.h.M.M.~._.~._.6 6 R V ! W >.W E o.K ",
"/ }.G -XN ~ [ u @ Q._.~._._._._._._._.).E.c.D._.S.c.c.b.#X#X#X#X0 9 c.c.c.f.9 9 9 ~.)._._._._.~.!.(.Q.+ e z G 7.N F ) V ",
"I <./ N V K Z u 4 a s f f _._._._.~._.!.E.U.R._.Y.Y.U.D.W.W.W.W.L.K.U.U.U.P.I.L.K._.~._._._._.s s s a X = l S >.W / 2.N ",
"%.;.~ M ) o.K t + + + X X ~._.~._._.~.(.~.~._._._._._.).c.c.c.x._._._._.)._._._._.~.~._.~.~.OX4 O . + + e e.! 6.~ W 5Xh ",
"o.[.V h ,X) I C { m j + X h.G.j.h.j.j.h.z.~._._._._._._.R.E.E.R.~.!._._._.)._.G.h.j.h.j.h.h.z.+ O y y y V ( ( }.K N | j ",
"}.:.) B T ^ o.U o.G E + . 0 9 9 9 9 9 9 j.~._._._.(._._._.(._._._._.(.~.~._.OXj.9 9 9 9 9 9 7 X + S E S N E *.,.V M F l ",
"X.7.@./ o.J [ K Y * + Z.c.7 9 9 0 9 9 9 9 9 9 9 s.0 7 g.s.0 s.g.7 7 9 9 7 9 g.9 9 9 9 9 9 9 7 Z.Z.O * G E S l 6._ ( F E ",
"+.,.>./ M K W / / w X v.c.9 9 9 0 0 9 9 9 9 9 9 9 9 9 9 9 9 9 9 9 9 9 9 9 9 g.9 9 9 9 9 0 0 0 c.Z., @ S S N S $.l O.>XN ",
"$.+.' M K ) ~ t 4 T.~.v.c.9 9 c.c.c.c.9 9 9 9 9 9 9 9 9 9 9 9 9 9 9 9 9 9 l.Z.f.9 9 9 c.c.c.c.c.x./.Q.+ ] ,X~ %.F V S D ",
"+.+.{ ` N I 5.u + Q._.c.c.0 0 c.c.c.b.7 7 9 9 k.0 9 0 0 0 9 9 0 9 g.9 g.g.l.c.h.s.g.0 b.c.c.c.c.b._. X. ] 2X2.+.o.N E ) ",
"o.>X@.V 1.] + f _.(._.c.c.x.c.c.c.c.Z.a.p.t.i.0 g.9 c.c.0 0 0 g.c.c.c.c.m.9XeXqXqX0 0 Z.c.c.b.c.c._._.(.0 X y #.W ( N M ",
"| ^ ~ B V T 4 p _._.).b.b.Z.c.c.c.c.c.a.p.t.i.g.9 9 b.c.0 7 7 0 c.c.c.c.b.&XeXqXqXs.s.b.v.v.c.x.b._.).~.f X y #.N N S ^ ",
") ^ ! m 4 2 _._._._._._.(.b.b._.~.c.m.t.t.t.i.0 l.c.c.c.c.v.b.c.v.b.c.c.b.oXqX0XqX0 g.).).Z.x.).).~.~.~.~.~.2 X V k ~ F ",
"F / V B 4 2 (._.)._.OX/.(.c.b._._.Z.Z.t.t.t.i.s.l.Z.c.b.c.c.b.b.x.c.c.c.v.oXqXqX0X0 7 ~.!.b.b._._._._.)._._.6 3 F  ._ T ",
"~ F n V %.{ + , . . . ~.~.~._._.).)._._._._.Y.Z.x.c._.).v.c.b.v./.~.).^.c.U._.~.~._.~.(._.)._._.~.X . 3 4 , - | | N W V ",
"N S M L J r w * w w * Q.T.T.Q.T.T.T.T.Q.Q.Q.I.A.N.N._.~.M.N.N.N._._._.R.A.I.T.Q.T.T.Q.T.T.Q.Q.T. X@ w w * * n O.F W F A ",
"l I B _ U V o.N D +.S + . O . O O O O O O + C.)._._._._._._._._._._._.).).C.. . O O O + 3 3 , O + n M ,./ W S | 0.S l :.",
"V =..X5.L ~ W h / P ) u e u t u u u C o $ % i k.k.V.V.k.V.V.V.0 k.k.k.k.V.i % $ o e t u e t = t & M V ;./ e.S W S N l '.",
"D / *.K ) W M M / [ ' K F ~ V +.A `.[   # > % , + X . + O + + O O + + 4 3 % > #   M V q.V F D ^ ! / J >.U  .S ! S l N ].",
"q.S F F b ! V e.#.B A ) j ~ Y A ;.`.=.  # > : ; ; ; ; ; ; ; ; ; ; ; ; ; ; : > #   h o.,./ W I / N 9.V >.D S N G 7XS } `.",
"].S / F / ^ V / D V S / ~ 4Xb V ,.<.~   # > > > > > > > > > > > > > > > > > > #   N 6X/ G  .z l Y K D 2.o.V w.N D S H 1.",
"9.h S V ~ e.J J N N W B N ! M ( P ,.:.R x             #                       .X3X_ h O.l S G E g J ) ,.D b +.S l z q.`.",
"}. .F M J >X~ V N ~ / K N Q <XB @.+.V V j                                     3X7XT ~ ~ E N ..V 8X%.| %.I S q.N S l b 3.",
"~ U E <Xh N K / E D l #.D ..5X2X) $.+.N N M o.^ S $.l z ,.[ F N S ^ V J >X*.2X2XY &.6X&.N N M N g N I o.^ 9.,.F D 2Xy 7.",
">.D S S N / S l N S E v c W 1X1Xm O.O.j W N | @.S Z l l ` o.S k h 7XM B { [ ~ l M ~ %.0.>XN B l D D %.#.V Z <.#.8X2X7.<."
};
