/* XPM */
static char *result[] = {
/* columns rows colors chars-per-pixel */
"60 60 228 2 ",
"   c #170200",
".  c #1B0501",
"X  c #171717",
"o  c #280A06",
"O  c #370C0A",
"+  c #2E120D",
"@  c #37140F",
"#  c #2B1614",
"$  c #341A16",
"%  c #381916",
"&  c #3B221D",
"*  c #1D1F24",
"=  c #2B1E22",
"-  c #172726",
";  c #11363A",
":  c #282625",
">  c #362827",
",  c #2B373A",
"<  c #3D3132",
"1  c #48120A",
"2  c #441C17",
"3  c #661206",
"4  c #46251C",
"5  c #4E251E",
"6  c #51241E",
"7  c #742B1C",
"8  c #4C2522",
"9  c #482925",
"0  c #522421",
"q  c #572B26",
"w  c #5B2D2B",
"e  c #5A3227",
"r  c #56322D",
"t  c #5A322B",
"y  c #4D3131",
"u  c #5B3632",
"i  c #642E28",
"p  c #6D2F2E",
"a  c #623121",
"s  c #65332D",
"d  c #6B312D",
"f  c #763728",
"g  c #643431",
"h  c #6A3331",
"j  c #6F3D37",
"k  c #633B39",
"l  c #6E3D3A",
"z  c #713D37",
"x  c #703D39",
"c  c #07403E",
"v  c #20413F",
"b  c #4F4638",
"n  c #6B413C",
"m  c #0D3C42",
"M  c #153844",
"N  c #133D46",
"B  c #163E4B",
"V  c #1A3E4C",
"C  c #1D3F51",
"Z  c #2B3D44",
"A  c #0C4444",
"S  c #0E4A45",
"D  c #0E4548",
"F  c #0E4D4A",
"G  c #134246",
"H  c #194445",
"J  c #15444B",
"K  c #1B434D",
"L  c #144A4C",
"P  c #1A4A4E",
"I  c #0E564D",
"U  c #13514E",
"Y  c #18544E",
"T  c #1D4351",
"R  c #164C51",
"E  c #1C4B52",
"W  c #1B4956",
"Q  c #145352",
"!  c #1C5354",
"~  c #165A54",
"^  c #1B5956",
"/  c #1E5459",
"(  c #1D5B5A",
")  c #26474A",
"_  c #22444D",
"`  c #214452",
"'  c #224C54",
"]  c #2B4D56",
"[  c #244D59",
"{  c #364F54",
"}  c #225256",
"|  c #215A57",
" . c #24545A",
".. c #2A545C",
"X. c #235B5C",
"o. c #2A5B5E",
"O. c #1D625C",
"+. c #1C675C",
"@. c #23625D",
"#. c #2E655F",
"$. c #265261",
"%. c #2D5661",
"&. c #265C60",
"*. c #2B5B62",
"=. c #325361",
"-. c #315C65",
";. c #1D6761",
":. c #1F7667",
">. c #246462",
",. c #2B6364",
"<. c #246B64",
"1. c #2B6A66",
"2. c #2D6869",
"3. c #2C6C6A",
"4. c #326365",
"5. c #336569",
"6. c #34686B",
"7. c #336B6C",
"8. c #3A6B6D",
"9. c #257266",
"0. c #2B7164",
"q. c #267369",
"w. c #2C736B",
"e. c #257B6B",
"r. c #2C7B6D",
"t. c #32736D",
"y. c #33766E",
"u. c #356F72",
"i. c #3A6B71",
"p. c #2E7571",
"a. c #277A73",
"s. c #2C7C71",
"d. c #337472",
"f. c #3A7273",
"g. c #337B74",
"h. c #3B7A75",
"j. c #3A777A",
"k. c #3B7B79",
"l. c #515952",
"z. c #664842",
"x. c #7C4745",
"c. c #4B6B71",
"v. c #45767A",
"b. c #427C7D",
"n. c #7A736B",
"m. c #A91F0F",
"M. c #982813",
"N. c #A42507",
"B. c #A3230D",
"V. c #AA230B",
"C. c #B22009",
"Z. c #A52311",
"A. c #A82312",
"S. c #BA3918",
"D. c #8D3A28",
"F. c #C33C1B",
"G. c #C83D25",
"H. c #94442D",
"J. c #B34A30",
"K. c #CB491E",
"L. c #DC4E1E",
"P. c #DA511E",
"I. c #E14D1C",
"U. c #C94A27",
"Y. c #D44A27",
"T. c #DD4E22",
"R. c #CE572D",
"E. c #DB5122",
"W. c #D65229",
"Q. c #C65437",
"!. c #E04E22",
"~. c #834F4C",
"^. c #855651",
"/. c #BF5C42",
"(. c #26806D",
"). c #2B846F",
"_. c #248470",
"`. c #2C8473",
"'. c #2C8B75",
"]. c #328374",
"[. c #36857A",
"{. c #348D7A",
"}. c #3B8D7D",
"|. c #2C9579",
" X c #35947B",
".X c #42837D",
"XX c #457E81",
"oX c #4D7D82",
"OX c #3B8C82",
"+X c #3A9785",
"@X c #498785",
"#X c #54878A",
"$X c #538C8C",
"%X c #459788",
"&X c #51938D",
"*X c #568F91",
"=X c #5A9395",
"-X c #599895",
";X c #5C9A96",
":X c #629799",
">X c #659C9D",
",X c #58A499",
"<X c #63A19D",
"1X c #6A9CA2",
"2X c #65A4A1",
"3X c #6CA5A6",
"4X c #67ABA5",
"5X c #73AAAC",
"6X c #74B2AE",
"7X c #74B3AF",
"8X c #928D85",
"9X c #87A1A2",
"0X c #B1AFAC",
"qX c #C3BCB1",
"wX c #C6C7BE",
"eX c #C8C8BD",
"rX c #C7C8C1",
"tX c #D3D3CB",
"yX c #E5E5D9",
"uX c #F2F1DD",
"iX c #E6E7E1",
"pX c #EDEEE3",
"aX c #F2E6E0",
"sX c #F1EEE3",
"dX c #EDF2E3",
"fX c #EDF0E8",
"gX c #F0F1E3",
"hX c #F8F2E6",
/* pixels */
"( g.T C K  .! [ K K K E h.E J / P ,.X.,.! V | ;.K a.E K >.j.,XK T ' K >.r.f.*.K C >X<X2.G K e.T J &.5.D K U ].<.K K A }.",
"o.h.XX[ T B X.[ $.B T *.! L K &.R 2 J.; #X_ G F L `.G W 1.,.K K K ` K _ @.G 2.K ' T :XK K ` ;.Q  . .E -XJ w.`.g.B ,.O.<.",
"1.1.E K J &.X.J K c.} ..H E ' ^ V R.B.R.} G F ^ >.s.X.o.Q ! J K K K } X.s.L ,.! / C K ` R H e.^ K G &.&X2Xe.{.5.P K @.3.",
"G ,. ._ F G 6XE K K ' E K ! } P K H.Y.Z.J.4.L *.L [.K  .U J Q *X` K K &.X.} G ~ ( B T ` ^ ' ;.y.T X.J 4X@.,Xw.3.*.^ A 3.",
"@X! ,.K L K  .W  .T C $.E ,.L E } %.L.Y.B.K.K P ^ r.P L ! L P #XK V ..W | } H 1.;.K 5X>XQ ~ <.3.K +XP ! 2X1.9.1.! L @.1.",
"P G P P ~ [ E P J H  .E H  .W E y.' f T.S.B.Y.T | `.p.| 2.! o.K T K / X.X.P _ I OXJ C -.>./ >.,...|.K _ J @.9.( &XX.X.<.",
"&X*XG K F K E W K ..%XP '  .T 1.S _ XXW.E.B.N.G J g.! &X@XK  .V K ' J H @X$XP w.q...T m ( ~ ;.>.K {.K } ^ L ,.! ~ E -.@.",
"| 5.v.E Q J K :X....%X` } v.' d.1.K T V R.J.D.W E q.Y &Xd.o.T K K [ ' U f.X.8.c k.<.K m ( ! ^ W @.|.~ V ,.| <.J o.J  .,.",
"-.E X.E U X.J ..T E .XH =X:Xo.P g.V V { dXtXeXyXo.@XE t.J G ! @X@XT ! & M.H 3.3.t.<.K L >.^ ^ ' | {.,.P  .E @.! ^ %XX.( ",
"T K ! ( Q } &.` K K }.P 5X8.h.y.! T _ iXsXyXwXyXX.1.^ K K ..>X6X&XC c.W.A.) 4.].@.3.B ..,.E ' i.<.'.~ P } ' ^ } ' +X!  .",
"K K E A P P T  .K X.}.K K V  .L y...V K 9 $ 2 $X! w.J K T *.5X3XG T I.S.V.] 2.E w.5.K N X.R K K w.'.[.H E oX8.' E '.K [ ",
"E E } ' 1. .T ` T T [.d.V K L / G  .....T.Z.Q.E P >...! ..>.V T T 7 L.V.Z.K P L >.} -Xh./ [ -.T `.'.^ K ` i.E ' P  XP E ",
"T V T o.R T C C B G }...K B P ! Y 4.K ] T.m.Q.E ..X.T T B 5.J C ` !.T.A.G.P >.K ( ( <X$X&.T N B G ).S G T K [ T E ).&.T ",
"' ` K ' ,.E ' =X;XE ]./ V [ &.o.A  .K ) T.Z.S.[ E X.E K ! g.B m c.E.C.0XrXwX, [ G O.P P ! G W X.D ).@.U K K K K <.(.A M ",
"=.*.[ ` L &.K C J 6.g.o.E K H / | ,.K _ T.B.B.E T / K / *.d.T K < E.b dXpXeXtXV R ! ^ J ,. .J d.| s.U ~ ' K ! T | 0.@.N ",
"C E [  .E T V [ ` K w.#.J K ..J H '  .H L.B.B.j.'  .K T X.h.W B ` T.uXsXhXM.V.J.P Q ,.! ;X2XJ E >.:.Y 4Xo.T L K | <.,.K ",
"J T [ [ E v.b.[ j.;.g.[ *.' :XE } E E m T.V.A.) [ } $X_  .g.K B K w.gXdXH.W.W.A.B.{ E E 3XE P K 8.q.O.,XL 4X>.K ' <.o.K ",
"C T K T E f.2X@XJ G 7.T 7.C K _ 3X| ' | E.Y.B.f  .K K T -.d.K ..B ! | 8XJ.E.!.T.V.m.) ,.` ! G &.>.9.-X~ 5XK ! ' ^ X.' J ",
"T ` ' C 6.K v.K X.K q.! K K T K $X6XJ T L.T.A.W.` ' X.K K d.5.E K L ! 1.,.d.H.T.T.A.S.^ ` OXK P <.9.X.P K u.L 5.@X .g. .",
"T T 6.;X..K '  .R J q.G  .J C T =X} -.W J.P.A.N., T T V ] g.K $.X.Q w.~ D Q V !.T.V.Z.! V +X,.>.| <.>.P L J Y -X$XP %X` ",
"K >X[ T } K K T T K q.K K ! C T T E J [ , L.T.A.R.` K ` ..d.*.T ,.@X<.<.O.E P L.T.V.B.C K |.X.^ P ,.1.! J J P P 8.K  XT ",
"T B W K T T T E ' E ,.D ' B T K T q.K 5.' T.E.V.F.) K } P t.$.' K %X&Xy.} <.Z T.T.B.B.V *.}.X.E ( @.L G &.' J  .K K .XK ",
":XN C j.` K K T $.R >.J  .5.K T V ]. .d.G J.E.Y.A.R.] W K t.J  .7...@.Y } ' W.P.T.B.J.T P {.).E ! @.^ E ' f.' ' V T  XK ",
"N ` C ].K <XK K ..XX&.' =X;X$XB K {.! *.K _ E.E.B.V.* J C t.K X.X.X.P } #.7 T.E.B.B.' 3X,.'.}.J P X.P K X.R ( H V ! }.d.",
"T ..C p.K 1XK T [ J X.*.J =Xu.K ' e.>.K B m H.L.W.B.U.$._ t.K :XX.G ! &.e L.L.F.A.q T T ^ |.g.' } X.E  .1.E Q [ K L ].] ",
"C C ` g.B T 2.T T  .u. .T K T T ! ].L K T - 0XaXfXfXgXgXpXgXyXtXiXl.Z Q.T.T.F.N./.K V B :.).I ! #Xd.H ' G *.&.' B K e.^ ",
"J C %.d.T K {.K ' _  .@.E [ K T t.e.y.K pXdXdXgXsXgXgXsXdXgXuXuXgXwXrXrXeXeXyX+ | -.` ( 7.].s.! 1.@X5.} E  .T *XK >.].B ",
"J W J 3.%._ |.' b.&X} 3.K T ` T S ].K B dXdXdXpXgXgXgXgXgXdXdXdXdXyXrXeXeXwXeXeXv ' K 2.S (.L ^ | v.'  . .H P oX^ J `.K ",
"K T K f.T J  XT [ b.' j.K V K K >.e.F H dXgXgXuXgXsXdXdXgXdXdXdXsXeXeXwXrXwXeXrXdXT B  .w.g.~ L V W  .T K T ' K u.7.s.K ",
"G T [ ,.K ..|.K C T 8.1.W K ` N G 4X<.G fXpXdXyXqX8Xn.z.> b l.n.8X0XeXrXeXwXeXeXpX .E ! 7.e.P ^ B *X( W [ `  .K k.G g.X.",
"B i.E >.W w.|.b.T T 2.1.E K -X>XL y.K G $ E.!.E.T.T.T.E.R.sXgXfXgXY.J.M.3 3 1 2 - ..*.4X@.q.q.5.J T ( T T K T 5.;X>.p.L ",
"' ' K oXm +X).U B C E 1.o.5X7Xh.p.e. .^ 5 !.!.P.T.E.!.!.W.gXgXgXgXP.P.Y.A.Z.Z.B.^ T -. .! 1.,.! T K 1.K K K T T 3.A 3.T ",
"| T V  ._ | '.e.5.C R >.K k p d i s h u w 0 2 1 1 7 D.J.J.gXhXdXgXP.P.F.B.Z.B.A.8.P ' P J #.L X.*.*.,.W K 2XK E W T 3.H ",
"..K [ [ -.I `.c =X_  .1.} g d ^.^.^.^.^.^.^.^.~.x.n h s d d g d h d d h d d t w > > : - ) 4.v } ....( i.B b.K T K E 2.V ",
"K ! W ' B s.s.F / T P @.o.s d p p h d d h j x x.~.^.^.^.^.^.^.d d d g q 6 6 6 6 6 6 6 6 6 6 d ! M E X.&.V ` ` T J *.1.E ",
" .D K K 2.Y _.( @.E E X...g d d d d d d d d p p p d d d d d d p d d d d 6 6 6 6 6 6 6 6 6 6 h -XA J 7.J K B _ &.T ] ,.-X",
"J @.K K E 1.w.! R H W ,.K h d d d d d d d d d p p p d d d d d p d d d d 6 6 0 5 6 8 6 6 6 6 d 2X^ ' &.} T K T  .' J >.E ",
"L `.T T O.! e.D 2.} ! ,.J d d d d d d d d d d d d d d d d d d d d d d 6 6 6 6 6 6 6 6 6 6 6 s '  .G X.*.T K T E E K ! K ",
"y.].` J _ P :.3.Q P .. .>Xh d d p d d d d d d d d d d d d p d d d d i 6 6 6 6 6 6 6 6 6 6 5 s E } E  ...=. .} | E E 6X8.",
"w.).N T @.,.q.G ( P T [ K g d p d d d d p d d d d p d d d d d d d 6 6 6 0 6 6 6 6 6 6 6 0 6 r K K P *.K ` ,.} ,.*.K ' K ",
"`.{.T E ! ( <.P L 2.] W T : u g d h d s d d h p d d s s a 6 6 5 6 6 6 6 6 6 6 6 6 6 0 6 6 6 = V [ T X.K T C ' N ..V R T ",
"1.e.,.( } E >.X.P L i.f.` %XH u w t t t t r w t q & + o o + % 8 q w u g s s i s s d d s i q 9XK #X' [ T T T K P R K K ` ",
"w.t.w.G J X.@.! |  .E i.K |.P t t t t t t t t w r r 5 6 6 6 6 5 4 0 0 8 6 0 6 6 6 6 6 6 * V _ K T T [ K B ` B J E 3X[.V ",
"g.@.w.J <.P X.L K | K K V {.E n z z z z j z z z.r 0 8 q g s s s s w t q 4 6 5 5 . .     X C V ! T ` ` K m 8.=XK ` E K E ",
"1.@.| J `. .,.G E  .K B ! '.E l l z z l z l j j % 6 % d d d d d p d p d d 5 6 o d d d d < K J ( T ` W K ^ <X-XP E P ` X.",
"@.&X3.' '.o.4XL P K E C 1.`.F l l l l z z z j d 4 5 2 d d d d d p s d d f 5 0 9 d p d d > C K p.B 2XK J =X2XK *.K [ T P ",
"X.@.! X.].L W ' T J W C I r.R #       o o o 4 o 0 0 0 @ g k g d s s h s O 6 5 5 d d d d > C L F T T E H C %.K E K W B o.",
"|  .! ! r.' T ! @XOXT T ~ (.d.$ & r e w q r 9 0 4 4 5 6 5 5 6 6 0 6 6 6 6 5 5 6 5 6 0 0 = K ~ S K T 5.V C [ E ' J J K P ",
"E / H L y.3.K V T '.C K @.q.E n z z t w 2 l h d d d d d d d % 6 5 + h h h d s g d g s g = K ,.@.E T 2.J T T B -._ ..' P ",
"P K ' h.p.<.K V T '.` ..,.q.3.l z n r t $ z p d d d p d d d d 6 0 s p d p p d p d d d y : T L >.5.V ( G T E K K E V E E ",
"T ` K 2.w.P K C B `.J 7.5.9.Y z z l t t 4 j s d d h d d d s d 6 0 u p p d d d d d d p 8 : K  ./ J G J ! K W E K b._ E ( ",
"T $X@X,.w.1.K C &.).W  ...@.! r t t t t r r 8 5 2 8 % % $ # q 6 5 q o + @ % 5 8 q w q w - D ^ .. .K | K ! ] T K K K E }.",
"V 7X&Xk.w.J ! ` ,.s.Q J ( @.P k n z.u u y & @ & 6 6 0 @ . O % % 9 9 9 0 5 6 5 6 5 5 5 5 - E ..| ..R T !  .3XK K V V K +.",
",.C =XX.>.o.Q T ,.r.Y J E X.X.n z x x l j z h d 6 5 o p d h h d p d d d t 6 6 o d d p d - ! oXK T R ! K L K T T K K K ).",
"^ T T ( &.P ~ K #X<.O._  .} P l z x x x x x n p 6 6 + d d d d d p p d d d 6 5 d d d d d ) E 7.E E w. .^ Q ..' T N K P ).",
":.K K G ( Q O.G >.1.@.! ' L ! k x x j z x x x 5 6 6 r h d d d d p s d d 6 6 6 6 d d d p ] ..K ` K R g.P T W a.K 5XP K {.",
"^ K E | ,.H 3.5.J X.} E K E K 9 u t t t e e e e 6 6 6 6 5 5 5 5 5 5 8 8 6 6 5 0 & % @ + _ ` K C K &.G K P ..e.V K ` f.q.",
"p.K ' K -XXX( U E X.J ,.' V #X: t t t t t t e t 6 6 6 6 6 6 6 6 5 6 6 6 6 6 5 6 6 6 6 5 ` K -.B ;XX.G J 7.K _.-.T C ~ 9.",
"! P B i.i.W L A E ' K ^  .#X&X*X{ -., X X : > y y 9 9 0 0 8 0 0 6 6 6 6 6 6 6 6 0 4 9 : K K L K [.D J ! J K _.p.' 5.Y 9.",
"1. .T V K  .( ..T T C  .X._ [.@XL ,.>.H ' ` r.1.K 9.K V 0.1.T K _ >X' 7.r.P E T K ..@Xk.=XT :.T ] E J  .*.~ `.d.-.@.w.g."
};
