/* XPM */
static char *result[] = {
/* columns rows colors chars-per-pixel */
"60 60 204 2 ",
"   c #0B323D",
".  c #0A3A3C",
"X  c #13393E",
"o  c #0D3D43",
"O  c #0F3B46",
"+  c #143C45",
"@  c #1A3C46",
"#  c #193648",
"$  c #163D49",
"%  c #1B3E4B",
"&  c #1D3F52",
"*  c #213E4D",
"=  c #213F52",
"-  c #064645",
";  c #0C4544",
":  c #0F454A",
">  c #0E4C4B",
",  c #144246",
"<  c #1A4346",
"1  c #134946",
"2  c #15434B",
"3  c #1B434D",
"4  c #144B4C",
"5  c #1A4A4D",
"6  c #0B524A",
"7  c #0E594E",
"8  c #14524C",
"9  c #1B514E",
"0  c #0F4551",
"q  c #174450",
"w  c #1D4351",
"e  c #154C51",
"r  c #1D4B52",
"t  c #1C4F59",
"y  c #155453",
"u  c #1C5354",
"i  c #145B54",
"p  c #1C5A56",
"a  c #1D5559",
"s  c #165C58",
"d  c #1D5B5B",
"f  c #21434E",
"g  c #224A4F",
"h  c #214452",
"j  c #284051",
"k  c #224C54",
"l  c #294E56",
"z  c #214258",
"x  c #234D59",
"c  c #294E5A",
"v  c #225256",
"b  c #285357",
"n  c #215A56",
"m  c #23545A",
"M  c #2A535C",
"N  c #235B5C",
"B  c #2A5A5E",
"V  c #0F6256",
"C  c #17625A",
"Z  c #1A665B",
"A  c #1D635C",
"S  c #1B6A5E",
"D  c #23635E",
"F  c #2C625D",
"G  c #236B5E",
"H  c #2B5661",
"J  c #255D61",
"K  c #2B5C62",
"L  c #305761",
"P  c #315C64",
"I  c #355D67",
"U  c #1E6461",
"Y  c #1D6B63",
"T  c #1E7466",
"R  c #1F7C66",
"E  c #246462",
"W  c #2B6364",
"Q  c #256C65",
"!  c #2A6B66",
"~  c #2D6469",
"^  c #246D69",
"/  c #2C6C6A",
"(  c #316265",
")  c #336A66",
"_  c #33646A",
"`  c #39646B",
"'  c #326B6B",
"]  c #237365",
"[  c #2A7266",
"{  c #227866",
"}  c #2C7967",
"|  c #25736A",
" . c #2C746B",
".. c #257B6B",
"X. c #2B7B6C",
"o. c #31736C",
"O. c #317C6C",
"+. c #346D71",
"@. c #3A6C71",
"#. c #2D7270",
"$. c #257A70",
"%. c #2D7B72",
"&. c #337371",
"*. c #3B7273",
"=. c #337C73",
"-. c #3A7D77",
";. c #377679",
":. c #357C79",
">. c #3B7B7A",
",. c #406C74",
"<. c #427175",
"1. c #407C77",
"2. c #45767B",
"3. c #447B7D",
"4. c #49787F",
"5. c #1E8566",
"6. c #1D9070",
"7. c #228067",
"8. c #288267",
"9. c #24846D",
"0. c #29846E",
"q. c #228D6D",
"w. c #2D896F",
"e. c #289369",
"r. c #258670",
"t. c #2C8473",
"y. c #278B71",
"u. c #2C8B73",
"i. c #298678",
"p. c #2E8A7A",
"a. c #328475",
"s. c #398377",
"d. c #328B75",
"f. c #358279",
"g. c #3A837C",
"h. c #338D7A",
"j. c #3A8B7C",
"k. c #2B9375",
"l. c #2D9877",
"z. c #2C957B",
"x. c #2D9A7B",
"c. c #329273",
"v. c #33947C",
"b. c #3A937F",
"n. c #319B7E",
"m. c #41837C",
"M. c #48807F",
"N. c #497B83",
"B. c #4B7C82",
"V. c #527C85",
"C. c #348D84",
"Z. c #3C8C83",
"A. c #369883",
"S. c #35A286",
"D. c #39A282",
"F. c #438481",
"G. c #4A8383",
"H. c #448983",
"J. c #4C8B86",
"K. c #478A88",
"L. c #4C8D8C",
"P. c #528385",
"I. c #508986",
"U. c #53858A",
"Y. c #538D8D",
"T. c #46978B",
"R. c #54928E",
"E. c #508E90",
"W. c #5B8D93",
"Q. c #4A9890",
"!. c #549392",
"~. c #5B9394",
"^. c #559B94",
"/. c #5C9A95",
"(. c #579698",
"). c #5E9399",
"_. c #5D9C99",
"`. c #619296",
"'. c #609798",
"]. c #629B9C",
"[. c #6B9B9F",
"{. c #5DA49C",
"}. c #62A29D",
"|. c #5CA6A2",
" X c #63A3A1",
".X c #6AA4A4",
"XX c #64AAA4",
"oX c #6BAAA6",
"OX c #6EA6AB",
"+X c #66ADAA",
"@X c #6CABAA",
"#X c #70A4A5",
"$X c #74ACAC",
"%X c #78ACAF",
"&X c #64B2A3",
"*X c #6DB6AF",
"=X c #73B1AD",
"-X c #79B2AD",
";X c #77ABB0",
":X c #6FB5B1",
">X c #76B4B2",
",X c #7AB5B6",
"<X c #7AB9B5",
"1X c #7CB8B8",
/* pixels */
"n =.& & w k r r 3 w % e r l , x q Y E N u 3 c S 3  .3 w ' f.{.+ w z 5 A X.:.W 3 w /.$XW 2 3 { w 2 b / 2 3 - a.~ 3 & ; a.",
"N =.>.3 w & C k H & % W 2 , 3 N w N u % P.3 , 1 2 %., r / E 2 3 % l 3 5 Q 2 ^ 3 e & P.% 3 h ] 2 N m r _.r ] 5.=.3 F W ] ",
"Q o.r w , m p w 2 B.m N k 5 r N 3 d n m v , 4 9 C t.B H 1 4 5 3 % 3 r U X., / y u 3 2 w 8 @ [ 4 3 , W oX.X..C./ 2 < G ^ ",
", ! n w - , *X3 3 3 3 5 h u m 3 @ ].@X3 r / , ~ 1 i.f 4 e ; u m.h h f E A b 3 E A # M z y k S O.w d % oX1 {. .| W u +  .",
"F.a ! % 2 % u 3 m % % H 2 _ 5 w m m 2 3 3 J 5 r d | r > u 4 r W.% w m r d b + [ ^ 3 ,X[.7 u Q ! 2 n.3 5 XXQ ] Q r 4 F ^ ",
"3 , 3 f y M r 2 , 3 d 3 * n k r f.g x r k + + r W t.X.1 ) u J % w $ a J B 5 f 8 Z., & ` Q m W ^ n x.2 3 + D Q N Q.B A E ",
"J.~.3 o : 3 r r w H A.3 k m 3 / 5 h B.f % .X>.3 + X.e R.m.3 m & h k 3 % Y.L.5  .&.v 3 + d s d G 3 c.g m y 4 E 9 n 5 ( J ",
"E W 2.u v 4 w `.5 B A.w v N.k -.! 3 & 3 w % w r k ^ 1 ,Xo.B h + 3 k k 4 ~ D @.; g.^ 3 + d u d k N x.d % n b Q @ ^ 3 u ! ",
"K r d : 4 u r r k r n.3 /.~.N j X.& & w w w w u W F.5 o.2 2 u J.K.w r e c w o. .%.A 3 $ Y d d m p k.! 3 m r A r u S.m d ",
"f 3 k i u B r l w w b.5 ,X*.B.=.2 w 3 m J # @ w E ! B h f K _.<XH.3 &.E 3 f &.f.D *.3 d E r r m ^ q.4 r c r u v a S.v m ",
"3 3 4 + 5 r w k 3 N d.3 3 3 n 1 O.m w q a % |.I.r ! 3 3 3 E :X.X+ 3 [ Z $Xr ) 1  .~ < + v w w 3 ] w.p.5 k U.<.k 5 6.2 m ",
"r 2 m v ! N w w 3 3 t.:.% w 3 m : m 2 r ~ % M M 3 W m 5 M ~ % 3 w h o.o $ 3 3 , J u .X3.r a M 3 r.u.4 + w ,.r , 2 v.r k ",
"w % $ K 4 w w & 3 , d.b w 3 2 w 9 o.3 5 r 3 $ 2 J N h h w [ O + w + | 9 2 e &.2 N 4 <X*.N q + % + 0., , 3 3 3 % m d.' 3 ",
"c h w m E x x (.].w r.9 @ c U n o B 3 : a 3 % a r H k % u g.w # ).w Q ; E 4 u u 3 D v 2 r $ w W < 8.U u f 3 % & ! } + + ",
"c I c w 2 K 2 w 3 ' a.K r f 3 m N J 3 2 N N w 4 w d f x B =.2 3 3 E K j.%.e m 2 r y n 3 J M 2 %.n } 2 9 h 3 3 w v { E $ ",
"w w m M 5 3 w x h 3 } ! 2 3 m 3 3 c m w r H c N.k m % h n :.e w 3 a [ 1 u u ! k 1 a E 4 /.{.$ 2 E 9.p .XW 3 > 3 m ^ N f ",
"w z m a r B.' c ;.Q %.c ' k ].k r r 4 + < r 3 3 k r !.r m =.3 3 3 =.X.d t.h 3 J 2 d r k #X3 5 3 o.} V {.y +Xd 3 5 Q J 3 ",
"3 w , 3 k 3.>X#.3 ,  .e %.& 3 w #Xr r d 3 m 3 Y r 2 f , W %., m % g d [ -.Q % k F % r ( r u , W E { }.9 ;X, y m i D k , ",
"w x k 3 3.2 P.$ J f [ r 2 3 3 3 '.>Xr 2 2 x 3 A 3 l e % $ =._ t + 1 v ! E %.N * q  .{.u w C.w ; ! T B , 3 ;.; ` ~.n s.k ",
"& % @.Y.x h u m 5 2 ] 2 I k w 3 ~.3 ` e $ % k ] 3 w w # k =.3 a m 1 ] 4 1 r % 3  X>X XN w v.E J i ^ ! f @ f , {.K.2 A.r ",
"3 OXk w m 3 3 3 h , | 2 @ u % h w > % c 2 m m i.2 & w z m X.~ r Q J.Q ! d 9 5 d k XX1Xw 3 z.N d 3 Q E a 2 3 1 3 ( 3 k.w ",
"w 3 3 2 w 3 w e r r ~ , k f % w & V 3 ( r w r 9.[ w & 5 3 } c r 3 ^.L.o.v | r d.3 % 5 3 D b.B k n E + + E k , a % w v.% ",
"_.o w Z.w 3 $ & K 2 Y % M @.3 3 % j.d &.2 r =.t.4 w h 4 $ O., J *.v N u n 2 k 0.3 z 3 3 5 d.%.k e D m r r =.k x 3 3 d.2 ",
"O c 3 g.h @X% % J !.J x -X@XL.3 + h.4 m 3 3 r A w h 3 3 3 [ # s N p y v W u 5 k.5 3 2 @X( w.n.@ f N k , d q y , w c h.=.",
"% c w g.% $X3 w x @ n K 3 _.*.3 9 { E w 3 3 2 ^ ] 2 h c %  .3 }.P 2 u n u m u 9.r 3 h 3 y z.s.k m N v m ] f 4 m 3 r t.m ",
"% & h g.% & ;.w h v @.N w r w 3 e v.5 * 3 f d  .N % 3 W.u  .3 u 2 m 3 r c r u r.' 3 % % Q 9.7 N '.=.3 x % D B w r j X.u ",
"% & _ s.% % k.r h w a y r k h 3  .b.%.q w k G.N n E 3 3 3 o.w f u v 5 r .X/ U ..p ( w B %.t.t.5 D H.b k r v 2 ].3 s u.h ",
"0 & $ %.a w k.r +./.r C $ 3 z 3 ; 0.X 3 3 }.e y d 5 w * M ! 3 + E ~ r k ;XF.; [ y 4 3 G < ..r Q k P.r K K 3 5 U.e + ..% ",
"= % % -.= * l.* 3 G.r f.3 3 3 3 S %.1 z 3 , m N + ~ r _ 3 [ f K 3 M % 4 w 3 4 [ W 3 % b [ %.u 1 2 r r w 3 f k 3 *. .X.3 ",
"% 3 K ' % m k.f w = ' A k w w + 1 &XQ 2 3 r m H oXM k 3 % G q h w # 3 : w + u E d M j u o.X.e u , !.a w M z m w J.+ #.E ",
"+ @.k ! q =.k.:.w 3 / Q q 3 R._.3 o.3 1 3 4 m r 5 8 k ^.' D a m 3 l w 1 w h a s u m y XXJ | / / x h d w w 3 w @.Z.W  .% ",
"t x 3 G.+ z.9.4 % 3 r ~ K $X$X1. ...a v f 2 * r w $ 3 k 3 ~ 9.e 5 # 3 A 2 3 r r n 5 W a H T E u q & U O 3 + w 3  .+ | r ",
"N w + J 3 D r...N j 4 E O '..X, A [ %.3 3 g & w $ & w 3 % N 5 < , k *.1 w 3 r XX*.5 3 4 3 Q < u N K J v % XXk r w 2 ^ 3 ",
"B 3 k v I 9 r., .X3 m ^ m w w ' 5 Q D J n + ;.q r e Z.z 3 E 6 C k w r 4 N w w w b v 2 v B ! < k b m y V.3 B.3 2 , t ! @ ",
"% r w u $ ..7.r m w 2 ^ J k % N G Q % 2 m W j U.m 3 k.r m / a.2 r 3 J N 2 O w % w 4 a 3 r E N r + r m H % = % r 2 ~ ^ h ",
"M e   2 [ 5 r.A C : b N J M = e r U k M : 4 w 3 3 x x.h 2 ! S =.% 3 XX5 # 3 w w , 5 k , u D u  X, 2 d 2 w & h B h k W ~.",
"3 E $ 3 w ^ { r > f r Q h w W 2 f E 3 E u 3 W 3 3 % k.2 w | X.Y >X3 *.4 $ c & t , [ d 3 p u 3 <XN e d r * 3 3 m w 3 E r ",
"w a.h w D 9 { : ! u e ~ + w e m J ~ a 3 < ( & x 3 5 z.w w N 5 < D w m W.t 2 % h r N r u 3 n 2 c m , a ~ r & w 5 4 3 u % ",
"o.a.h % f % ] [ 8 r M m _.2 w n u N m < #.W 2 r w p r.t.k ! O.[ 2 $ 3 ^ 3 3 % m h , y w 2 a 3 r n h m m H r N B 2 u =XW ",
"X.9.3 q E / ^ ; A 2 k v # 3 c x 3 n , v D ~ I G.% @.y.k.m ] W f 4 3 2 > E K % 3 3 k a .XN 1 $X3 3 5 B 3 z n r ~ m 2 k 3 ",
"a.p.3 k d d ^ 5 5 / m k 3 C.2 3.H.=X2 3 [ r L..X* 5 q.n ' ! a b a J m w D.h R._ 2 ( , f 2 8 3 , m w J w 3 & k + J + r w ",
"[ 7.W i k , E W w 2 2.4.3 A.2 n /.M.( r 3 4 q ~ f d.7.O.-.d r ! ~ e r 4 v.w 5 3 3 M 3 .Xn 3 ;Xx F.x t % w w 3 w 2 3 3 3 ",
"=.o.%.+ 2 N D k W m o U.k k.h p I.- k 5 k 3 % 2 B A i.4 Q E y 3 4 N 3 2 r.5 3 r f ` f 3 3 % f 3 w 3 c 3 3 % 2 2 3 *X&.% ",
"%.D ..3 S r N 2 5 n % w w e.w @.[.3 3 k r , w H ' u 9.p.=.3 N r *.' h 2 d.% u 3 2 f $ 3 3 w % 1 w r w 3 , <.~.% w n 2 r ",
"[ D u 5 d.m E 2 r a 3 3 m u.r w & f.3 3 % 2 r k p.Z ..9 9 m u r / m m Q t.3 k r % W w % |.3 & u 3 3 h % u '.}.< 2 w f N ",
"J L.] m r.` {.r 3 3 r & C r.1 w 2 n.3 z w 3 !.3 E 3 ..s.d w 3 u |.m 3 Q 0.X.3 r * 3 2 x w 3 g %.3  X3 % W.oXv W 3 M 3 3 ",
"J D r B u.2 k e r 3 w w 6 9.r & w w.w w 3 k N + =.5 T.5 ! 3 3 r N , B / =.s 3 3 3 3 3 u w w 1 4 3 w h 4 3 K 3 r % l , B ",
"d N 4 u { w w r ].A.w q > t.' 3 3 5.r 3 r 3 w e E [ { + 5 D 3 r K w 4 A =.p $ + + 5 3 a & % d . $ & &.# 3 m w m 3 3 5 w ",
"5 m 3 1 %. .3 $ h u.w w N ] 4 3  .c.f 3 3 $ w E d 5 Q v E ^ 3 2 c O #., Q m e $ w 3 g u 2 w Q ! 4 3  .$ w r % K 3 J r 5 ",
"r w r a.X.! w w 3 u.w B &.| [ h v y.G 3 *Xl 3 * 4 , Q v d ! &.k ~ 3 J p J E r , 2 % j i r 3 5 E [ # d , & w h 3 r % r 5 ",
"3 w w ! X.3 & w w i., / *.T 9 E [ u.8 3 w & 3 a W B Y k 2 2 f 3 3 m ! e N M r w W l , D a 3 a m 3 , 3 4 % c r 3 Y., 5 p ",
"* J.! b [ ! $ & W r.q v J Q a 5 X.w.8 * w 3 3 2 3 , D n B 2 3 N 3 w u m n ( k w 2 r @ p $ , v N N f r q 5 l & % 3 r w v.",
"% -XI.=.! + 9 3 W X.8 3 E D 4 E 5 r.a.* 3 !.B % n n N s d 3 w m 3 $ B v S , w 3 XX$ x s ; r N m J 4 3 t N oX% 3 % % w | ",
"[ w _.d ~ E 6 w Y ..5 2 r N E &.5 t.] 2 W %XoXo d k D b 3 3 N w , X ! r t.3 3 x + 3 K u , u 2.2 w 4 e * 4 5 3 3 w % 3 9.",
"d w 3 u E , > 3 J.Y A x n m r O.T { &.D @.p !.N 2 5 }.m 3 < k v + E.-., T 1 w 3 3 3 w a m k ! 2 k [ m a r M w 3 + 2 w 0.",
"^ 2 3 % m u p , E ! D a r 2 r / 5 X.2 ~ * * r n 3 y a k r k a q q # + + Y ( z 2 H 5 H t q m 3 & 3 - f.2 3 r #.2 >Xr , h.",
"y @ k m W 5 X.+.2 N 5 M @ r 3 1 u [ #.v w z z 2 3 1 k h 8 5 J K f % 3 r u.K k m ' < U.m w 3 3 h * ' + % 5 W T # w w +.X.",
"$.r e 5 '.~ N 8 r d 3 ! k + J.W ^ | 3 r % w 2 m 3 N r w i r w 3 w k h ' R j.b 3.N L k 5 w 2 I 2 R.N q $  .f r.@.w & 9 ] ",
"y e # _ @.r 1 ; k x w a H R./.(.n ^ G 3 % 3 g B 3 Y + $ D =.x 3 3 M 3 ^ ] , + !.<.3 k G.3 3 - % E.1 w r # w t.^ o ` 5 { ",
"^ r w w 3 t a P 3 r 3 N ` 3 m.G.< E E < u 3 ../ w ] % w | ~ w 3 3 _.k ^ =.r 3 l 3 B R.*.(.w { 3 H a w r _ y h. .H ; ..0."
};
