/* XPM */
static char *result[] = {
/* columns rows colors chars-per-pixel */
"60 60 248 2 ",
"   c #0D0A07",
".  c #170708",
"X  c #17120F",
"o  c #161716",
"O  c #280505",
"+  c #360606",
"@  c #2F130A",
"#  c #261818",
"$  c #381717",
"%  c #0F211D",
"&  c #30241B",
"*  c #172928",
"=  c #132D2A",
"-  c #1B3839",
";  c #2B2626",
":  c #3A2728",
">  c #322B2D",
",  c #28332C",
"<  c #36352A",
"1  c #2A2F32",
"2  c #2A3739",
"3  c #383736",
"4  c #490306",
"5  c #590606",
"6  c #591216",
"7  c #6C0504",
"8  c #670808",
"9  c #770706",
"0  c #6F1113",
"q  c #761416",
"w  c #4B3407",
"e  c #492828",
"r  c #53252A",
"t  c #522A2A",
"y  c #5D2C2D",
"u  c #4F3733",
"i  c #493637",
"p  c #4C3B3B",
"a  c #60312F",
"s  c #693736",
"d  c #6B3636",
"f  c #753B3B",
"g  c #783B3C",
"h  c #18433E",
"j  c #28413C",
"k  c #734132",
"l  c #0C3D44",
"z  c #133E45",
"x  c #1B3E45",
"c  c #163E4A",
"v  c #1A3E4C",
"b  c #1D3F52",
"n  c #233E4A",
"m  c #353E42",
"M  c #0D4646",
"N  c #0D4945",
"B  c #0D4A48",
"V  c #124346",
"C  c #184546",
"Z  c #15444B",
"A  c #1B434D",
"S  c #144B4C",
"D  c #1A4A4E",
"F  c #0E504B",
"G  c #13524D",
"H  c #1A514B",
"J  c #184552",
"K  c #1C4451",
"L  c #164C51",
"P  c #1C4B52",
"I  c #155352",
"U  c #1B5353",
"Y  c #1C5A55",
"T  c #1E5559",
"R  c #195B58",
"E  c #21444D",
"W  c #294549",
"Q  c #364848",
"!  c #20544C",
"~  c #214553",
"^  c #214B54",
"/  c #2A4854",
"(  c #244D59",
")  c #225256",
"_  c #265756",
"`  c #24545A",
"'  c #2A545C",
"]  c #235A5C",
"[  c #2A5B5E",
"{  c #395957",
"}  c #1D645B",
"|  c #23625D",
" . c #28645E",
".. c #39635E",
"X. c #2A5661",
"o. c #265E62",
"O. c #2B5D62",
"+. c #315762",
"@. c #325D63",
"#. c #1C6D63",
"$. c #256362",
"%. c #2B6364",
"&. c #256B64",
"*. c #2B6B66",
"=. c #2A6969",
"-. c #2D6C6A",
";. c #316266",
":. c #32656A",
">. c #336C6C",
",. c #3A686B",
"<. c #267669",
"1. c #2C736B",
"2. c #2B7C6D",
"3. c #32746E",
"4. c #37786E",
"5. c #386C71",
"6. c #2C7C71",
"7. c #357371",
"8. c #3A7473",
"9. c #327C73",
"0. c #3D7A7A",
"q. c #565250",
"w. c #774345",
"e. c #6A5554",
"r. c #4A625E",
"t. c #6F6752",
"y. c #516868",
"u. c #43777A",
"i. c #6A6F6F",
"p. c #840202",
"a. c #8A0406",
"s. c #930101",
"d. c #9A0202",
"f. c #920B0B",
"g. c #8B0E11",
"h. c #A30101",
"j. c #AC0203",
"k. c #AA0B0C",
"l. c #B40203",
"z. c #B90305",
"x. c #AC0E11",
"c. c #B91516",
"v. c #9A1E21",
"b. c #C40101",
"n. c #CB0202",
"m. c #C90609",
"M. c #D30102",
"N. c #DB0101",
"B. c #D90906",
"V. c #CB1112",
"C. c #E40101",
"Z. c #EC0101",
"A. c #E7050A",
"S. c #F30201",
"D. c #FB0202",
"F. c #F00608",
"G. c #A17F21",
"H. c #844343",
"J. c #884448",
"K. c #8B5553",
"L. c #8F5A61",
"P. c #8E7571",
"I. c #B26A6D",
"U. c #29806C",
"Y. c #2D8474",
"T. c #2A8A75",
"R. c #37877A",
"E. c #2E9075",
"W. c #42837E",
"Q. c #7F8077",
"!. c #B19120",
"~. c #FDD10C",
"^. c #EFC829",
"/. c #918476",
"(. c #FDD77A",
"). c #497F82",
"_. c #3C9183",
"`. c #4B8886",
"'. c #54888B",
"]. c #4D938D",
"[. c #589090",
"{. c #599895",
"}. c #7E8689",
"|. c #639B9C",
" X c #5CA099",
".X c #67A29A",
"XX c #699EA3",
"oX c #6BA5A5",
"OX c #69A7A6",
"+X c #73AEAE",
"@X c #76B2B2",
"#X c #858889",
"$X c #8F9289",
"%X c #8A9797",
"&X c #949899",
"*X c #AE9796",
"=X c #AEA592",
"-X c #9DAAAB",
";X c #A6A6A6",
":X c #ABACAB",
">X c #B1AEAD",
",X c #B3B3B3",
"<X c #B9B8B8",
"1X c #F6988D",
"2X c #F4AA9C",
"3X c #C4B7BA",
"4X c #F3B7A7",
"5X c #F7D684",
"6X c #FCE19E",
"7X c #D1C5A9",
"8X c #F2CEB1",
"9X c #FBE6A9",
"0X c #F9E7B6",
"qX c #C0BDC1",
"wX c #BBC7C8",
"eX c #C4C7C8",
"rX c #CDCDCD",
"tX c #D1CECD",
"yX c #CCD4D5",
"uX c #D5D5D6",
"iX c #DCDCDC",
"pX c #E0D5D2",
"aX c #F7E5C6",
"sX c #FCECC4",
"dX c #F3EACD",
"fX c #FCEDCC",
"gX c #FDF3D5",
"hX c #D6E4E3",
"jX c #DBE4E6",
"kX c #DCE6E9",
"lX c #DEE9EA",
"zX c #E4E5E4",
"xX c #E6E7E8",
"cX c #E3EBEC",
"vX c #ECECEC",
"bX c #F2EDEB",
"nX c #EDF1ED",
"mX c #F8F4EC",
"MX c #E6EEF0",
"NX c #EAEEF1",
"BX c #F1EEF1",
"VX c #EDF3F4",
"CX c #EFF4F8",
"ZX c #F3F4F4",
"AX c #FAF7F6",
"SX c #F2F6F9",
"DX c #F5F9FA",
"FX c #FCFDFC",
/* pixels */
"0.:.K b n Z V L V ] ) *.S V l ` ^ A ` @.OX5.`.{.|.K K v E.R.K v '.J D R Z 7.U.9.3.Z P A Z %.>.P %.[ P ) @.H :.E.E.-.U.D ",
"$.P v v X.0.0.`.U P %.$.) ;.^ Z Z v ` / |.`.OX'.J K K X.E.2.*.o.OX$.` @.$.V 2.3.M >.' ( P D :.V U Z A v A P Y.R T.S R.I ",
"$.P D A u.u.`.`.B ] S %.$.C Z ' K P ] ) A Z Z J K K b J U.T.) C J K l 1.Z $.2.Z 0.S ) 8.Z V :.K C J K b K R H N T.R.%.[ ",
"7.O.Z v P A P Z A A ] $.A D P T ( P -.D v v K b K b K #.6.2.-.b b Z J L 1. .1.-.A &.`.W. XL :.J X.K '.C A Y Y.Y Y.F S 8.",
"8.Z X.b K ^ X.) ^ D Z ] O.P A Z v o.$.x u.K c b / $ q c.V.c.c.0 e n L I [ M 2.F 9.U +X0.W.A ;.X.P ( A b c @.S U.T.3.N *.",
"5.l Z Z v ( Z X.P Z ` o.b K ( ( T ` $.Z b b : V.Z.C.S.Z.C.Z.Z.A.C.Z.B.0 r.L <.h ] ` 3.] S A O.A ( Z ^ v J S &.C U.;.1.| ",
"-.` 5.D K v A ) ` ^ Z X.Z P K ) P Z -.K Q c.Z.S.Z.Z.Z.Z.Z.Z.Z.Z.Z.C.N.C.B.k...S G *.U O.^ A %.' Z Z C K [ 3.$.Y U.S 9.F ",
">.o.V P A ( K :.V J L ` K P P D ` Y %.: A.S.Z.Z.Z.Z.Z.Z.Z.Z.Z.Z.Z.C.C.C.N.M.B.8 Z %.Z S ) A [ C c P v D I *.M | 2.6.S 8.",
">.V J Z E K @.0.u.~ A ) ) ` Z J P ;.Q C.S.S.S.S.S.Z.Z.Z.S.Z.Z.Z.Z.C.C.N.N.N.M.M.c.r.Z X.P [.`.OXoXZ J Z 7.9.$.Y 6.G '.G ",
":.P z ' A ( K ` ( ^ P ^ K v Z P [ n V.Z.Z.Z.Z.Z.Z.Z.Z.Z.Z.C.C.C.N.N.N.M.M.M.M.M.b.x.m U ` @X[..X{.oXD ` T P 7.2.<.N <.].",
";.Z x P C K J ~ A D Z O.+X;.C D C 4 C.C.C.C.C.C.C.C.C.C.C.C.N.M.b.j.z.m.n.j.z.n.b.b.k.{ @.oX|.`.`.c v Z U -.C S R.R.`.].",
"@XP Z D ) A ~ 8.D P P ) ( ^ ^ ^ @.V.N.N.N.N.N.N.N.N.N.M.M.M.M.M.M.b.j.d.h.j.h.d.l.z.l.g.A A T z A A ~ P 1.>.V *.<.<.W. X",
"-.E ` ` D A A R.A X.:.^ A E A ' ; A.M.M.n.M.M.M.n.M.M.z.h.h.h.h.h.h.h.d.d.s.d.s.s.d.l.l.$ E ^ b %.v D M ` U U 1.*. .R.>.",
"` [ J D v v A R.D K Z K A x A X.4 c.f.9 9 7 7 7 9 9 a.a.f.s.d.d.d.d.s.s.s.s.s.s.s.p.p.h.d.Q ^ K _.~ ` -.=.R 1.] <.N U -.",
"O.K J ( ^ v P Y.[ b K K [.).b W AXFXFXFXFXFXFXFXFXFXFXFXFXAXvX<Xi.$ O 4 7 9 p.p.p.p.p.p.s.+ P P _.C O.K 5.Z Y I <.) ] H ",
"O.Z ^ A A ~ P Y.%.A K v P K +.}.FXFXFXFXDXDXDXAXAXAXAXAXAXZXAXZXmXZXFXFXFXFXDXe.O @ |.e 8 6 y.-X4.C O.7.$.S } &. .N <.P ",
"] X.A P ) A U ].M C b A A A A eXZXZXBXZXZXZXZXZXNXBXVXZXvXZXBXvXnXnXnXvXBXBXnXnXnXDX`.u.W DXDXFXFXFXU S D %.D | &.$.D ] ",
"` C A J Z P S Y.o.z b K K b c xXvXbXvXzXiXuXtXtXrXtXrXrXrXrXuXuXiXzXvXvXxXvXxXzXvXxXS 8.uXBXSXFXFXFXyX%.%.U D ) $.} H ` ",
"] ` Z A A D 4.Y.S R v b b b v yXrXrXrXrXrXtXtXeXqX<X<X<X,XeXeXrXuXyXtXrXrXyXuXzXzXzX^ D tXvXvXvXNXbXVXC J Z $.&.$.T D P ",
"{.+XD J c  .S 9.I S A b ^ K L =   3 i.<XNX> gXgXgX,XVXVXVXVXVXZX3 0Xq.iX:X; & X > i.K A wXrXzXzXvXxXwX%.Z ` P C $.P ] U ",
"+X>.( A Z u.T 2.S 3.A b |./ v J -XNXnXcXMX<XgXgXgXQ.hXzXjXjXcXcX< 9Xt.DXDXVX8X9XfXmXC K E wXrXrXrX<X3.U ] U M ) } I ] Z ",
"S J A A U I $.2. .S ( K A c c 1 P.3 , e.=XdXfXfXfXfXsXq.# 7XsXaX0X9X  FXDX/.& (.(.sXi.8.@XZ ( ! T.} E.V A ] V ' ] L Z ) ",
"` ~ ( b D V *.1.[  .] K +.X.' xXdXdX=XaX*XmX4X8XsXaX7XsXsXfX0XsX@ fX  DXDXMXt.5X5XsX$XZ l c } R.E.2.} D ' ) ^ D T P ' D ",
"( K K A [ G Y <.B  .A A ~ A @.dX% 2X8X& 4X2X4X8X0X< X =XsX1X1X4X& iX&XDXCXlXo 6X6X0X- J b O.R.T T.#.$.D ( D $.*.T ` T ` ",
"~ A ~ K ` >.[ 1.] 3.U A K K L % AXP.# iX/.aXsXsXt.AXFXFXFXiXe.; NXFXq.VXCXMX; 0XdXn y.b A A &.<.E. .<.I ) 3.:.0.W.u.E ~ ",
"( K A A Z $.Y &.D A D ^ A A ( q.FXFXDXFXFXZXSXFXFXFXFXFXFXDXFXFXDXlXo VXVXCXhX{ C c b b C I ] | T.Y R.G _  XW.+X{.U ) ^ ",
"K K b ( C ] D $.U ) %.U v ~ FXo zXCXDXSXcXkXkXlXnXZXVXVXCXNXcXlXcX#XSXCXMXVXkXo W @.z v P 0.M G T.S T.| D W.{.W.u.`.u.) ",
"~ K ).>.>.U S $.] T P ) C jXFXZX2 kXjXzXjX* 1 <XlXjXjXlXkXkXkX&Xm ZXVXVXVXVXkX%X  V u.A U S *.| 2.6.I 8.S ) 0.[.%.V ^ ^ ",
"~ K '.oXP [ l o.U ) D [ Q FXFXFXvXiX%X-XcXjXjXhXjXyX-X}.&XrXlXkXVXVXNXVXNXNXkXjX9 v.3 b >.3.3.N <.G =.M I A K J D D c J ",
"v ~ Z A K P ` T -.$.` ' FXFXFXFXFXFXFXAXFXFXFXDXCXcXcXcXMXVXVXVXVXNXNXMXNXxXjXxXz.D.S.c.h U ;.<.U.N G %.P K A u.^ S K J ",
"Z v ^ P ` ` Z %.&.{.0.= FXFXFXFXFXFXFXFXFXDXDXDXDXZXSXVXCXVXVXVXNXNXNXNXMXkXjXuXm.D.D.S.B.,. .V 1.N S R $.D u.+Xu.V D K ",
"c v P D P ^ ) ) :.`.@X&XFXFXFXFXFXFXDXAXDXDXDXSXSXZXCXVXVXVXVXNXNXMXNXcXkXkXjXp B.Z.S.S.S.V./ N <.M -.F A K A D Z ] P J ",
"D v A L Y ^ A P z Z ^ %XDXFXFXFXFXDXFXcXZXDXCXDXVXVXVXVXVXNXNXNXMXMXlXkXkXkXlX8 b.n.N.N.N.M.6 Y <.$.%.*.[ T v K K S X.c ",
">.l '.M Y D ^ ^ A D z - lXFXFXFXDXDXVXcXDXZXZXDXZXVXVXVXNXNXMXMXlXlXkXjXhXjX+ 5 j.b.b.M.n.j.v.H &.%.S V >.Z K K ( L T L ",
"T A ~ @.I J K ~ A K K b wXjXDXDXDXDXjXkXZXCXZXVXVXVXVXnXNXcXkXjXkXkXjXjXjX4 d.8 8 p.z.M.N.C.k.;.1.M &.*.$.U c K D T P P ",
"I A A Z L v A v n Z b c A jXkXVXDXDXjXkXVXZXVXVXVXcXjXkXkXkXkXlXkXkXkXi 8 p.p.9 8 f.m.B.Z.Z.Z.{ | &.S U O.=.` v Z L P ` ",
"U ^ Z o.I P b b K K ( ~ S A jXjXlXcXkXkXkXlXzXjXjXkXzXkXkXkXjXjXkX3 g.h.s.p.O :XAXFXAXZX>X+ f.q.R. .H D Z ` c D ^ S L ' ",
"A ' A V -.Z c XX[.Z K ^ #.C <Xi.lXlXkXkXkXkXkXjXkXkXjXjXlXuX> . + + + + + X FXAXFXFXAXFXFXFXZXW | ] P P ] } [ ^ X.L P %.",
";.A Z %.Y K A [.XXZ C c #.= >X$ $ eXjXjXlXjXhXjXwXy.X e w.J.J.H.J.H.J.d d . ZXBXZXZXZXSXZXmXZXnX| ) ] ] D A V ^ Z U S ) ",
"C $.z Z I :.c K v C ) ` E.i.&X. J.w.. @ . r k & ~.O J.H.J.H.H.H.H.H.H.d s X iXxXbXbXvXBXbXvXbXW ] ] Y Z D D ) D ^ Z @XD ",
"$.P S P T A K ~ v K K Z 1.3 * # f g @ ^.t k g !.~.$ f f f g g g f g g d s p >X:X,X,X7XyXrXrXrX( ] I P U ].{.V ] Z S S Z ",
"Z F Z A R >.J c K b C C L.<X<X#XO @ $ !.^.w !.~.G.s d s d d d d s s s a O f.m.m.k.p.+ > ,XrXi.c ` P V S OX[.H S A D Z P ",
"T M 8.M U v ` @XV P b @.y w.3Xt.O 8 q uXw ^.^.w BX;X0 9 9 7 7 7 7 8 9 0 q m.m.Z.D.D.D.A.8 W Z X.` ] ) C C ^ D Z ' L Z :.",
"S Z ) S U A S P c K b I W.e.,X3 mXFXFXFX+ j.g.iXFXFXq.i e e : e q.e.#X<XyXe k.S.D.D.D.D.8 ( T L U c D P A ( P ] ^ S D ) ",
"D -.L D $.X.V A A A A G , <X<X<X;X* 1 3X0 s.d.O xXBXAXDXFXFXDXAXbXBXvXxXBX+ M.A.Z.F.D.Z.4 P J O.) ^ c P K D ` S ' Z Z v ",
"[ S [ Y P P ^ X.C ^ Y <., P.:X:X<X,X>X7 j.7 4 5 + + O O O . O O + 8 f.k.V.4 j.l.d.j.l.a.W Z ) %.>.Z P ^ ^ P T P D Z S D ",
"5.U T $.Y [ -.T A n %.[.*. .* X @ o :.$ j.z.d.p.7 4 ; z ~ ' e 9 d.l.C.D.D.g.@ 4 8 8 + W :.%.8.`.8.oXXXz A ^ K K Z ` Z C ",
"Z %.J D I XXOX>.v C 4.N U.2.2.*.M U ` + p.p.p.9 5 + n ^ C c / 6 p.j.z.n.n.8 S Z S ' A ^ A D `..X`.) C C v ^ J K K Z ( v ",
"P P ) o.L A A Z ( L Y.N 3.U.H  .OX X .O q k.d.a.8 O q.E K A X 5 a.s.m.A.V.q C [ M A _ A _ {.|.`.[..Xu.J K :.P J Z P v K ",
") S P Z U Z ) Z D A B Y.T.} R.<.>.Y Q ,X,X3X,X<X<X>X,XW ^ A AXFXFX*XP.pXFXFX%XS A Z ` ' ,.^ V |.%.^ @.K K ` K A K ( P A ",
"D ' ' z ] ` 5.D D 5.3.Z Y.|  .3.&.$.x :X>X;X>X:X:X:X;Xn D ' BXvXVXbXBXvXnXbX= >.z X.A A ( b A XXz v ~ L D K K A v K A ^ ",
"~ D D T ( v v ^ P -.S &.6.*.} R.} A - &X&X;X;X;X;X%X&XC C v uXuXxXxXvXxXxXtX..S >.Z A P ~ K K ~ c K n _.Z P K ~ A K K A ",
"O.:.C Z L J D K S I $.M U.*.9.C 2 : u s O X # & . # C V A C &.; #X>X>X*Xq.$ e.u i 1 ( b J A ~ b v v v 6.Z v K K ~ K K K ",
"K K P X.P X.z ^ S _.2.Z 9.U.W e.K.d s a y t t e t t * ) v | H s s s f d d H.J.K.I.I.> ) ' D P oX^ K b E.S A A K K v K D ",
"A v A C ).P A A ) S F 3.2.2.# y a a y t t r t t t e ; H ^ $.- s d d d d d g H.H.H.H.L.[ Z Z '.[.Z A [ R.V K A O.{.v S V ",
"b P ~ ^ {.|.,.C O.1.C x <.3.e e e e e e e e e e e e i ' z ] > a a y y y y r y y y y y / A ( v A v b A Y.9.A v |.{.K S S ",
"^ K ^ c 8.[.%.Z 5.G G 7.2.*.< 1 , < > > > > > 3 : ; ; ^ z | j p p p p p p p i i p i p n ] S K K b K 7.2.U P C v K b U S ",
"A ~ A A P v K O.[ I 9.%. X{.| Y V A A b K C ^ z ) I P A S H 1.3.B *._ D ' A 8.Z v V K @.Z  .~ K ~ ^ U <.B S b K K K &.3.",
"P ~ ~ K J ~ K ] F =.R I *.<.S D ' D  .Z A D Z z P -.D ( S ] W.].Y Y  .C ( c ^ S D [ C ~ S S K A ~ T H 3.V | v K b A Y.S ",
"b K A Z A ~ Z Z =.H Z -.*.&.S %.L %.D v A ^ Z P Z F ' A -.o.Y -.S [ 5.z D ' J ` A A A ' 5.I K A J 5.-.1.S S J K K U *.Y "
};
