/* XPM */
static char *result[] = {
/* columns rows colors chars-per-pixel */
"60 60 247 2 ",
"   c #050706",
".  c #0C0301",
"X  c #130201",
"o  c #1A0100",
"O  c #1A0D08",
"+  c #0D100D",
"@  c #091516",
"#  c #171616",
"$  c #230202",
"%  c #2D0101",
"&  c #250A08",
"*  c #350404",
"=  c #2D1818",
"-  c #341616",
";  c #2D241D",
":  c #0F1B24",
">  c #192527",
",  c #163332",
"<  c #292C2C",
"1  c #392425",
"2  c #27312F",
"3  c #2A383A",
"4  c #383837",
"5  c #460304",
"6  c #540303",
"7  c #5B0606",
"8  c #411A18",
"9  c #680807",
"0  c #7B0303",
"q  c #750909",
"w  c #6E1115",
"e  c #4E2E05",
"r  c #701720",
"t  c #492927",
"y  c #572B2D",
"u  c #533131",
"i  c #5E3838",
"p  c #643434",
"a  c #6A3738",
"s  c #6C3A3A",
"d  c #713838",
"f  c #7C3E3E",
"g  c #4C473D",
"h  c #714835",
"j  c #133D45",
"k  c #1A3F45",
"l  c #163E4A",
"z  c #1B3E4C",
"x  c #1C3E52",
"c  c #2C3D45",
"v  c #493B41",
"b  c #633D40",
"n  c #7A3D41",
"m  c #0E4546",
"M  c #0C4B46",
"N  c #0D4549",
"B  c #0E4B49",
"V  c #134346",
"C  c #104943",
"Z  c #15444B",
"A  c #1B434D",
"S  c #144B4C",
"D  c #1A4A4E",
"F  c #0C544A",
"G  c #13524D",
"H  c #17544E",
"J  c #1C4351",
"K  c #154D51",
"L  c #1C4B52",
"P  c #1B4854",
"I  c #155752",
"U  c #1C5354",
"Y  c #1B5A56",
"T  c #1E545A",
"R  c #1C5C5A",
"E  c #22424D",
"W  c #28444B",
"Q  c #224B4D",
"!  c #304949",
"~  c #224452",
"^  c #224C54",
"/  c #2A4A55",
"(  c #234E58",
")  c #364E52",
"_  c #225356",
"`  c #295655",
"'  c #24545A",
"]  c #2A555C",
"[  c #235B5C",
"{  c #2A5A5D",
"}  c #355758",
"|  c #1D645C",
" . c #19685A",
".. c #19745F",
"X. c #22675B",
"o. c #24615E",
"O. c #31635E",
"+. c #2A5560",
"@. c #255C61",
"#. c #2B5C62",
"$. c #315D64",
"%. c #395F6A",
"&. c #1D7562",
"*. c #256362",
"=. c #2B6364",
"-. c #246A63",
";. c #296B65",
":. c #2B6669",
">. c #2D6C6A",
",. c #326366",
"<. c #33646B",
"1. c #376868",
"2. c #326C6C",
"3. c #267568",
"4. c #2C736B",
"5. c #2C7B6D",
"6. c #34726E",
"7. c #34746D",
"8. c #396C72",
"9. c #2B7B71",
"0. c #347472",
"q. c #397474",
"w. c #337D74",
"e. c #3B7A76",
"r. c #474849",
"t. c #544E4B",
"y. c #595957",
"u. c #784445",
"i. c #795150",
"p. c #6E674D",
"a. c #4D5B61",
"s. c #446467",
"d. c #457373",
"f. c #45777B",
"g. c #676768",
"h. c #6C7271",
"j. c #787B7C",
"k. c #830201",
"l. c #8B0201",
"z. c #890A0C",
"x. c #940202",
"c. c #9C0102",
"v. c #900A0A",
"b. c #920F10",
"n. c #A30102",
"m. c #AA0305",
"M. c #B40202",
"N. c #B80507",
"B. c #AB1013",
"V. c #852E30",
"C. c #C40202",
"Z. c #CD0202",
"A. c #C30B0A",
"S. c #D40102",
"D. c #DB0101",
"F. c #DA070C",
"G. c #DE0911",
"H. c #E30101",
"J. c #EC0101",
"K. c #EA0607",
"L. c #F20101",
"P. c #FB0201",
"I. c #F80906",
"U. c #874445",
"Y. c #8E4A4C",
"T. c #935355",
"R. c #A45C5D",
"E. c #8F6C64",
"W. c #A86669",
"Q. c #A07375",
"!. c #2C826D",
"~. c #2D8472",
"^. c #2D8974",
"/. c #368C75",
"(. c #368779",
"). c #4B867E",
"_. c #DEAD29",
"`. c #F7D10F",
"'. c #EDCB2D",
"]. c #F7D35F",
"[. c #537980",
"{. c #3A9282",
"}. c #4C8786",
"|. c #538588",
" X c #518B8B",
".X c #51958F",
"XX c #5A8C92",
"oX c #599392",
"OX c #589895",
"+X c #768788",
"@X c #619698",
"#X c #639C9C",
"$X c #5DA19D",
"%X c #64A19C",
"&X c #6A99A1",
"*X c #6BA9A7",
"=X c #73AAAA",
"-X c #76B0B0",
";X c #878888",
":X c #8E9293",
">X c #979798",
",X c #AE9795",
"<X c #B9AD99",
"1X c #999BA1",
"2X c #A8A7A7",
"3X c #B0ADAD",
"4X c #B3B3B4",
"5X c #B9B9B8",
"6X c #EDA998",
"7X c #F8B6A9",
"8X c #FCD888",
"9X c #C7C4B4",
"0X c #F6C9AD",
"qX c #ECDBB8",
"wX c #FBE3A8",
"eX c #FEEAB8",
"rX c #C4C8C6",
"tX c #CDCCCC",
"yX c #D1CDCE",
"uX c #CECDD0",
"iX c #CCD3D7",
"pX c #D5D4D3",
"aX c #D7D9DB",
"sX c #F5DACB",
"dX c #F9EBC7",
"fX c #FEF0CA",
"gX c #EDE8DC",
"hX c #FCF2D5",
"jX c #D9DEE2",
"kX c #DBE7E7",
"lX c #DCE5E5",
"zX c #DCE6E9",
"xX c #DAE6F0",
"cX c #E4E5E5",
"vX c #E5E8E8",
"bX c #E3EBEC",
"nX c #ECEBEB",
"mX c #F8F3EF",
"MX c #E6EDF0",
"NX c #E9EFF1",
"BX c #EDF3F4",
"VX c #F2F4F4",
"CX c #F8F6F6",
"ZX c #F4F6F9",
"AX c #F6FAFA",
"SX c #F8F8F8",
"DX c #FCFDFD",
/* pixels */
"J j A A J R {.m Z XX=X@X8.S U 3.C w.z x x A ;.K x z #.}.#.$.{ G V L U ' $.A #.A OX@.%X-X] x J !. .Z [.*Xl U ;.S !.w.S { ",
"A Z J z T V (.N J J P J A 0._ 5.| _ ( J A K I P x z #XOX6.=.U | #.L Z Z Z z $.` }.OX}.P A x A ^...S #X*XA S V [ 5.Z =.S ",
"J J J J L *.{.J >.E A ~ A ;.V 4.B V A 8.J +.I T / ( D 8.8.=.,.Y { L ' L ~ z >.K x l J J J z V w.^.] A z A U *.S 5.L S G ",
"z J z ~ ~ N (.f.D z J x P Z S 4.Y #.J A S A R l x z 3 * v.A.A.N.q & } ^ ~ +.f.J +.x [.J J A ^.^.X.9.z J [ { S w.3.V L $X",
"x z P N V L (.Z V A x z A K ,.-.S o.U A <.L T s.7 D.H.J.K.J.J.J.L.J.K.B.r.=.2.E S x x x J A Z ^. .=.V Z j :.R Z -.6.G V ",
"Z }. XA =.7.~.A 2.A z z ^ K { ;.;.{ #.J _ E 9 H.H.H.H.J.J.J.J.J.J.J.J.L.K.5 8.{ ~ J A z ~ A w.!.| ;.S A #.Z { :.3.S [ ;.",
"J 8.q.l A E 9.<.@.J J  X=.@.A o.[ ] A @.< F.S.H.H.H.J.J.J.J.J.J.J.J.J.L.L.H.0 ~ P z 8.XXA 0.N ~. .(.K A S _ S V ;.U 0.N ",
"Z x J L ,.L (.Z P $.J J _ A [ [ [ H +.O F.D.D.D.H.H.H.J.J.J.J.L.L.L.L.L.L.J.J.* J A z x J 5.Z ~.!.U >.{ ,.S >.N 3.Z S _ ",
"( z z 2.L S w.Z S S J J { ' Z @.L P O Z.S.S.S.D.D.H.H.H.H.J.J.J.J.J.J.J.J.J.H.J.! x x x A S ~.!.4.' V D N *.( [ | { { _ ",
"J J j D Z P 7.0.;.:.A P U A T ' A 3 C.C.Z.Z.C.Z.S.C.M.Z.D.D.H.D.H.H.H.H.H.H.D.J.z.z x J L S k ~.4.5.| S <.S -.V -.[ S [ ",
"' z +.' >.+.9.j ' ] J ' Z =X{ _ _ B.M.Z.M.c.N.m.n.m.Z.S.S.S.S.D.S.D.D.D.D.D.D.D.K.a.J A K R e.5.;.{ 9.| L A Z =.o.D U =.",
".XP z V K z 6._ Z Z <.P ^ 8.^ Q % M.M.c.x.c.x.n.n.m.n.n.n.n.n.M.Z.Z.S.Z.Z.Z.S.Z.S.o J z S 3.,.3.| 5.H 2.] K ( V | { [ #.",
"$XL <.Z L [ >.Z [ [ P A ~ z z ).m.m.l.l.x.x.x.x.c.x.c.x.c.n.x.z.q 6 5 * % & & $ % $ z P -.B I 4.4..XY D { A K U o.V S A ",
"D A Z Z A *.;.,.j A K P x ~ x X c.k.l.l.l.l.l.l.z.7 o = 3XDXDXDXDXDXDXDXDXDXDXDXDXAXj.Z M M 3.>.;.S o.4.G [ ' A [ A q.[ ",
"A D V =.z D 3.D =.U D E @ g.: w k.q % 9 9 $ ;XVXDXDXSXCXCXCXSXSXCXCXCXCXSXAXSXSXCXCX5XL >.` R 4.X.X.5.4.L Z U { [ { R OX",
"A D U [ A A ;.A E #.+XAXDXDXCXVX) XX} aXDXSXnXVXVXNXmXnXVXVXNXVXVXVXNXVXVXVXnXVXVXVXVX( K | S 4.;.[ C o.>.j A Z o.6. XOX",
"z A P J A <.-.' j / 5XDXDXDXCXVX! x + vXnXnXnXnXnXnXbXvXaXpXuXrXpXyXyXtXpXaXjXcXnXnXaXs.U }.H X.4.;.;.^ { A J =.U _ %Xf.",
"A ~ z _ A A >.L ' k nXnXnXnXnXnX>X/ @ vXcXlXcXaXpXtXuXtXyXyXrX4X,X[.Q.+X;X:X2XrXtXtXtX) e.*X(.;.Y { =.U M L P (.L A -XZ ",
"A @.A ' Z $.[ D =.L [.mXnXcXcXuX> Q , yXpXuX4   O g.dXp.ZXZXVXBXZXiXhXhXhXrXBXBXBXSXk D Z ;.U ;.| 4.C :.o.D U ^.H ~ A ~ ",
"z P +.K ( V @._ L L ` 5XtXtXyXh.E U ).aXhXeX  SXAX+ wXy.kXkXlXlXiX;XhXfXhXaXxXbXbXnX@ X.V [ [ *.o.=.=.L #.E S ^.[ J P ~ ",
"A #.J #.z z =.( A ^ -X=X+X3 _ J z ` < hX].8Xg.SXCXy.wXeXdXdX).$ <XfXfXdXsXdXhX; hX  mX) =._ { o.[ [ o.{ [ ( S /.4.~ ~ A ",
"~ z A [ #XA @.j A _ %X*X X[ J V z ;.9XeX].wX  BXSX  qXg dX0XfXeXfXdXdX0X6XsX0XfXqX. dX3 @.[ Z [ [ S Z V [ S *./.(.P J ~ ",
"P J P Z D L [ L #.1.oX=.=XA A z A ).> eXwXwXtXVXZXSX4 X 7X6X6XqXO g.eXeX0X7X7Xg 6X8 X ! Z ' T [ [ V  X X[ S 4.^.F A x x ",
"A P ( ( z K [ D Z A A D A P A z V Y /.<XwXh ;XVXZXy.DXVXX 4 vXDXDXDXh.p.,Xp.y.AXyXyXDX} K ^ A [ [ _ Z A / { (.!. .A A E ",
"A ~ z P ' $. X X_ ( P Z A A A ~ G G !.X.d.4 zXBXBXg.vXAXAXDXSXDXDXDXDXDXDXAXDXDXDXDXvXaX{ ' _ _ ^ Z _ / L D | ~.9._ A z ",
"K A P Z A A ' U ] P A ^ ^ ^ A z ;._ ^.I `   lXBXBXBX3 kXzXbXBXBXBXMXbXzXzXkXkXzXzXzXy.DX:X^ D ^ _ Q #.=._ ;.I 5.M ,.l ,.",
"Z / Z _ f.D ^ o.L K ^ J ~ ^ A A (.8.^.3.2X;XkXNXBXBXZXr.>XzXkXzXlXlXkXh.> lX< lXlX+ nXDXDX@ Z ^ D D oX*X$X6.;.5.M (.%.f.",
"U A _ #Xe.[ U G >.J A J J x x A V C & B.0 aXkXNXBXBXBXBXzXlXbXiXlXkXlXkXbXZXcXjXlXBXDXDXDXDX/ L L D 8.}.A V ;.5.o.;.#.f.",
"e.J #.f. X{ [ F 2.l ~ ~ x J J _ q.B.P.P.F.bXlXMXNXBXNXBXBXBXBXMXMXBXZXAXSXAXDXDXDXDXDXDXDXDX> J K S J J V G [ 3.>.M D %.",
">.J E A _ z U U U P z x x ( oXA B.P.P.P.S.lXzXzXbXMXNXBXBXBXBXBXBXAXZXZXSXAXSXDXDXDXDXDXDXDXy.@XP Z J Z T R U =.Y U ' A ",
"w.z ~ x ~ A @.S N U z J A ~ Z 7 I.L.L.H.S.1 zXzXzXMXMXNXMXBXBXZXBXVXBXZXZXZXSXAXAXDXDXDXDXDX2XJ L N ~ l #.S *.*.o.o.{ P ",
";.K x x z z S M S +.J l XX=Xs.D.D.H.D.S.C.6 cXlXzXkXbXMXBXMXBXBXBXBXBXZXZXZXZXvXAXSXDXDXDXDXa.J A Z A z _ U [ o.[ D Z A ",
"(.{ J J A T U I Z $.D =X=X,.g l.M.Z.Z.M.c.6 o cXzXzXzXzXMXMXMXBXBXBXBXBXVXZXZXbXBXSXAXCXAXkX, x [ S Z J A { { [ [ S *.~ ",
"S *.l J J A V Y :.@.D oX X=X1 H.D.D.C.k.9 k.C.& lXkXzXkXkXkXzXMXBXNXBXBXBXBXBXzXlXZXDXAXzXrXA x { G Z z L ( A U D [ _ P ",
"R (.l J z A _ S *._ L 2.oX(.z.J.H.F.A.c.9 k.k.m.6 jXlXzXkXlXzXzXkXzXzXBXBXBXVXzXkXZXzXzXcXs.m ,.[ @.z A _ L ^  X).D ] P ",
"| .X}.+.z Z U S j Z #.A ( V r = aXDXDXDXvX# 0 m.C.C.5 4XzXlXzXzXzXzXkXkXzXzXzXzXkXkXkXzX) q.8.K N N Z J L D L OX.Xo.D A ",
"w.N }.U A ' L K Z %.K A J : AXDXDXDXSXAXSXAXv 7 9 9 q B.b.+ :XzXzXlXzXzXzXbXzXzXkXzX,X;X  A j ^ V B _ A A A A A D ' L Z ",
"G G @.A A J { M V U <.z z   CXSXCXVXVXCXVXZX4Xd u.T.R.W.W.W.W.W.E.- + h.rXbXzXxXaX= V.).c E P Z Z G z A J P E x L U +.D ",
"6.B U J +.' L S Z T l Z J ) tXnXnXnXnXnXnXVXtXp p U.U.U.U.Y.U.U.U.d _.`.u.Y.a '.u.U.s 2X;XE { V V N _ P ~ x ~ z #.' }.8.",
"{ 5.e.V (  XZ V V V ] ] z ( rXtXtXtX9X4X4X5XiXi p f V.u.n f n n f d _.`.f f i `.a n v g.E.V }.<.' V l $.~ A z z <.[ #.#.",
"3.Y S Z ^ V D S j K A S J z + tX2Xo 6 z.B.B.v.- p d d d d d d d a a e `.& 8 e '.s s 1 5X5Xt =X*XS =.Z A A ~ x l V [ V S ",
"m S 7.D A A A o.j Z Z L A #.' @ b.I.P.P.P.S.F.b.$ o o X X X X o X X   _.`.`.'.. z.v.* 5X,Xw ) A <.A _ A A x J +.A 2.R ] ",
"4.S U S ] V ( S ] A Z J P [ ' A N.P.P.P.P.F.X . $ * 6 9 9 0 q q 9 1 DXnX$ 7 b DX1XDXDX4Xy ^ ' A D S $.A A J +.A P @.L =.",
";.2.M V D _ A ( Z f.|.L ' Z T A q P.P.H.P.S.5 AXDXDXDXDXDXDXDXDXDXDXDXaXm.N.w VXcXr.# 4X<X3 Q ] m D A T ( z z ( L >.L 2.",
"[ o.2.>.D Z Z ' ^  X[ Z ^ Z ' ' X n.M.x.M.N.7 9 * = t.>X3XyXpXyX4X>Xt.* 0 5 9 6 5X5X4X5XR., +.^ T T J Z Z A A ( Z @.K Z ",
"o.U D C ,.^ J P A ( A A ( ^ A P x O 7 q 9 7 $ P.P.P.S.m.k.9 # # # * 5 q m.M.N.5 X - & o > P { #.K 0.B Z +.J K J A 4.[ A ",
"=.o.;.[ Z D A P A A J L P Q D Z oX.X[ S #.] g.Z.P.H.M.c.l.< V 7.3.* 7 0 l.c.l.# =.#.Z L e.A L j Z N o.+.V f.A D A *.A _ ",
"_ o.M [ { Z / P z A J (._ Z f.OX*X}..X|.^ P %.n.N.M.n.0 5 3 U (.( 5 6 9 k.c.c.* ;.H =.@.4.L z P A G !.z x K P 2.' @.#.Z ",
"D =.U S D 8.K %.J P A {.S L { *X#X*X=.oXA ( rX& b.G.N.9 = AXQ ^.2X5Xu % w % t.4X, G R S 7.R A Z ' S !.P P A Z =.V [ A V ",
"V _ ^ D D V Z Z _ J Z /.Q A oXOX).e.6.[.D P SXVXDXDXDXSXVXSXW S 2 3X3X3X5X4X3X3X} C S ' ;.=.( ^ Z Y {.V J ] ' A ] =.Z #.",
"[ Y -X] J d.d.f.f./ K ^.S ~ { f.#X@X%XXXL A 1XgXvXvXnXnXnXaX>.7.@ <X3X2X2X2X2X>X} V L U (.=.A z Z /.&.U ' A Z _ L R Z J ",
"_ { [ Z U ( z $.~ ~ :.^.#.P &XZ f.[ D A Q %.# pXpXlXcXpXtX1X;.U 1.).>X>X>X>X:Xr.` [ R | >.:.Z A l I ~.;.A +._ l *Xo.A J ",
"S ` ] A ' A z J l A 3./.;.E z A Z z z Q.R.R.Y.f u - = t t.O.R I S t u t t u y p s s T., w.R L A o.I 3.m A A { j A <.A ( ",
"[ Z ( A [ T P J J A I ^.=.z x x z K u Y.T.T.U.f d d p d d } 5.5.V t y y t t y y a a u.i.6.[ L ~ Y 0.5.;.A P z K ^ @._ =X",
"}._ _ ^ L A ^ x x D 4.~.4.Z J J J L T.n n n d p p y y y y < G 1.1.1 1 8 t 1 t t u u u a d.S U V 0.F 3.M _ _ Q L z [ A V ",
"#XL ^ Z D ( ( x x 3.*.(.U _ x J Z |.Y.Y.Y.Y.Y.Y.Y.Y.Y.Y.U.y >.X.# a p p p p a p p i p a ! +.A D | X.-.3.=.A ( Z x @.' A ",
"D L A ^ S J ( J z B 9.(.Y A A x A X.d.W / / / x W s.s.[.E ^ | B U %XQ 1.=.Q W W / W / } 6.S D { -.| ;.U L A ^ Z +.@.A S ",
"^ Z { ~ 4.z x J A :.N 9.S 4.Z J A ~. .D ~ ( z x x ] x x =.U S =.Y (.4.3.o.=.D A A ^ |.A q.~ V [ G *X| >.G ^ J J [.@.l U ",
"J &X8.Z {.z x J L 7.U 3.G o.Z A ] &. .Y A z ~ E J ( ~ E L >.2.4.H -.C ` D L U A A A ` l e.l P *.Y =.4.=.*.m A L A { L A ",
"l J l E /.A x J U B I 3.G =.j J ;./.3.[ A A j _ A ( A A [ U U S X.;.C >.-.S =.A A _ L ( e.A Z S S =.;.[ U 1.L A J [ A ^ "
};
