/* XPM */
static char *result[] = {
/* columns rows colors chars-per-pixel */
"60 60 250 2 ",
"   c #0F0F0C",
".  c #1A0303",
"X  c #181818",
"o  c #280705",
"O  c #3A0505",
"+  c #330F12",
"@  c #2D1715",
"#  c #391C1B",
"$  c #372518",
"%  c #113C3E",
"&  c #252423",
"*  c #352626",
"=  c #313235",
"-  c #363838",
";  c #470706",
":  c #4A0202",
">  c #520504",
",  c #5B0202",
"<  c #4C120F",
"1  c #491919",
"2  c #531515",
"3  c #690607",
"4  c #760708",
"5  c #740F11",
"6  c #661213",
"7  c #761616",
"8  c #57211D",
"9  c #4D1D23",
"0  c #771B22",
"q  c #4A2223",
"w  c #472628",
"e  c #542523",
"r  c #542925",
"t  c #592628",
"y  c #542B2C",
"u  c #5C2C2B",
"i  c #5A2B32",
"p  c #463634",
"a  c #543939",
"s  c #662629",
"d  c #632D2D",
"f  c #6A2B2C",
"g  c #6C3533",
"h  c #683534",
"j  c #733938",
"k  c #0D413D",
"l  c #6C423D",
"z  c #0D3E43",
"x  c #143E46",
"c  c #1A3E45",
"v  c #163E4A",
"b  c #1B3E4C",
"n  c #1C3F51",
"m  c #283D47",
"M  c #353C47",
"N  c #713F41",
"B  c #0D4344",
"V  c #0C4B48",
"C  c #134346",
"Z  c #1B4145",
"A  c #144A45",
"S  c #15434B",
"D  c #1B434D",
"F  c #144B4C",
"G  c #1A4A4E",
"H  c #0D574D",
"J  c #13524D",
"K  c #18524F",
"L  c #1D4351",
"P  c #154C51",
"I  c #1D4B52",
"U  c #1A4A56",
"Y  c #0C5F50",
"T  c #165452",
"R  c #1C5354",
"E  c #145C53",
"W  c #1C5956",
"Q  c #1E5558",
"!  c #1D5B5A",
"~  c #274245",
"^  c #22444C",
"/  c #214A4D",
"(  c #364848",
")  c #214552",
"_  c #224B54",
"`  c #2C4952",
"'  c #244C59",
"]  c #215256",
"[  c #295253",
"{  c #265955",
"}  c #23545A",
"|  c #29545C",
" . c #245B5C",
".. c #2A5B5E",
"X. c #35565A",
"o. c #166956",
"O. c #186759",
"+. c #1E615C",
"@. c #23625E",
"#. c #28675F",
"$. c #2A685D",
"%. c #2A5560",
"&. c #255D60",
"*. c #2D5C63",
"=. c #315D66",
"-. c #1E6B63",
";. c #256362",
":. c #2B6364",
">. c #246A63",
",. c #2B6B66",
"<. c #2D6569",
"1. c #276C68",
"2. c #2C6C6A",
"3. c #316365",
"4. c #32656A",
"5. c #336B6B",
"6. c #37696C",
"7. c #267467",
"8. c #2C736C",
"9. c #247A6A",
"0. c #2C7A6C",
"q. c #33736D",
"w. c #34776E",
"e. c #3A6B72",
"r. c #2C7C71",
"t. c #357372",
"y. c #397473",
"u. c #337B73",
"i. c #3A7B75",
"p. c #3D7A79",
"a. c #484847",
"s. c #4F4B4A",
"d. c #585556",
"f. c #654747",
"g. c #794746",
"h. c #66524C",
"j. c #6E5454",
"k. c #576558",
"l. c #475A60",
"z. c #496B6D",
"x. c #44777B",
"c. c #567476",
"v. c #787676",
"b. c #890708",
"n. c #940203",
"m. c #990708",
"M. c #8B0F14",
"N. c #980E11",
"B. c #8A1315",
"V. c #971418",
"C. c #A40202",
"Z. c #AB0101",
"A. c #A60C0E",
"S. c #B30201",
"D. c #BC0101",
"F. c #B4090A",
"G. c #A80D11",
"H. c #B80F14",
"J. c #A91717",
"K. c #B81616",
"L. c #A12117",
"P. c #8C1E23",
"I. c #BE1E23",
"U. c #90322E",
"Y. c #B5292D",
"T. c #C50202",
"R. c #CB0304",
"E. c #C70908",
"W. c #D40303",
"Q. c #DC0202",
"!. c #D80A0A",
"~. c #D20D11",
"^. c #C71516",
"/. c #D51416",
"(. c #E30202",
"). c #EC0202",
"_. c #EB060A",
"`. c #E60A08",
"'. c #F30202",
"]. c #F90202",
"[. c #F40409",
"{. c #E80F11",
"}. c #C22A2D",
"|. c #824748",
" X c #8A4D55",
".X c #9B5757",
"XX c #8F7371",
"oX c #2A846D",
"OX c #2C8972",
"+X c #328374",
"@X c #378879",
"#X c #349279",
"$X c #43827F",
"%X c #487D81",
"&X c #517E86",
"*X c #707D82",
"=X c #3D9086",
"-X c #4A8485",
";X c #4B8986",
":X c #53898A",
">X c #50958F",
",X c #5B9594",
"<X c #5A9896",
"1X c #688689",
"2X c #798D92",
"3X c #629A9B",
"4X c #57A497",
"5X c #65A29D",
"6X c #6AA4A5",
"7X c #68A9A4",
"8X c #6CADAB",
"9X c #72AAAA",
"0X c #72B2B0",
"qX c #998B8B",
"wX c #949795",
"eX c #A88B8A",
"rX c #AB9A9A",
"tX c #B69C99",
"yX c #8EA6A9",
"uX c #AEADAB",
"iX c #B6B3B3",
"pX c #C7B6B5",
"aX c #D0BCBF",
"sX c #F8E39D",
"dX c #F5E7AE",
"fX c #B7C8CA",
"gX c #C9CBC8",
"hX c #D2CACB",
"jX c #CCD1D1",
"kX c #D7D9D9",
"lX c #E3DCDA",
"zX c #F5EFD1",
"xX c #D5E0E1",
"cX c #DCE7E6",
"vX c #DEF0F4",
"bX c #E6E7E7",
"nX c #EDECEB",
"mX c #F4EDEC",
"MX c #ECF1EE",
"NX c #EEFCEE",
"BX c #F1EFF5",
"VX c #EDF3F2",
"CX c #EDFBFB",
"ZX c #F3F4F4",
"AX c #F9F7F6",
"SX c #F5F9F6",
"DX c #F9FCF6",
"FX c #FCF6FB",
"GX c #F6FBFA",
"HX c #FBFCFC",
/* pixels */
"D L n ' P S ' L b ..v I I _ I 4.S oXR } n L n n L D } D U 5.*.D v *.S S z 0X8X>XO.8.] A #._ ;.T _ D u.J ^ I 6XI I 6XI D ",
") L L ^ >.T D *.x. .} D L D D +.u.oXB T L L ) ^ D } z I D 2.L U _ %.P R D <X7X;X$X7.7XR G T ,.t._ F #XW D ) D D U S L ) ",
") L L D r.+XD z 0X<X-XS L ' U B k r.&.C L D n L _ v b 4.L ,.D ' S F 6. .D F y.B @.#.{ ! .. .V D ^ P #XJ L D b ) L L G L ",
"b n b S u.E &.6Xi.:Xx.L U L I  .q.9.t.F L L b ) L U b S :.<.D L t.<.)  .:.G ..S @.;.T +.I P L D L W @X0.L L ) D D D D S ",
"D b D T O.V F G 5X>X,XI ) D ! :.:.u.T { P ^ 3X) L L b n F q.S Q S Z G | S  . . . .@...:.<.} Q  .L W #X7.B L ) L b *.S ) ",
"L ) b  .=X8.R S  .R x b D G :.2.V 9.W G *.n ) L } b %.n v :.G S D B ,.@. .:. .C  . .| V ..] :.G S i.#Xo.U v L L L 0X8XS ",
"yXU D @.oXY  .D L ' L ) ' b D A K 0.4.R D n &XU S n n =.S 3.V n S 3.@.} T }  .D  .! V F ,X;XQ &.&.>.oX0.F b D m U } I S ",
"v n R @.-.@X:.S ) _ S L v S R W u.8.A 7.:.F ) D *.a.- = s.l.L L D :XJ 3X_ C R &. . .|  .t.5.I G } r.oXO.Q L L L m D ) P ",
"L b S <.o.H H S D _ D ) D D 2.! :.9.2.% P L m 0 H.R.W.Z.C.m.m.7 m } -X! } ] D D  .} ..) D G _ D @.r.oXu.,.D D D L n ) F ",
"L L } T OX7.E } D / b L b ] T A W ,.2.<.I - H.Q.Q.!.W.!.S.S.C.C.m.w @.:.R  .| S P  .S S U D S } >.0.oXO.@.S b D ) n ^ S ",
"L S ! <.9.J ! F D ' L n L G  .2.F 1.F x p ~.(.(.Q.(.(.Q.R.Z.Z.C.n.C.f.G *.F _ Q } } G / } _ D x @.+.u.r. .D L S b L b F ",
"D D 4.q.0.Y u.;.L L L n D D ' 9XR -.S l./.Q.Q.(.(.(.(.(.(.S.Z.Z.C.C.n.- _  .D S G ] _ G :XB i.R u.V 0.J J P L %.L L S t.",
"D b p.W 9.0.2.t.D L L L } 6.S  ._ +.D K.(.(.(.).).(.(.).Q.T.S.Z.Z.C.n.M.*X/ _ S I _ S G 5X8X>Xt.>.w.0.#.u.t.} z.D n I >.",
"L I @.A OX-.A i.v L ) 3X:X6XI &.3.yX4 `.(.).).).).).).(.(.Q.S.S.Z.C.C.C.5 CX^ G / _ R I -X;X%XQ :.7.7.q.+.;XP =.=.L  .J ",
") P ;.q.9.8.C W %.L L &X:Xt.P I 2XXX!.).).).).).).).).(.).(.S.S.Z.Z.C.C.n.s.MXD S I x.x D x S ] J W 8.E 2.,.4.z.b L Q r.",
"D *.y.:.9.O.:.,.} L U L P S } [ SXN.(.).).).).).).).).).).(.D.S.Z.Z.Z.C.C.5 GXcXS R p.S b D v 4.J @.7.@.,.<._ ^ L b S A ",
"G P @.T u.W ..u.U v D D ..L | fXXX!.'.).).).).'.'.).).).).).D.S.Z.Z.Z.C.C.m.qXZX1XI u.D L L D  .,.! ;.E ,.} D b b P ;. .",
"D  .V u.4X+XJ T :.D L ) D I ] VXb.).'.).).).).'.'.'.'.'.'.).T.S.S.Z.Z.C.n.N.bXHX~ F x.D n x.L P :.:.;.,.T  .} ' L *.F ,.",
"S B :.q.0X4Xu.! F S b ' P =.Z pX~.).).).).'.).).).'.'.'.'.).D.D.S.S.Z.Z.Z.; ZXDXd.zX9X` D x _  .W A ;.! :. .S D | :.@.q.",
"3X3.5.A q.oXT R &._ D S R -X` > '.).).).).W.R.~.R.R.).'.'.).D.S.S.Z.Z.Z.B.gXHXHXd.sXzX( b D ] Q R ..! R A _ ..S x.6X;Xq.",
"@X@.S #.9. .D *.Q D D ,X-X=X/ K.).).(.R.T.G.n.!.).'.].'.].Q.D.D.D.Z.Z.5 wXHXHXSX  sXzXfXS D S ] 5.Q ! R G ! R L G <.#.,.",
"5XK ,.S 8.E t.S ;.<.D ' [ ;Xm )._.R.D.M.O /.'.'.'.'.'.'.).T.D.S.F.G.; nXFXHXHXAX$ sXzX*XS G ' | D S } R W  ._ ) ) S :.F ",
"7X .J 0.9.>.Z T q.R D n ' @Xq _.R.M.h.DXAXtX: N./._.'.).T.F.J.5 1 lXSXHXHXHXVXiXdXdXNX[ D ^ U P P _ ] W ] F I U U &.W C ",
"J Q #.C ,.! ! 5.]  .I b c.cXP.H.O AXHXHXHXHXVXZXAXkXpXpXgXnXZXBXHXHXHXHXHXZXZX= ~ / @XD D D L _ ] S ,X<X:.R I I D A Q &.",
"Z 3.+. .8.8.J @.F q.Z 2XkXnXiXuXX ZXHXHXHXHXHXHXHXHXHXHXHXHXHXHXHXHXHXHXZXZX  GX=.T y.] *.L L L D _ 5X7XT <.S S <.R _ } ",
"P D F ,.2.} P  .<.G I jXkXGXSXSXBX= ZXNXHXHXHXHXHXHXHXHXHXHXHXHXHXHXZXSXZX  VXGX1XS i. . .L ) ^ I D I S P I ..I  .*.:. .",
"} F G A ,.! ;.5.F D &.kXkXZXGXGXbXmX& iXGXZXZXHXHXHXHXHXHXHXHXZXVXCXGXs.wXSXGXSX2XM <.:.D U D L D ^ b D G F | ) I x G S ",
"S R ,.G 8.,. .S I _ V *XjXbXGXZX& ZXHXFX- a.lXGXZXZXZXZXZXZXZXAXuXX rXGXZXAXwXHXO T.Y.= D b D n ) n ) _ | P A L Q &.Z | ",
",.I F @.#. .G A R I } D z.cXbXp XXjXSXGXAXGXSXuXa.@   X X = v.kXAXGXFXGXGXAXO mXJ.W.W.I.Z ) D n n L n U S F 3X2.}  .] G ",
"F ,.F  .>.,.v <.R S <.<.Y.J.H.^.1 < ZXZXFXGXGXFXGXGXGXSXHXHXAXAXFXGXGXGXGXHXV.O E.W.W.Q.i ..D ) n D D %.S F &.*.Z D I G ",
"} W :.F 1. .:.G } :.P m ^.(.(.W.E.6 ZXSXGXGXHXHXGXGXHXSXHXHXHXHXGXHXZXFXAXh m.R.W.W.W.Q.I.D ) n n m L b <.R G B  .| P } ",
"V C U ,.;.@. .S :.I  .s.!.Q.Q.D.3 {.: SXGXGXGXGXGXHXHXHXSXHXSXGXAXZXGXFXkX^.F.m.n.D.Q.W.R.M b n L L L Q x T  . .Q D I ..",
"L C Z D ;.! Z ;.R I y.U.!.Q.T.n., '._.> nXZXlX6 MXSXSXGXDXHXSXpX6 MXDXpXA.'.)., b.m.W.W.W.i U L n n ' L 4.J <. . .D I D ",
") G  .I *.;.! U I S _ Y.).Q.D.n.b.].'.'./., rXK.K.qXGXFXGXHX1 /.3 f.3 `.].].'.{.3 n.R.Q.(.Y.b ) b b D } S Q D  .R ] } _ ",
"} G F } ;. .S v C F Z ^.Q.(.D.b.N.].'.].].'.[._.'.{.f.FXSX> ].].).'.'.].].].'.[.: b.D.Q.Q.I.L D b D L ..Q R Q :.{ S D ] ",
"] R ] S  .Q D I } D { K.!.).S.5 + 4 {.'.].].'.].].'.{.j., [.].].].].].'._.`.V.2 . b.D.W.^.; [ D b L } Q D Q R |  .) _ P ",
"} .. .F  .Q ] } _ S yXGXrXe : o * q r 1 : N./.{.`.).].{.].'.'.`.{.^.A., t f.d u = a h.pXGXFX^ L b S %.S G W G S  .I D G ",
") D D W W } ] I S ;.yXHXGXHXGXHX# 1 q q s d j g.|.j 8 8 8 d j |. XN j g d d u r v.HXHXHXFXHXz.L D =.' b } W ..D <.P I F ",
"} D G x.@.R S ' } q.cXFXGXGXGXHX@ q q t r t d f h h h g j g g g h h d d i t r w v.SXGXHXHXGXvX) D ) _ ..x ;.x.D U ) -X<.",
"x.%X3.8X$XQ ] _ S A ..lXBXZXZXCX7 : 1 q 9 e t r u d d d d d f g f d u r r e : J.w ZXVXZXbXh.^ U 9XS ..U I W D } I _ Z 6.",
"$Xy.9X5X7X-X..I S ] ( E.J.4 3 . 5 ^.{.^.3 : 1 e e r r e r y r y r 2 : 4 K.!.K.3 qX< B.A.^.W.u S S G } P S :.D D I Z D  .",
"K x.;X>X<X-X*._ L _ U.(.!.W.R.; SXHXeX1 B././.{./.^.K.G.J.K.^./././.^.5 r pXHXGXHX5 R.T.E.W.}.) D L Q S D R b S ] D ,X;X",
"x.w.9X7X<X5X3.D D ] K.n.3 4 3 o GXGXGXGXHXHXmXrXf.q 2 < > 2 u XXhXDXSXDXHXGXFXGXDX; 4 M.B.G.T.`  .S S *.D R [ I S } =.L ",
">X<X:.>X2.;XI P L I J.E.b.S.b.3 bXGXHXGXHXGXHXHXDXHXHXHXHXHXGXHXDXDXHXHXHXHXGXnXVXN.N.T.G.R.E.` G _ S S 3. .| *.D S ) n ",
"} 3.9Xq.:.,Xz.U F / y !.R.F.4 A.O j.xXcXcXVXGXGXHXGXGXHXDXHXHXHXHXHXGXMXbXcXc.+ 7 A.m.A.W.F.a C I G } :Xx T 4.L D ' D b ",
"_ G y...D I L D *.S Q M i q s 0 0 w F ;.& 1 XXpXlXMXbXZXMXMXVXbXhXrXa : b.d -.m B.L.0 w d.i.^ x S ] x 8XZ <.D L ' D _ b ",
"S D 6.c S ^ L } } ..x.D Z =.D ' | L D P l W.D.F.N.6 L.J.J.J.J.P.3 S.D.R.R.d. .C / A ,.9.E w.v ' U L S ) R R b L S L L b ",
"L m b D 3.b L D b v S  .R *.b %.x / } +Xk.T.S.S.S.C.8 ,.] ' ` M.F.D.D.D.E.A Q _ D A 7.$.oXW D D I _ G S S _ S e.S I ..D ",
"n L L S @XL L n n n D b L  .z c D D  .>.q.S.S.S.Z.M.~ W :.S S q Z.S.T.D.P.T ,.) S S 8.0.7.5.F | G b S 3.G &.] 3XS R S S ",
"L L L F @XL S n U v ) ) ^ <.,XS I ] Q :.a.E.~.S.b.6 { i.D [ G q 3 Z.Z.E.y ! G G C 5.! +.q.J T Z I | I b D Q D b =.v S L ",
"n L L :.#Xb S L %.n L ) D 5.8X,XZ S } y.ZXHXaXtXmXnX{ J p.U c.bXtX2 2 eXSXG S R Z ,.H 7.7.$.0.Z ^ _ G b b R } I L D _ } ",
") L n +.@XI L L L L D ) v 9X4X-XS I ;.A CXZXNXSXjXgXq.u.T L ~ kXlXbXVXVXCX= ^ Q C  .w.>.7.,.u.D D ) ..| S R D D G D  .G ",
"n D D A #XW L D L _ ) L L } R _ S C C d.rXkXxXkXgXgX<.F z m | iXgXkXbXxXlX.XXXD  .J ;.o.>.F F [ v ' S L *.Q b ) U ' V F ",
"S D S +XOXF =._ L v ' L D | D ) D %.W l g.g.y # w w 3.@.P S b * . @ * o l j |.Z R  .<X7XJ 7.;.R U U L e.} ] x R *.v S V ",
"n L S u.#X<._ S D D ) _ ) } L ) D @.! @ h j j u q 1 Z G D <.Z q r u h g j l y ( F F ,.t.8.J 8.Q v %.S L S R =.S D ) V F ",
"L v  .7.#X=XB D L b n D D ] ) D S S 8.j.j o # w $ o X.G <.S c w q y y y # q .Xm :.,.@.;.1.A F :.D D | L L } Z S D S 1.;.",
"v b %X-.#XF Z D D b D ] D _ D D P  .P A ( h.j j j a X.7.#.<.M j l g.|.|.g.- U _ P 4.B ,.+.@.F 5.S G D *.P P b I D ) G F ",
"D v W O.OX0.+XD L %.>X! I L L D ..;.2.2.:.W >.,.K ,.K A A S ) ^ ` m Z | v A _ 5.:.B } @. ...F R D G ^ _ *. .D L _ G C T ",
"D v J 7.OXO.,.^ D 9X;X3XL L L D I I P R 5.k >.>.8.B G @.<.:.:.;X%XI Z S S S D y.C #. .] #.K } <.I I D S D U S | b G 0.P ",
"_  .#.H OXV +XD U S z.| L L D S F :.;.S 5.) ! >.+.#. .D b F | <X6.S _ D S V 3.5.7X:. .}  .R A Q *._ U } z =...S D %. .V "
};
