/* XPM */
static char *result[] = {
/* columns rows colors chars-per-pixel */
"60 60 239 2 ",
"   c #2A0405",
".  c #3C1214",
"X  c #37251B",
"o  c #1D3B3B",
"O  c #362F2D",
"+  c #2B3839",
"@  c #35363C",
"#  c #490606",
"$  c #570605",
"%  c #56100F",
"&  c #4C1917",
"*  c #541B18",
"=  c #680706",
"-  c #770607",
";  c #60110F",
":  c #6D1312",
">  c #6C1916",
",  c #751515",
"<  c #4C231C",
"1  c #50201D",
"2  c #6A211F",
"3  c #561E24",
"4  c #711E23",
"5  c #452729",
"6  c #562825",
"7  c #552F2E",
"8  c #5B2B2A",
"9  c #473536",
"0  c #642625",
"q  c #652E28",
"w  c #732D2C",
"e  c #66312C",
"r  c #663535",
"t  c #6B3432",
"y  c #743A36",
"u  c #2F433E",
"i  c #59443D",
"p  c #6E413E",
"a  c #7A433C",
"s  c #0D3E42",
"d  c #0F3F49",
"f  c #133D45",
"g  c #183B44",
"h  c #153E49",
"j  c #1B3E4C",
"k  c #1C3F51",
"l  c #233D44",
"z  c #223D4B",
"x  c #2D3D4A",
"c  c #463D42",
"v  c #0C4444",
"b  c #094B44",
"n  c #0E454A",
"m  c #0E4A4B",
"M  c #134246",
"N  c #184845",
"B  c #15434A",
"V  c #1B434D",
"C  c #144A4C",
"Z  c #1A4A4E",
"A  c #0B5549",
"S  c #13524D",
"D  c #19504D",
"F  c #194752",
"G  c #1C4451",
"H  c #164C51",
"J  c #1D4B52",
"K  c #155452",
"L  c #1C5354",
"P  c #155B53",
"I  c #1C5956",
"U  c #1E5459",
"Y  c #1D5B5A",
"T  c #22444C",
"R  c #26484B",
"E  c #364647",
"W  c #214452",
"Q  c #224C54",
"!  c #294B57",
"~  c #234D59",
"^  c #225256",
"/  c #275655",
"(  c #24545A",
")  c #2A555C",
"_  c #235B5C",
"`  c #295B5E",
"'  c #365457",
"]  c #176558",
"[  c #1C625B",
"{  c #23625E",
"}  c #24665F",
"|  c #2B5662",
" . c #265E61",
".. c #2B5C62",
"X. c #315C66",
"o. c #335F68",
"O. c #1F6961",
"+. c #256462",
"@. c #2B6364",
"#. c #256C65",
"$. c #2B6A65",
"%. c #2E6569",
"&. c #2D6B6A",
"*. c #316266",
"=. c #33636A",
"-. c #326C6C",
";. c #386A6B",
":. c #267668",
">. c #2C736B",
",. c #2C7A6D",
"<. c #31736D",
"1. c #307D6F",
"2. c #366E71",
"3. c #3C6A71",
"4. c #2D7A71",
"5. c #347472",
"6. c #397373",
"7. c #337B73",
"8. c #3B7C77",
"9. c #387979",
"0. c #3C7C7A",
"q. c #4B4B4B",
"w. c #545655",
"e. c #714E49",
"r. c #75615B",
"t. c #4B6668",
"y. c #556A6B",
"u. c #4C746F",
"i. c #44757A",
"p. c #437B7C",
"a. c #647677",
"s. c #787877",
"d. c #890707",
"f. c #960908",
"g. c #92130F",
"h. c #891415",
"j. c #971415",
"k. c #981E1F",
"l. c #A60706",
"z. c #A40D0D",
"x. c #B40302",
"c. c #BB0302",
"v. c #B9080A",
"b. c #A1120E",
"n. c #A90C11",
"m. c #B50B11",
"M. c #A61616",
"N. c #B51514",
"B. c #BB1512",
"V. c #A61823",
"C. c #8D312D",
"Z. c #A82C2F",
"A. c #C60302",
"S. c #CB0403",
"D. c #C70809",
"F. c #D30304",
"G. c #DC0202",
"H. c #DA080A",
"J. c #C40E14",
"K. c #DE0F14",
"L. c #C51715",
"P. c #CC1414",
"I. c #D61615",
"U. c #E40302",
"Y. c #EB0203",
"T. c #E60809",
"R. c #F30202",
"E. c #F70306",
"W. c #ED0E10",
"Q. c #844136",
"!. c #824B44",
"~. c #875556",
"^. c #905550",
"/. c #996C6B",
"(. c #897473",
"). c #2B8372",
"_. c #2E8A75",
"`. c #368778",
"'. c #2C9077",
"]. c #38917B",
"[. c #44837C",
"{. c #548377",
"}. c #4D7C82",
"|. c #557D87",
" X c #399581",
".X c #468582",
"XX c #4D8688",
"oX c #54888B",
"OX c #53928E",
"+X c #5B8D92",
"@X c #5B9595",
"#X c #599A96",
"$X c #6B8D8E",
"%X c #6F9F97",
"&X c #629C9C",
"*X c #57A398",
"=X c #66A19D",
"-X c #6B9EA2",
";X c #68A7A6",
":X c #73AEAE",
">X c #6AB1A8",
",X c #74B1B1",
"<X c #77B2B2",
"1X c #909393",
"2X c #B6948B",
"3X c #B39490",
"4X c #849AA1",
"5X c #90B1B3",
"6X c #B5B1B1",
"7X c #C39E9B",
"8X c #CCA99B",
"9X c #CDB8B4",
"0X c #AAC4BF",
"qX c #F2DCB7",
"wX c #F6EDBE",
"eX c #A2C5C0",
"rX c #B6C4C6",
"tX c #C6C9C8",
"yX c #CED2D2",
"uX c #DAD6D6",
"iX c #E5D5D2",
"pX c #F7EECC",
"aX c #D9DCE2",
"sX c #D8E8ED",
"dX c #EAEBEA",
"fX c #F7ECED",
"gX c #F1F0EF",
"hX c #F3F2EF",
"jX c #F9F3EE",
"kX c #EDEFF0",
"lX c #EBF4F6",
"zX c #F4F4F3",
"xX c #FAF5F5",
"cX c #F5FAF6",
"vX c #FAF9F5",
"bX c #F5F5FA",
"nX c #FBF6F9",
"mX c #F6FBFA",
"MX c #FBFBFB",
/* pixels */
"&.F ~ ! B ( G J B V V I <.#.I m V W j k j B ) B B j _ C F W B | _ ( V _ ,X>X#X#.} v @.N +.O. .Q F  XI ^ T ..B G J ..V W ",
"4.Z B ` @X@XB V F G V J S :.K 8._ T W j j B V ) =.F C C G V ( B m Y B OX=X$.m #.S $.K Z &.I J ~ L :.&.J W V V W V V G G ",
" XY U ;.+.,X-XH G W G +.I #.P _ X.W k h V ~ J j B H n J G B _ J =.L Q V _ ` I +._ { { ..Z ) B V C _.#.J T F W W F V V V ",
",.[.( +X5.#X-.J V G n 5.I #.Y C 2.k k +XF G ) j G F { H Q _ J g V L ) C @.N K { _ ` I C G ` Z W I _.:.L G G V V G h B M ",
"_.` j }.-.5.Q j W V ( @.N ).} &.;.G j k j J B | k J v S H J B ^ ..L Z  ._ Z _ _ I Z S oXV +._ G &.'.[.C G V G W V ,X-XV ",
"].b B B M ( V B G ~ %.&.{ $.K ` ` B j g J k V j W V M ` Q F B +.C I _ I _ C L  .( C I ^ B ( C J [ '.] I G G V G ~ :X&XB ",
"].`.C V h ( ! G j G M ^ -.} } C K _ G 3.F V ! z V ( B L T R j oX=X^ v ^ _ ( H _ L I C :X$._ _ _ [ ].).0.G k k z G F V B ",
"_.Y v W G ~ G B j B ;.} S :.S -.H l q.~.e.y y x B V ( q.e.e.e.e.a.D  .Q V L U _ ( ( (  .J C N _ ] ).A I j G k G G W G ;.",
"`.`.+.h G ~ V G W V D -.D 4.$.M q.r 1 8 6 3 1 y.G B H O & 6 6 e & w.I L Q V ( _ ^ Z Z V V Q Q _ ]._.] `.Z j T h G G G @.",
"'.[ C j G ! k k j .._ { C $.$.L O Q.Q.y 8 6 6 u.%.H f + < 7 y a a O H L ( ^ L _ Z V W Z Q F L +.P ).,.>.Q l W G G k G J ",
").@.`.J j J G k W V C I @.[ L J q.^.i kXdXtXuXR G k H t.tXyXuXuX7 u | L J ^ ^ ^ W Q J L i.^ C &.[.1.,.-._ V V j G G C C ",
"].P K H G G k j Q Z V ;.M { S ( R w.kXkXgXdXuX$Xn G M rXuXdXdXzX6XQ B ( J ^ W ^ ^ f ^ [.:X.Xm [ A ).S I -.V 3.V W V @.-.",
").:.N +.B G d h ;X3.H ` J _ C $./ B yXy = * 3XrX! g L dXr.# ; ~.5X( ` J J Z V Q V ^ ;.#X;Xp. .$.} 1.b #.<.M Z i.G V _ { ",
").} B +.G j h -X;X8._ _ ( I _ I ) ) E D.v.l.= R X.j N R - l.c.m.o ` v &X( Q J J Z Z oX<.&Xs ..K $.:.[ { .X/ f Q W G 9.b ",
"1.v <.C F G G ) ;.@.H ` M +._ C J f r A.c.v.x.5 z W *.6 x.x.c.D.E V B Q Q V V V C J V j j V _ { L >.P <.I Z i.~ k G 2.7.",
"`.<.m #.F k W F J V V ( Z _ C @._ _ M.A.v.v.d.Z.M.j.h., , g.z.N.@ G z V G V V =.m B G V k h $.K $.$.P I %.` j g j V ^ f ",
",.Z Y I 3.j j V | J J f ^ _ @.OXP +XM.; r 6XiXzXzXgXzXhXzXzXhXhXrXy.z ! T V H Q  .H V J 3.F @.$.I $.Y +.H | j G B V $._ ",
">X<.<.[.M V G W G V ^ ( Z ..#X=X%X0XkXbXMXMXMXmXMXMXMXMXMXvXvXMXmXMXMXlXbXy.G G n h G k h X.H L =.#.[ I +._ B W W 9._ <.",
"*X,.K _ -.B h | H _ L Q J ( R lXMXMXnXMXnXMXvXjXiX8X3X7X7X9XiXzXvXcXvXbXMXsXG W L Z j k k ~ ( I L +.{ _ L s J V 6.<X[ p.",
":.#.v 2.B h j f H `.B ! R R y.cXvXxXxX2X> j.L.I.I.L.N.N.L.L.P.I.I.M.: 2XfXbXz G N ! J G B L I L ^ Y D J | H Q V Z #XOXS ",
",.B ( C  .Q G :XXX7.@ 0 , c.(.fX~.f.I.L.- # * 6 6 q 7 8 8 6 6 6 & # = M.P.1 j x z.l.h.O E G ^ =._ { I L -.L G V ) $.&.$.",
":.+.C ^ Y B G G k u.D.S.n.n.$ J.B.$ < 6 8 q e e e t t t t t e q 0 8 6 & X + V 8 f.x.- v.B.9 L B g L J ^ 5._ V W ( B ^ Z ",
",.M C 5.S +.V B j r.F.f.l.- -   < 6 q q e t y y a a Q.~.!.a t r e q 0 3 * q.J 0 m.d.- S.m.N.W Q J  ._ ^ ;.) ~ G ( _ _ m ",
":.Y 5.C M v V V W u.v.D.F.D.z.  0 q e p ^.; = b.L.I.K.T.H.H.I.J.f.$ w e.6 c i.O m.D.D.- l.M.W ~ V XX>X+.0._ J J B Z Z } ",
">.L K C K %.V Z 6.`.t H.h.~.fXX r w = J.Y.Y.R.R.R.R.E.R.E.R.R.Y.Y.Y.Y.U.B.. Q kXjXe n.A.c.9 W V Z .XOXY .XQ V Z @.L Z _ ",
"$.f 6.C -.f ) W M `.B (.mXMXvX1XM.Y.R.R.Y.R.R.R.R.R.E.W.E.E.R.R.Y.R.Y.G.S.: yXvXMXnXhX: 6 W T W V ( V oX9.Z V ^ _ ` ` +.",
">.S &._ V V Z V G 9.2.lXmXxXjXuXI.Y.R.R.E.R.R.R.R.E.E.E.E.E.Y.R.Y.Y.Y.Y.c.  /.hXmXMXxXdXV V k V V V V @.8.J W Q J B W B ",
"#._ C J N =.M V =.9.F t.bX6Xh.d.- E.Y.R.R.R.R.R.R.R.K.B.E.R.E.Y.Y.Y.Y.Y.f.h.F.B.t xXbX5Xk G W W W j G V 6.^ _ Z Z ( M ( ",
"#.M / %.*.B ` V V 7.B G 5 D.G.v.= H.R.R.R.R.Y.E.R.P.7XjXj.Y.R.R.Y.Y.Y.H.d.F.G.F.F., lXj ) j k k k k F j ;.p.&XC ^ ` J Z ",
"+.^ Q _ Q C Y 2.B ).X.F x P.U.S.l.- Y.R.R.B.: T.L.iXmXcXvX: R.- : P.Y.f.F.G.G.G.c.g.g B o.W W k k G F B 9.( _ ( B V ^ J ",
"#.L @.M C $.C n C 7.j B G 8 U.U.F.l.v.L.2XnX1X, xXnXMXvXMXbX7X0 MXMX~.P.F.G.G.A.g.R ^ ( Q k W k G k s ! 5.V L L _ ) H ( ",
"+._ ( n  .Z _  .V 9.B X.( V C.U.G.H.J.9XnXxXxXxXmXvXMXmXcXcXcXMXMXmXMX~.G.U.A.f.@ C G J G j k G k ~ | B 7.m I N J Z Q _ ",
"} N L +.C L <...F 0.C M G ) ! Z.T.H.; bXnXmXnXnXMXmXmXmXmXmXmXmXmXMXvXmXM.d.l.5 ..Q B J ! V W k G G J ~ 0.L I J ( B Q V ",
"+._  .U V V H H &.7.V f U +XXXj r - iXxXnXcXmXmXmXmXnXmXvXMXmXmXmXnXmXMX2X0 5 R m L B ) V V k z V V X.G 5.F Z ( J ^ J ( ",
"_ U k k V v C ( M 6.G C v ) V V a.s.bXvXMXmXmXvXmXmXvXmXMXMXmXmXMXnXmXmXMX6Xt.C U U j Q ) V G j V ~ =.H 9.C ( ( ` Z J ^ ",
" .B ^ | Q Z S Y / 5.Z 6.B G T k lXMXMXMXMXmXnXmXnXcXnXmXMXnXmXvXvXmXnXmXMXMX1X' 4Xt.W V Q F V j G ..V Z 5.) +.I V B Q J ",
" .n L B W L $.Z j `.V V G J R ' {.MXMXMXMXMXMX1Xw.tXbXvXMXMXmXtXq.s.MXMXmXMX6XmXMXkXuX' M G h G V %.V Q 7.N  .F L Q V J ",
"I ( J ~ B *.m &.` >.V M H ' pXqX> gXMXnXMXq.vXzXMXMXMXMXMXMXMXMXMXmXMXs.dX6XbXMXMXdXyXT B J V j X.^ V h 5.C J F +.J J M ",
"_ B B ~ _ -.I ` Q 1.` oX>.q.pX8Xb.3XhX1XcXbXMXMXMXMXMXMXMXMXMXMXMXMXMXMXzXq.mXMXMXdXtXR ( G J G J ) | B 9.| V ~ V J :Xi.",
"=._ ( J Z K J W j 6.N XX,X{.wXpXN.v.$ fXMXMXMXvXMXMXnXxXbXvXMXMXMXMXMXMXMXkXw.% 9 yXeX^ F ~ 2.:XV ` Q B 5.n ! B B J ( i.",
"&.oXi.V Q ` _ -.~ $...Y ;X&X0XpXw G.S.z.t hX2Xy h.g.g.b.z.j.h.w /.hXxXnXdX% n.v.x N ].A V G B ( N L C B 6.| B f J f Z ;.",
"OXp.( J Z Q Z Z ( >.F V V G ` z E P.Y.T.S.d.z.H.U.Y.R.R.Y.Y.Y.Y.T.I.= : n.c.G.V.R ^ _.C G Q W B G H F B 5.V ! J V J &X-X",
"=XI Q G J J Z V J &.V V _ ^ j V N - U.U.G.U.A.c.A.U.Y.Y.Y.Y.U.G.H.L.c.S.U.Y.U.5 Z %.'.,.F V F | V B _ V 5.g M =.B J }.Q ",
"@X;.B W V ( ) L W &.C ..6.C V Z Z r.H.G.U.U.U.U.Y.U.U.U.Y.Y.Y.U.Y.U.U.U.U.U.L.4XK S ].P J V ) Z ^ V M =.-.M Z ) J V G j ",
"5.+XG ( Z W V | j &.J V V G B J K aXg.U.U.U.U.Y.U.U.U.Y.Y.U.Y.Y.Y.Y.U.U.U.T.y ' F `.'.,.B Q M Z J ) @XH %.s | G Q ) F k ",
"B V V W J V Z C | -.V G T J Q %.7.t.5 G.U.U.G.G.U.U.U.Y.Y.U.U.U.Y.U.U.Y.G.b.kXW F P _.} $.~ V V G f <XC &.U k J Q j W h ",
"V G F ) C ^ ( T h +.F B h ^ V _ [ ` bXN.U.U.U.U.G.U.U.Y.U.U.U.U.U.Y.U.U.K.3XsXW C 4._.A ;.B J | Q B V L &.V G ~ B W j j ",
"B V G V V B | U B ` B B Q V Q 0.P O.' i F.G.G.G.U.U.U.U.U.U.U.U.U.U.U.H.% sXT F >.#.).,.%.G G B =.B V V -.G J B V V ) J ",
"B j G W G j j j F ) I j T T ^ `.4.4.m $.Z.G.G.G.G.G.G.U.U.U.U.U.U.U.E.$ / N ! V [ <.).P Y B T ^ V V ( V 5.( ;X}.J ( B =.",
"M G W F G j j V h  .6.=.V M | I I P ,.:.i F.G.F.G.G.G.G.G.G.U.G.G.U.= $X^ M C Q I A ,.-.Y v ^ N ^ ! N G -.B f h *.V W Z ",
"L V W ~ G k W J V +X;X.X%.V ` +.H B B } :.N.S.G.F.G.F.G.G.G.G.G.F.C.| ^ (  .J ^ #.} 1.} 7.;.Z ) Z Q V j -.M | ~ G j Q ( ",
"m V G G ~ V B ! W i.#X;X@.B @.C 5.>.J { ,.+ v.D.F.S.F.S.F.S.S.S.z.{.P C H B Q ` } S 1.:.+.<.B V Q Q ~ G -.V Z V B V I V ",
"1.F j W F J F j ~ ) i.p.+Xd C -.] L S `.*X} u k.l.x.x.x.x.x.A.l.O U s L ( V Z $.>.] >.p.L C V f F F ~ J &.V V ^ V J Z Z ",
"#.V ~ G j B W V k ( B h W ..B L [ >.` .X*XS >.C + 9 2 h.h.4 6 T =.j { C G M _ %.I [.<.b >.$.` J | j V oX-.j f v | V S B ",
":.C h G G ~ ! G V ~ j V Q B I +.C &.C [ :.&.m Z { V m Z k k B Z v ( V ` W Z J I +.#X*X+.m I ( G B h J V %.V _ V V V _ H ",
"] 5.V j G G G G F J T T V B +.+.-.$.[ } #.A J $.V ^ +.k G G Z G J B L v J V $.&.{ L $.$.{ C U j G ~ G k $.C V V Z V K $.",
":.Y B V V V j V B J V V V ( C _ ^ L *.} #.Z L K &.H I J G k G F ..( v ( f V _ C S @.$._ +.C 2.V F B ) B @.V V j *.V ^ C ",
"b #.B V G o.L ^ j G V G ( @._ +.M +.} } $.C $.$.+.K C B B k G F | B C B V C I ( _ Z $.K Z -.H / W W F | &.G V V ` V Z <.",
"`.A J T V K ;X*X|.G V G V B C H } ` } #.#.+.@.N Q H @.@.C +XG J B *.M C Q -.( I ( C _ { C _ L Z ) f B j @.B V X.f 3.S _ ",
"$.>.5.G F Y #X5XT G j V  ...L B _ _ ) } #.K { } @.C Q B XX:XJ Q M V o.v ( Y @XI _ v | I I C ` L Q %.B B ..V | B f H { Z "
};
