/* XPM */
static char *result[] = {
/* columns rows colors chars-per-pixel */
"60 60 256 2 ",
"   c #090C00",
".  c #190C01",
"X  c #191505",
"o  c #1A1A15",
"O  c #091705",
"+  c #261607",
"@  c #2C1613",
"#  c #261A16",
"$  c #2F150A",
"%  c #172518",
"&  c #122309",
"*  c #292402",
"=  c #392700",
"-  c #2B3111",
";  c #271A22",
":  c #311722",
">  c #142627",
",  c #1C3938",
"<  c #143628",
"1  c #26372A",
"2  c #253938",
"3  c #383934",
"4  c #191D2E",
"5  c #4B180B",
"6  c #4B1915",
"7  c #561717",
"8  c #571209",
"9  c #6B0805",
"0  c #790D0B",
"q  c #6D1402",
"w  c #6C1B01",
"e  c #68190A",
"r  c #741403",
"t  c #711B01",
"y  c #74140C",
"u  c #7A110D",
"i  c #791507",
"p  c #7B0E14",
"a  c #780D1B",
"s  c #6C1815",
"d  c #741313",
"f  c #7A1112",
"g  c #7A121A",
"h  c #741818",
"j  c #660F15",
"k  c #4D2E0A",
"l  c #7E3804",
"z  c #6A2B0B",
"x  c #761322",
"c  c #711324",
"v  c #5C2124",
"b  c #601E24",
"n  c #1A443B",
"m  c #114B38",
"M  c #25443C",
"N  c #314838",
"B  c #3B5600",
"V  c #504902",
"C  c #685903",
"Z  c #704E16",
"A  c #74660E",
"S  c #4E5231",
"D  c #736F2D",
"F  c #764F2D",
"G  c #1A3C48",
"H  c #1A3C53",
"J  c #273B46",
"K  c #273E53",
"L  c #0C454A",
"P  c #14444B",
"I  c #1C444C",
"U  c #154B4C",
"Y  c #1B4B4C",
"T  c #174744",
"R  c #1B534D",
"E  c #175549",
"W  c #1B4553",
"Q  c #1C4B53",
"!  c #184A56",
"~  c #1B5354",
"^  c #1C555B",
"/  c #1D5C5A",
"(  c #175654",
")  c #0C524D",
"_  c #23444C",
"`  c #244C4D",
"'  c #284746",
"]  c #26544B",
"[  c #234551",
"{  c #234C53",
"}  c #254C5B",
"|  c #284A58",
" . c #235354",
".. c #24545B",
"X. c #2B535C",
"o. c #245B5C",
"O. c #2B5C5C",
"+. c #285754",
"@. c #345758",
"#. c #354C4E",
"$. c #1B6158",
"%. c #24635D",
"&. c #28645B",
"*. c #33625B",
"=. c #1C5463",
"-. c #275964",
";. c #345A66",
":. c #294F66",
">. c #1D6463",
",. c #256363",
"<. c #2B6564",
"1. c #296B68",
"2. c #346768",
"3. c #29746B",
"4. c #39746C",
"5. c #396A72",
"6. c #2D7674",
"7. c #387775",
"8. c #445654",
"9. c #436B74",
"0. c #457678",
"q. c #4B716E",
"w. c #6C664C",
"e. c #850B0A",
"r. c #820D15",
"t. c #851317",
"y. c #981C1B",
"u. c #931708",
"i. c #B60B08",
"p. c #AB1401",
"a. c #A91B06",
"s. c #BB150E",
"d. c #B6170A",
"f. c #BD0E15",
"g. c #AD1B16",
"h. c #B41513",
"j. c #BB1413",
"k. c #B31A14",
"l. c #B41B1C",
"z. c #BA1717",
"x. c #AC0C04",
"c. c #9C2702",
"v. c #823700",
"b. c #902C14",
"n. c #A42502",
"m. c #B12711",
"M. c #881225",
"N. c #B71821",
"B. c #942827",
"V. c #AA2022",
"C. c #C90C0C",
"Z. c #C2120E",
"A. c #C61006",
"S. c #C40E15",
"D. c #C70E19",
"F. c #C21214",
"G. c #C2121B",
"H. c #C81415",
"J. c #D20A10",
"K. c #C51121",
"L. c #D53133",
"P. c #98530D",
"I. c #AB4A01",
"U. c #AC5102",
"Y. c #AB550F",
"T. c #876C18",
"R. c #B1711C",
"E. c #8E742B",
"W. c #B37326",
"Q. c #B27028",
"!. c #C4691E",
"~. c #C76725",
"^. c #D16D32",
"/. c #C2591D",
"(. c #8F7E47",
"). c #8E4F48",
"_. c #D36753",
"`. c #E2635D",
"'. c #E66664",
"]. c #DD6765",
"[. c #388179",
"{. c #1A816F",
"}. c #48837B",
"|. c #76834D",
" X c #97870A",
".X c #B58D0B",
"XX c #B4960C",
"oX c #AB8D16",
"OX c #BA8B17",
"+X c #AC9715",
"@X c #B99516",
"#X c #AC9209",
"$X c #BCAB0C",
"%X c #B3A61B",
"&X c #9A8633",
"*X c #B98825",
"=X c #B38F31",
"-X c #BBAD2D",
";X c #C28A19",
":X c #C4981A",
">X c #DABB1A",
",X c #C6AE16",
"<X c #C38728",
"1X c #CB9A3A",
"2X c #D59938",
"3X c #C68E32",
"4X c #E69637",
"5X c #E99232",
"6X c #CABA25",
"7X c #D4B927",
"8X c #D9BC34",
"9X c #CFA82F",
"0X c #E8BA36",
"qX c #E6B82C",
"wX c #C8C719",
"eX c #D5C618",
"rX c #CCCB0A",
"tX c #C9C827",
"yX c #D9C528",
"uX c #D9C433",
"iX c #CFD036",
"pX c #E6C538",
"aX c #E5C530",
"sX c #AD9552",
"dX c #B6A64E",
"fX c #B09660",
"gX c #A7995A",
"hX c #D19946",
"jX c #D0B34B",
"kX c #F3B74E",
"lX c #CCB868",
"zX c #FEB56B",
"xX c #FBAF71",
"cX c #E79758",
"vX c #D5CE48",
"bX c #E8C845",
"nX c #ECD254",
"mX c #CDC973",
"MX c #F3D86A",
"NX c #FFE469",
"BX c #FFEC79",
"VX c #F3EF73",
"CX c #DCE043",
"ZX c #B4C61A",
"AX c #4B7882",
"SX c #377C81",
"DX c #4A8485",
"FX c #598F94",
"GX c #6B9A90",
"HX c #3C8280",
"JX c #DA8985",
"KX c #E48685",
"LX c #EC8B8B",
"PX c #F1CB8E",
"IX c #FFF587",
"UX c #FEF092",
/* pixels */
"$.2.} P U Y ] Q ! ! ! Q Y Y U ! ) $.2.;.X.Y E E E &.^ L 3.HXDX! H { I %.3.1.,.W #.}.GX2.T ) %.) _ ..-.-.L ( 3.1.` P E 3.",
"1.4.5.! L U Y ..} } H ..` T P / ) E | :.;.{ T ) E *.( U >.-./ T W { T E -.>.-.^ I X.q.] P ~ &.R |  .1.7.<.1.6.6.Y  .<.3.",
"-.5.:.P L / &.I [ ;.;.` #.I Y ^ Q 5.;.:.:.Y H ^ ,.4.o.{ W W Q E H L ~ <.O.X.-.-.^ ^ K I W ! <.` T U 1.FXFXHX7.1.` ` $.3.",
"o.2.=.W L -.4.@.I } I ` ` ` { ! T AXAX} Q ..o.^ >.,.R ] _ G ..5.} W Q ..O.] R $.>.! ;.:.Q Q 1.1.R ~ %.DXHXHXSX1.+.' E %.",
"<.-.-.} W ~ ..{ Q L L ^ I X.:.H &.*.X.W { { ` ( / 3.E m ] ' X.AX_ I :...] M m &.>.=.FXFX:.X.1.1.+.1.$.,.3.6.3.<.@.] ~ &.",
",.^ W I W { W I ! =.>.! Y I J J ' 2 2 2 J , n E ( 7.%.$.&.E ..! _ I Q ^ &.M m ' X.G [ #.#.' ] 1.&.7.E ) / ,.,.&.2.&.&.1.",
"7.7...I I I X.{ P =.7.( ' %     X   + + . X < #.R 1.1.DX}.+.] n ' | Q $.}.M O O . O X o . + % @.] [.~ T ( ~ / / &.R ( %.",
"1.2.O.{ ` Y ` 5.-.<.7.m N w.gX&X&X(.E.D T.E.S 1 _ 2.U *.@., 1 1 1 2 ` R N S E.T.T.E.E.&XE.(.w.- E 4.o.R R ~ o.~ o.( $.%.",
"&. . .R U ( Q X.{ +.q.1 * PXIXBXIXUXIXnXpXCXT.  #.q.% O O . . +   o @.J   T.nXbXnXUXUXUXIXUXmX* m 4.&.R R ~ ~ ^ / HX/ / ",
"T Y Y Y ( =.~ I Y X.*.N * mXVXpXiXA D C  XeX%X|.8.3 |.gXsXsXfXgXgXgX; S &X@XyX XC E.A vXvXVXmX& m 7.o.Y ~ O.o.~ ,.7./ ^ ",
"Q G I ~ ( ) P } Y o.4.n & mXBXvX%XX + . A CX8XPXD   lXIXNXIXIXIXUXmX  A PXvXbXC . . + %XtXVXlX# m }.2.R ..5.2.! / 6./ ! ",
"W W | ..-.:.! } Q ( 4.] < S V vXvX=XsXfXT.V V V C &X-XuXyXyXwX6XvX-XT.A B V V E.fXgXsXuXuXC S J $.4.R L ~ ;.X.! ( 6./ Q ",
"W I [ } :.! K | Y ) 6.1.T & - dXvXvXvXMX&XX = . A 3X>X>XwXeXeXrXyX7X:XT.+ - X &XnXvXlXjXlX+ % J E &.` n P I J P >.7.-.Y ",
"} W W } :.} ;.q.q.<.1./ P ' S - k = C *X=XdXgXlX=XOX.X:X7XtX7X8X@XOX*XsXdXdX=X%X%XC = V k 3 ' ;.m 4.@.] _ J _ I >.3.( G ",
"X.X.X.Q ~ | ' N 8.8.q.;.[ J 3 # X + k &XdXlXlXlXdXW.E.=XdXvXjXdX&X=X&XsXlXlXmX=X&Xk * X > #.' 8.*.] N ' ' J J _ / 3./ G ",
"I | X.} ! P > o + & & > 4 4 # o ; # $ = * = = = = = k = = = * - = = = * = k k = k $ : ; % % > > < < > > > 4 J _ ( >.$.{ ",
"T T X.| X.` o 6 b h b v v z V B B B k 7 b b b v v b b 7 b 7 b s 9 9 9 9 9 9 9 9 9 j 9 z V k z 7 9 9 9 8 $ % n Y U -.o.I ",
"' I I G ;._ o w.KXLXKXJXJXPXUXPXVXUXPXJXJXKXJXJXJXJXKXKXJXKXLX].b.y.B.B.B.y.B.B.B.B.b.hXjX@XQ.B.B.B.y.h 6 o ,  .<.o.o.U ",
"G [ X.:.2.' o ).LX'.].]._.PXUXnXnXMXxX_.'.`.`.'.].'.'.`.`.`.]._.y.y.y.y.g.y.y.y.y.y.i hX0XOXQ.B.y.y.t.d 7 # 2 0.AX1.1...",
"| ;.;.9.;.2 X ).LXL.u.u.b.xXMXiX8XkX5Xa.a.k.k.p.z.h.f.h.h.g.l.x.e.e.e.e.e.e.e.e.e.e.u.hXqX;XQ.r 0 r.e.s 6 # M 0.SX,.7.o.",
"| 9.;.:.{ 2 @ B.'.L.s.m.c.zXNXiXtXqX^.n.d.Z.H.d.s.Z.f.f.h.h.j.h.u r.p r.e.r.e.u t.r w 1X8XXXW.r u e.r.h 6 # 2 @.-.^ 7.Y ",
":.:.Q W ` , @ e F.C.Z.s.c.zXNXtX,X.XR.n.k.d.s.s.Z.F.S.G.j.j.z.h.d a p d d d d y y i w jXuXXXR.w u 0 f s 6 # , ` Y ! 7.Y ",
"9.P U 2.O.2 + h l.J.D.d.c.zXNXtX6X@X!.a.d.j.H.F.f.Z.K.G.z.f.z.f.d s h a d d d d f y w hXuXXXW.w f u r.d 6 # 2 _ P ~ 0.o.",
"` Y ( 5.*.*.+ h l.J.S.h.c.zXNXiX6XOX~.n.j.j.j.F.S.S.f.f.z.f.z.h.p h a d f f d d 0 f w 1XyX+XW.w e.e.r.d 7 @ 2 ` Q ( 7.3.",
"T Y ( <.2.@.$ h l.G.G.k.c.xXNXiX7XOX!.a.j.j.j.j.j.F.F.j.j.z.j.j.u u p p u u u p u i t 1XaXXXR.r f u e.d 7 # 2 #.Y ~ 7.%.",
"I P :.5. .2 # s l.S.F.k.c.zXNXtX6X;X~.n.j.j.j.d.s.s.j.s.d.s.s.s.u u f u u u u u u u t 2XuXXXW.r y f f j 6 # 2 X.Q Q 2.( ",
"J W :.5.{ , @ h l.G.F.a.n.zXNXyX7XOX~.a.h.j.j.s.d.h.h.k.d.d.s.h.y y d f u y y d f u t 1X8XXXW.t s y y s 6 o ' q...^ 7. .",
"H W X.5.X.2 # h l.F.F.d.n.zXnXyX7X;X~.a.h.j.j.j.h.h.h.h.h.s.s.h.u d p d d p f d g u t hXuXXXW.i d y d s 6 # 3 q...~ 1.U ",
"H G } 5.X., @ h l.H.A.d.n.4XpXeX7X<X~.a.j.G.f.j.j.z.z.j.h.j.j.f.u p p p p f d f f f t hXuX@XQ.u f f p d 7 @ 2 #.4.-.3.( ",
"G } :.<.| 2 @ h l.C.H.d.n.4XaXwX6XOX~.a.j.S.S.j.F.f.f.j.j.j.j.f.f f p g p f g f f f w hX8XXXQ.u u e.r.d 7 # 2 O.7.>.3.^ ",
"G ;.&.-.+.' + h l.C.C.m.n.4XuXwX6XOX!.n.s.j.Z.s.F.j.j.j.h.j.j.j.u u f f f d s f f y w 1X8XXXR.r p e.r.g 6 # 2 9.7.,.1.) ",
"] Y E <.&.' + s l.C.A.d.n.4XuXwXwXXXR.a.s.Z.Z.Z.Z.s.j.j.h.h.j.h.y y d y y y y y i e w 9XtX$XR.r d u u d 7 # 1 ' -.( 1.) ",
"] T T +.N 1 $ h z.A.s.m.c.5XaXwXZX+X~.a.j.f.z.h.g.k.s.Z.F.h.l.a.t r w y d y y s h j w 9XeX$XR.7 r u a c 6 + 1 } =.=.:.I ",
" .~ ! R +.M $ t.H.J.C.s.n.5XaXtXtX*X~.a.H.D.G.f.K.K.D.J.D.F.F.h.g g g x x x g h x x q 2X7X.XQ.w 0 g M.c 5 + < [ H =.o.I ",
"} H ! ! o._ # c a.i.i.p.c.4XaXwX,X;X^.p.x.i.x.x.x.i.i.i.i.i.x.p.9 9 9 9 a 9 9 9 9 9 9 2X0X:XQ.q q 9 9 8 5 - 2 [ U ..<.+.",
":.K H W ..G o F _.^.^.!.Y.qXeXwXqX;X^.I./.^.^.^.^._.^.^.^.^./.R.P.Q.P.Y.P.Y.Y.P.Y.P.P.9X8X.XW.P.P.P.P.Q.z & 2 #.Y X.5.0.",
"! ;.J G O.n O &XUXBXBXMXbXpXeXrX>X.X<XW.kXVXBXVXBXIXBXIXBXBXnXaXbXpXpXpXpXbXpXbXbX:XXX8XyX+XoX=X:XpXpXnXE.X 2 +.T P :.:.",
") 5.{ I  .M O E.nXiXiX-X%X6XeXrX7XoXoXoX-XCXCXCXiXvXvXCXCXiXwX$X$X$X$X,X$X,X$X$X,X#X#X6XtX+XoXOX.X,X,X9XA X 2 ` Y { ;.:.",
"{.6.( Y T n X E.vXeXwXXX#X7XeXeX6X+X+XoX%XwXwXeXwXwX6XwXtXwXwX>XoXOXoXoX#X.X#X.X.XoXoX8XuX+X*X*X=XOX.X=XZ o J +.n ] 0.2.",
"{.6.Q Y +.' X T.bXeX>X,X#XqXeXeX8XoXoXOX9XyX>X>X>XaX>XyXyXtXaX>X*X=X=X*XOX*XOX*X*X<XOX:X,XoXOX;X*XOXW.=XF o J X.+.m 2.! ",
"[.4.] T ] ' @ E.nXqXqX2X;X9XyXeX7XOXOX^.2X0X0X0XqX0XqX0X0X0X0XqX3X=X_.3X3X<X<X=X3X3X;X.X.XoX<X<X*X<X*XhXF o J H ~ T I I ",
"3.5.@.] R , . z Y.I.U.I.I.9XyXeX7XOX!.I.m.I.U.U.U.U.U.U.I.I.I.I.v.l l v.v.v.v.l h l Z 3X8XOXR.v.l l v.l k o , } ! ..` I ",
"7.5.5.E ) n : d d.i.d.p.c.4XyXwX6X@XW.a.d.p.p.d.p.p.d.p.i.p.a.x.0 9 r 9 0 9 q q h 9 w 2XbX@XW.w 0 0 r q 6 ; , [ ..AX2.I ",
"6.1.%.) $.T : g G.J.J.D.n.4XuXrX6X@X~.a.H.H.K.K.K.D.D.D.D.K.z.f.g g x x a f d a x h w hXjX@XW.w r.r.x x 7 @ #.| P <.~ Y ",
"3.1.$.E 3.N + x l.S.G.z.n.4XyXrXwXOX!.a.z.D.G.f.K.G.G.G.N.f.K.f.g a a a a p d h d h w 2XqX:XR.w p r.a c 7 # 8.;.L U T ` ",
"%.7.&.&.[.N X z g.d.h.n.c.5XeXrXeX.X/.n.z.h.f.l.z.h.d.k.h.h.N.k.0 i y d p p y y y y w 2X0XXXR.z i f d s 6 @ 2 ..W Q Y Y ",
"%.1.o.o.4.M + h k.s.s.m.n.5XaXwX7X<X~.n.s.d.h.d.d.s.d.d.k.h.h.d.i i r d a p u i y i w 2XbX@XE.w y y y y 7 $ 1 { Y P Y +.",
"..=.! =.2.n # f F.J.J.A.n.5XpXtX9X*X^.a.z.H.Z.s.S.A.s.F.S.j.F.f.d u y f r.a p u f r r hX8X@XW.w M.f f h 5 @ 3 ' Y Y P Q ",
"} } Y ~ 4.#.$ d l.H.A.A.n.4XpXwX6X:X~.i.H.D.H.J.J.Z.s.s.s.A.d.a.f y r r i u u f M.p q 9X7XXXW.w d d p d 7 @ 2 { W | | Y ",
"W W { 2.4.' @ h g.j.s.a.c.2XaXyX6X@X!.a.s.h.z.j.j.h.h.h.s.s.h.h.a d e q y u f a x g w 1XuXXXW.q f u p d 7 @ , ` :.W Q Y ",
")  .~ 1.9.' @ h V.z.s.n.c.4XaXeX6XOX!.m.g.l.h.l.h.l.l.z.z.f.z.z.x a d d f p g a a h w 2XuXXXQ.r u u u d 8 @ 2 Y 2.W ! ,.",
"! DX1.&.*.T @ h N.Z.C.d.n.4XyXrX6X.X!.a.d.j.f.f.G.G.f.G.D.D.D.f.a a p p p p p p f g t hX0XXXR.t f u u p 7 @ 2 Y } P ( 6.",
" .FXDX3.1.m + y N.J.J.A.a.4XqXwX7X;X~.a.s.d.H.C.Z.D.S.H.S.S.S.f.r.f u u u e.i i e.i q 2X0X@XW.t a d p d 7 @ 2 G G I ( 3.",
"-.2.}.2.&.M + h V.G.A.s.n.4XnXiX8X3X^.c.g.g.m.a.m.g.k.g.k.l.l.l.f d y d d y y y q w z hXkX1XW.z j s s b 7 @ 1 J G [ Q 3.",
"<.P X.{ ] M % 6 s s s e w Z T.C A Z z s s s s z e s s e e s y s 7 8 5 5 6 5 5 5 5 6 = Z A Z z 6 6 6 7 7 6 o 2 [ [ J U 7.",
"o.Y J _ @., % % # # # # # # X X O O o # : @ o # * # % o * # # @ # # - ; % # # # # ; o & & O o ; o # # @ ; % I X.0.X.Y [.",
"^ Q [ | <.+.+.] ' _ , | J , ` M E &.] #.K J J J 2 J M M n n ' ] J , M ` @.@.#.' #.K ;.` M , J G ' #.2 1 3  .o.( Q ..-.3.",
"1.! Q ;.7.,.$.] ` @.X.X.{ +.0.1.$.3.-.| K [ K _ | | Y I R ~ ~ Y Q Y Y <.7.5.2.9.2...-.:.W [ } :.AX<._ ' ] o.6.1.! Q / 3.",
"$.L P -.4./ ) L [ [ _ { *.4.GX}.%.<.:.W W I  ...~ ..Q U %.<. .H Q o.~ &.1.! ^ 9.2...O.5.;._ W } 7./ P I Q ( 6.1.! ~ $.3.",
">.( W W Q U  .-.} W { ..&.&.[.0.R &.-.Q U ! &.1.^ -.Y P <.1.| G -.0.O.1.1.( Y { +.O.0.0.0.| ;.R -.! Q +...=.6.6.o.~ %.3."
};
