/* XPM */
static char *result[] = {
/* columns rows colors chars-per-pixel */
"60 60 255 2 ",
"   c #150A09",
".  c #18150C",
"X  c #161716",
"o  c #0B100F",
"O  c #270A08",
"+  c #370906",
"@  c #25150B",
"#  c #36120B",
"$  c #261617",
"%  c #381817",
"&  c #370C11",
"*  c #1B2517",
"=  c #09251A",
"-  c #252218",
";  c #342319",
":  c #351C25",
">  c #182A28",
",  c #1B362A",
"<  c #1B3939",
"1  c #112E2B",
"2  c #262B28",
"3  c #372A26",
"4  c #27342C",
"5  c #283937",
"6  c #3A3938",
"7  c #38342C",
"8  c #181520",
"9  c #530600",
"0  c #581819",
"q  c #48120F",
"w  c #6A1717",
"e  c #7A1A18",
"r  c #6C0C0C",
"t  c #52251A",
"y  c #6C241C",
"u  c #462626",
"i  c #55302D",
"p  c #752426",
"a  c #6A3431",
"s  c #671E27",
"d  c #1C483C",
"f  c #074A38",
"g  c #24463B",
"h  c #34463E",
"j  c #4C483E",
"k  c #76433F",
"l  c #0E3C44",
"z  c #133E45",
"x  c #1B3E4A",
"c  c #1A3A46",
"v  c #1E3F52",
"b  c #253C45",
"n  c #373844",
"m  c #4F3E41",
"M  c #0D4848",
"N  c #144445",
"B  c #1C4344",
"V  c #15454A",
"C  c #1B444C",
"Z  c #144B4D",
"A  c #1B4A4D",
"S  c #164A45",
"D  c #0C534B",
"F  c #14524D",
"G  c #1B524D",
"H  c #17584A",
"J  c #1D4552",
"K  c #164C52",
"L  c #1C4C52",
"P  c #1C4C5A",
"I  c #164855",
"U  c #0B5352",
"Y  c #165353",
"T  c #1C5355",
"R  c #155B55",
"E  c #1C5A54",
"W  c #1C555A",
"Q  c #1D5B5B",
"!  c #155B59",
"~  c #0D4C52",
"^  c #234343",
"/  c #23454D",
"(  c #234B4C",
")  c #294846",
"_  c #384748",
"`  c #27534B",
"'  c #234653",
"]  c #224C54",
"[  c #294C54",
"{  c #244D5A",
"}  c #2B4D59",
"|  c #284655",
" . c #225256",
".. c #2B5355",
"X. c #24545A",
"o. c #2B545C",
"O. c #235B5C",
"+. c #2A5A5D",
"@. c #275B55",
"#. c #355857",
"$. c #354C53",
"%. c #19635A",
"&. c #076357",
"*. c #23635C",
"=. c #2A655D",
"-. c #36675A",
";. c #1C5B62",
":. c #0F5C62",
">. c #2C5361",
",. c #245E61",
"<. c #2C5C62",
"1. c #285967",
"2. c #335C63",
"3. c #355967",
"4. c #2C5269",
"5. c #1C6863",
"6. c #197262",
"7. c #256363",
"8. c #2B6364",
"9. c #236A63",
"0. c #2D656B",
"q. c #2D6C6B",
"w. c #286966",
"e. c #326366",
"r. c #33646A",
"t. c #3A646C",
"y. c #336B6C",
"u. c #3A6A6D",
"i. c #366A66",
"p. c #2B736B",
"a. c #287569",
"s. c #35726C",
"d. c #3B6D73",
"f. c #356B73",
"g. c #2B7873",
"h. c #347471",
"j. c #3A7473",
"k. c #3A7A78",
"l. c #296C72",
"z. c #414645",
"x. c #465955",
"c. c #55574E",
"v. c #6E524E",
"b. c #4C6157",
"n. c #68635A",
"m. c #476A6A",
"M. c #446B75",
"N. c #427375",
"B. c #4A747B",
"V. c #45787B",
"C. c #51746C",
"Z. c #75726E",
"A. c #415965",
"S. c #861B18",
"D. c #99171A",
"F. c #930E0F",
"G. c #A71818",
"H. c #B71816",
"J. c #AE0E0B",
"K. c #90281C",
"L. c #A92E1C",
"P. c #971923",
"I. c #841124",
"U. c #B91C24",
"Y. c #A61921",
"T. c #872525",
"R. c #943134",
"E. c #A82628",
"W. c #B42F30",
"Q. c #C60A15",
"!. c #C71415",
"~. c #C5100C",
"^. c #D21F22",
"/. c #CE3136",
"(. c #B5423E",
"). c #893843",
"_. c #AC3E43",
"`. c #D63F48",
"'. c #8D4D4C",
"]. c #98504E",
"[. c #B64F4D",
"{. c #8F7371",
"}. c #B56F72",
"|. c #CE514B",
" X c #EC4E50",
".X c #EF655D",
"XX c #D77776",
"oX c #C96E70",
"OX c #E6746A",
"+X c #FA766A",
"@X c #E77A79",
"#X c #FA7875",
"$X c #EC696A",
"%X c #CC6157",
"&X c #358178",
"*X c #2A8074",
"=X c #B1847E",
"-X c #D98979",
";X c #F88579",
":X c #E68678",
">X c #4B7B83",
",X c #557C85",
"<X c #817F80",
"1X c #D97D86",
"2X c #F47A86",
"3X c #3E8982",
"4X c #478584",
"5X c #55878B",
"6X c #5A8E95",
"7X c #669098",
"8X c #6CA6A7",
"9X c #9C908D",
"0X c #B0958F",
"qX c #B2A899",
"wX c #ABB8B2",
"eX c #B8B8B4",
"rX c #B3B1A8",
"tX c #9FA5A5",
"yX c #CA8686",
"uX c #D58688",
"iX c #CA9A98",
"pX c #D99797",
"aX c #D1918D",
"sX c #E68986",
"dX c #F88888",
"fX c #E79896",
"gX c #F48D91",
"hX c #CEA79B",
"jX c #D89DA2",
"kX c #CAB7B5",
"lX c #D0B0AB",
"zX c #EABAB5",
"xX c #E8ACAA",
"cX c #FDA69D",
"vX c #B8C5B8",
"bX c #AFC4B3",
"nX c #C7C4B9",
"mX c #D6C3B9",
"MX c #C5C9B3",
"NX c #ECC7B7",
"BX c #E5BAC6",
"VX c #BDCCC7",
"CX c #CACBC7",
"ZX c #D8C9C5",
"AX c #C8D4CB",
"SX c #D8D7CE",
"DX c #F9C9C8",
"FX c #F0D5CF",
"GX c #D5E4D6",
"HX c #F8E6DC",
"JX c #E8E6DC",
"KX c #D9EFE2",
"LX c #F9E6E3",
"PX c #F2EEE7",
"IX c #FEDBE1",
/* pixels */
"%.d.[ C C K W ' C ' V K W C J ] Z =.*.Q 4.P { @.H +.| | 2.>X>X{ D C [ 1.p.g.8.A E 4X8Xq.x ' 0.U D E *. .S F a.w.) c ( a.",
"w.h.t.' V K L o.} } J W T V C  .A G D Q 3.{ V M H i.P K w.=.1.z F V ^ ^ ..( ` ` g ` m.^ 5 / +.F G E 8.B.i.*.g.q.( ..8.a.",
"5.y.o.C V X.1.A ' 2.X.X.A L L  .) =.%.Q 4.J Z H G i.w.U D D Z T N < X $ $ @ - . . . X . X - , ` L M f.7X5X&X&X9.G G %.6.",
"! 8.} C V ,.d.<.C P L T V X.[ A ..>X4XO.P >.+.G E w.! D D f d #.^ n a s p p i a j j j v.k q 3 j P P 3.>X4X3X*Xa.%.F H 6.",
"w.O.+.' V T W ] / V V T L o.J A  .#.#.Z P { / ( %.9.Q Z H d . .   s sX2XgXsX1XDXPXPXPXHXFXR.y 9 c V.*.=.k.g.a.5.O.G E *.",
"7. .C V Z L L V A J O.T Z @.A  .t. . .J >.>.| A @.h.w.@.) j k ).k ].dX$X|.XXiXlXAXAXMXlXcX|.(.r 6 z.g d %.%.5.w.u.e.=.w.",
"k.N.o.S V V T  .A +.j.T Z <. .8. . .<.J } M.3. .G 8.8.,X, O uXgX;XdX2X.XF.[.zXeXrXnXlXaX:X;X.XG.p + 2 g D H ! ,.<. . .8.",
"y.r.2.] L T L t.o.,.N.Q +.N.X.y.8.A X.v v >.' G G 8.A m.Z.}.XX#X`.|.[.W.Y.oXlXwXkX}.%X|.|.:X+X|./.e t 7 g O.*.K W W O.w.",
"O. . .] ] T A +.L O.s.7.4X5Xt.<.7.P v J J V ^ S =.s.1 o CXLXaX$X~.J.J.G.G.oXZXvXzX_.J.J.G.#XdXdX.XS.y @ 4 .. .W ;.k.7.O.",
"K L ] V L O. .C V O.k.O.5XB.t.8.;.I | P K S [ #.G g <X0XSXSXhXyX!.~.H.J.r a v.c.v.R.H.Q.!./.|.2X@XsX].. 5 #.+.R 5.&XQ  .",
"V V J L L L A ] L W h.O. .( +.Q 1.;.I P P ..m.C.4 O lXPXHXGXnX0XG.H.H.e # @   @ O y Y.Q.H.G.E.1XhXPX0Xo b m.t.K ! h.O.( ",
"J J ]  .+.X.C N M E q.y.C C V Z L X.I P @.$.h 4 v.}.sXpXlXvXeXqXG.K.r ; g g 6 n _ 3 r G.W.XXaXhXlXJX9XX 5 A.o.Z Y h.o./ ",
"L C J { X.L C ] L Y h.8.C C A Y T <.P ~ ' 5 3 O ].dX2X1XlXwXwXqXE.s @ 1 D P 3.} ) 4 # p R.hXkXrXmXLX9Xo b v b C *.k.+.( ",
"{ v J X.o.] <.,X,X%.q.W V ' <.K S  .P I z - v.XXXX#X/.W.iXwXvX0Xr t ) %.! P { G ` 4 X hXzXlXrXvX-X'.a $ b b x ' O.q.T < ",
">.o.} ] L { ' / T 7.h.8.C x S W #.o.V P b O '.fX@X+X^.P.iXwXwX0X& 5 =.p.w.;.H D d 4 - lXIXfXpXjX+XS.y % 2 / C C O.q. .N ",
"v { >.P K L C ] L R p.8.[ C +.K 5  .P J 5 O '.sX|.!.!.P.iXeXb : g ..=.O.Q T =.H g - @ =X1X_.R.R.!.U.S.O 5 @.C Z W w.7.L ",
"C J L { o.N.u.7.w.r.w.Q r.o.B.o.X.K ] N , & R.+X/.J.H.Y.XX9X> 2 L i.9.9.l.W ` ) d g i oX#X!.Q.~.G.K.t , #.B.3.M U 5.O.C ",
"J L C C o.>X5Xj.A T w.O.<.' } ] 5Xw.L T g O p E.H.H.U.P.0 > ^ / ) B *.p.k.w.G 4 . 9XkXiXXXH.H.~.D.9 7 C.C.t.L ;.5.%.O.B ",
"J C ] 3.2.o.d.W T T O.! L ( z { 6X4X7.~ c - 0 e S.S.D.T.u , #. .b B %.R l.e.h u & 1XmXrXfXL.J.~.e q 7 ` @.+.{ f.>X5.i...",
"v <.<.M.3.C W X.L X.O.! L [ x ] V.e.7.K N ) 7 % q q + % _ m.E F ` *.&.%.L 4 # w T.xXLXJXFXL.J.H.a # * ` S V { >XV.,.k.@.",
"' >X1.{ { C V K V L O.Y J { J C ..V I W I ] ^ 5 4 4 2 , ( h.*.T O.g.g.*.b s r W.(.zXPXCXzXE.H.J.u 6 h G M I J o.+.T j.G ",
">.X.J ' ' C V L ] C ,.V z { z I N +.W 1.P L +.j.=.A C L V q.Q V 9.4X4X` o 0 Y.|.:XNXJXkXjXR.T.9 4 $.) Z ;.;.I ' C  .j.S ",
"M.I L t.} [ L C o.o.<.W r.M.X.l Y q.O.1.J P r.8.@.V J V I y.L o.1.<.b A.Z.].|.$X-XzXZXeXiXi u 3 B ` ( T W 7.o.C B ` j.E ",
"{ J X.f.3.>X .V o.d.o.<.5X7X>XV F h.,.W P J W 1.L ' J J P 1.J 2.3.) o n.BXjXsX#XsXhXrXnXeX> 1 ( A +.L L W ;.V ( ( ` k.a.",
"x L  .t.3.B.<.Z ' o.<.<.2.6XM.I F f.Q L V V R 7.8.B J 1.P r.X.M.5 6 Z.0XFXhX:X%XW.fXkXn.b.#.[ ,.*.+.[ W X.Y P J / G h.*.",
"J z X.f.] >.8.T C o.+.X.V } ] I %.k.,.L V A %.9.O.Z T f.Q 7.( ` + a nXAXPXxX2X/.G.uXnX, = C.t.1.V.j.o.] X.W W o.A T p.Y ",
"x V <.d.J  .y.o.A o.X. .P J C M 5.k.q.C z +.i.=.E T Z Y R i.> 2 F.].SXVXPXaXW.^.G.R.j ` @.-.y.:.u.N.<.' L L e.N. .W h.! ",
"C V W t. .W h.,.r.V.+. .V ' C Z &.g.T z 2.m.+.` E E V S ) x.# 0 J.|.HXGXPXoXJ.J.K.# * ` @.a.! ;.O.i.o.o.+.V ] d.T ! q.Z ",
"C l K i. .T q.T X.u.8.1.L C L V &.g.T C ' ( ..G Y  .| 3.5 % p W..XXXHXAXCX}.D.F.9 7 ) H a.a.H A V <.L V ] / J  .f.*.f.T ",
"x [ O.r.T 7.h.Q N T 8.r.X.l C C %.5Xe.C Z N  .i.4X<.$.n 3 0 E.^.@XfXFXCXeX{.p w - g L O.s.a.` ) X.i.1.K J '  .O.h.O.y.O.",
"/ 2.O.,.T s.&Xq.Z A 8.8.L <.6X5XR u...V M L o.' { } > 8 9XhXoX#X@XpXkXeXCX{.O 7 ) 1.1.5Xq.9.w.0.] L P K C x J y.k.8.r.A ",
"[ C T i.W s.&XQ Z V T O.e.7X8XN.q.u.o.W ~ ~ C v x b n n qXMXaXOX1X1XlXwXtXc.* h o.P 4.r.H =.5.:.L P W V C | C T 7.T e.L ",
",.I J [ T *.*Xa.=. .T O.{ ,X7XQ =.p.y.W J K ~ I < $ 9XeXGXFXpXOXQ._.NXZ.o n $.B.f.L U D Y <.] } W ,.>.X.1.M.2.C L L <.L ",
"W K J o.T *.9.%.u.o.T ,.o.} o.O.H 9.7.1.] W O.) u q 0XMXAXFXXX XQ.W.=XC.= 5 v >.<.L L F T 2.L V L X.8.<.<.t. .C V T +.C ",
"I K C ]  .9.9.O.+.o.L ,.1.] Z W =.%.U Z ] @.< & I.I.xXKXKXFXE.~.U.T.@ , ( B x I J ' ' J  .8.E Q K L o.+.J ' A C C  .8.O.",
"Y K < C O.9.9.7.] S L 7.8.] L Z G Q ! W ( 5 u e /.|.xXKXAXzXH.~.I.t h d V z V I x } ] A T O.7.4XX.K P L z V ]  .L o.f.N.",
"Y o.C C  .*.5.E L P W ;.L J { K R o.( ..1   w H. X2XNXKXvXqXR.H.& 3 m.#.C ] { v | o.O.Z G  .O.5X1.L W { J B J  .V V X.X.",
"Q y.[ B A O.5.! Y W W ,.o.L  .T ! 2._ < $.{.[.`..XXXlXCXbXrXy w 5 ) ..d.X.x v ' {  .! D Z T S =.o.L  .X.] A L J L L e.] ",
"a.h. .B A O.9.%.Q P W <.y.J V O.! <.n   c.ZXfX;X#XsXhXwXvXeX@ % ) < W <.P P P v ' L Y O.A  .o.Z P L X.X. .]  .o.L ] V.8.",
"g.g.Z ( ..+.w.Q W K P { +.T  . .L < j Z.0XSXhXOX X[.0XkXn.n.z.g L A M P 7.;.;.| ' ' o.d.@.o.N.T V L X.L { J o.+. .V t.K ",
"*X&XF A @.X.e.T P <.>.L  .i.G u.n.8 i CXCXLXlX;X`.F.aXvX3 $ $.;.O.T L O.g.5.q.<.| ..( t...] r.Y X.P { A C J C A L V V V ",
"a.g.%.R T L +.X.[ { f.i.O.N.` 4 a s v.JXAXJX-XU.^.K.a j x._ >.;.O. .] O.h.! T [ / o.J B.] ' >X+.r.X.J L V C C A A X.X.V ",
"g.h.p.D D T +.{ X.] X.N.@.C.6 : r S.].IXGXPXXXF.Y.T.@ = +.8.T P !  .C L q.Y N B / +.L +.C ' } | L ] J J C J  .V  .>Xt.V ",
"N.=.*.U %.! W L L W V S ` 5 : i K.$XgXIXAXmXoXG.S.q c.m.a.U K o.w.8.(  .q.Q / / / V M l ] C x x C L J V J m.B.J C <.T C ",
"i.-.O.R w.9.8.Y T Y B B ) 4 u R.L.+XfXFXCXlX%XP.0 * -.@.T Q W ..y.+.+.8.q.Y C / C <.L ] ,XL C ' L J C J 2.7X7X] V J Z L ",
"i.N.0.*.h.h.d.,.M A ^ 1 * 9XiX1X+X@XpXkXeXlX{.+ j d a.s.O.{ z +.5X+.V 9.g.w. .( x V z J X.V X.r.>.B.o.L ,X5Xe. .A L L J ",
"%.*.T +.u.o. .T T ( b 6 6 qXzXyX#XoX1XkXqXqXn.* #.=.*XH ,.' C ] <.J W g.g.%.C b x V ] } V Z M J C L ] C | o. .] V V A X.",
"&.%.Z  .2.| / X.>X..8 9XeXFXDXpX$XR.).DX{.o , ) +.y.a.D Y >.J ] { I Y 5.5.Q C c C J C [ V M O.N z X.>.C J [ J ] L C Z A ",
"{ } d G a.9.U B h i q 0XmXSXDXXX XJ.R.-XC.1 < o.@.Q %.R =.<.L P W V O.Q O.O.J C c C V  .Z M O.+.] T O.A x ] J ] C } ] C ",
"I K G s.s.=.' 6 & w T.xXHXJXNXR.~.U.p @ 4 b./ ] [ Y *.R O.e.<.] +.T O.Q O.O.A x / ( A  .L Z O.+.o.A T C C ' V ] o.] V A ",
"I W T w.0.| 6 0 w W.[.cXHXZXzXR.G.S.t ; 5 ( x ] T W *.E Z A T K L L ,.T Q O. .' ] A A X.T Z T X.] V Z V C ] J L 3.] A 8.",
"P V.y.*.w.x : 0 K.|.dXNXLXeXiXR.p + ; h B J { C L  .O.E  .N S { V J X.W O.X.L ] 2.A V  .Z N T +. .Z K A } 3.{ V [ V T q.",
"..5X5Xp.p.B . a %X%X:XzXCXeXhXa u j _ B 8.>X1.P L  .X. .@.S J ] C V L O.7.T N ] t.] J T V V O.o.X.A A A 2.t.X.z V C F a.",
"o.m.B.8.7.B . ].;X;X:XiXeXCXrX% = C.s.K f.6X5X1.K X.i.+.C V  .I B  .+.O.O.T V ] o.A  . .V  .r.[ T Z L J [ +.L V V S Y p.",
"O.A X.X.O.^ @ ].;X X_.aXkXZ.b.z.H s.w.7.0.f.>X1.Z @.N.+.N A  .{ C 2.e.Q O.E Z V V V  .W L o.2.C L O.+. ./ L K K ( N F a.",
"%.M V C +.5   '.dX[.I.yXBX2 = #.6.*.5.;.P P P ;.Z  .+.L A T K J / ] A Z 8.O.T A ]  .X.T L L C C V O.<.] C X.O.O.V. .H &X",
"%.~ A  .f.T $.z.a 0 t i m n ) S %.9.9.Q J C J K Z V A A Z K X.>./ N V X.y.q.O. .<.X.t.X.Z N ' C T W L C [ O.8.T ] @.O.a.",
"9.K A +.k.l.+.5 . $ * X = ) N.h.=.9.O.S x ' L M K T A Z T Q P { A C A w.j.8.8.N.e.X.O.W Z J } [ V.7.Z V  .+.y.7.S ( E a.",
"O.Z A o.3.W P x ) g g S -.M.6X4X=.e.O.C b /  .O.F O.A V 7.0.{ x C o.T 8.0.Y W y.r. .+.y.O.N C ] j.O.V C ] W q.y.A ( O.a.",
"7.K V ' ] ] { } $.^ A @.i.+.V.k.A 8.+.( ) | #.q.E +.( Z w.l.P x ..V.8.0.y.Y A @.o.2.>X>X>XL <.[ Q T A ]  .O.g.q. . .=.a."
};
