/* XPM */
static char *result[] = {
/* columns rows colors chars-per-pixel */
"60 60 256 2 ",
"   c #180C01",
".  c #0B1A08",
"X  c #1B1C0B",
"o  c #181805",
"O  c #1D1B13",
"+  c #171B16",
"@  c #091008",
"#  c #251804",
"$  c #241715",
"%  c #2A1107",
"&  c #172217",
"*  c #11250B",
"=  c #2A2800",
"-  c #372701",
";  c #283D02",
":  c #343312",
">  c #1B1D2D",
",  c #271728",
"<  c #152627",
"1  c #1C3838",
"2  c #18382B",
"3  c #253939",
"4  c #2A312D",
"5  c #473106",
"6  c #441D0C",
"7  c #014A00",
"8  c #014701",
"9  c #174501",
"0  c #254202",
"q  c #38490B",
"w  c #394715",
"e  c #2C5618",
"r  c #345718",
"t  c #324F10",
"y  c #2E7C08",
"u  c #357D0D",
"i  c #3B7C0C",
"p  c #3A7907",
"a  c #357E12",
"s  c #3A7B14",
"d  c #3B7B1A",
"f  c #347A18",
"g  c #2E6F19",
"h  c #134539",
"j  c #26453B",
"k  c #2F5432",
"l  c #4B4500",
"z  c #554500",
"x  c #424617",
"c  c #555411",
"v  c #6E570A",
"b  c #477705",
"n  c #457A18",
"m  c #526F10",
"M  c #667B09",
"N  c #756D0E",
"B  c #4D4D2B",
"V  c #487A25",
"C  c #556C2E",
"Z  c #6E6C2D",
"A  c #605D34",
"S  c #183C46",
"D  c #0E3D47",
"F  c #2A3B46",
"G  c #303443",
"H  c #0D474A",
"J  c #15444C",
"K  c #1B444C",
"L  c #144C4C",
"P  c #1C4B4D",
"I  c #164745",
"U  c #0C554A",
"Y  c #1B534D",
"T  c #15544B",
"R  c #154551",
"E  c #1B4552",
"W  c #1C4B53",
"Q  c #174B56",
"!  c #145354",
"~  c #1C5353",
"^  c #1C545B",
"/  c #1B5A5B",
"(  c #185955",
")  c #085452",
"_  c #22434C",
"`  c #224B4C",
"'  c #294647",
"]  c #344648",
"[  c #26534A",
"{  c #244C53",
"}  c #244C5A",
"|  c #284854",
" . c #225355",
".. c #24545B",
"X. c #2A545B",
"o. c #235B5C",
"O. c #2A5B5C",
"+. c #285655",
"@. c #355759",
"#. c #364A56",
"$. c #1B645A",
"%. c #0A634A",
"&. c #27635D",
"*. c #32645C",
"=. c #266954",
"-. c #1B5962",
";. c #2B5C63",
":. c #275763",
">. c #345B66",
",. c #294E65",
"<. c #1C6665",
"1. c #1E7263",
"2. c #2C6363",
"3. c #286866",
"4. c #346A6C",
"5. c #346668",
"6. c #2A736A",
"7. c #35746C",
"8. c #366B72",
"9. c #397775",
"0. c #2C7473",
"q. c #435552",
"w. c #457877",
"e. c #4D6E71",
"r. c #78734F",
"t. c #855914",
"y. c #867017",
"u. c #8A762D",
"i. c #A27C31",
"p. c #917C4B",
"a. c #199E17",
"s. c #1F9D0D",
"d. c #2C830C",
"f. c #26850A",
"g. c #32820C",
"h. c #348203",
"j. c #38980A",
"k. c #2C8212",
"l. c #2A8416",
"z. c #328112",
"x. c #368219",
"c. c #289B16",
"v. c #369817",
"b. c #279C0B",
"n. c #09AD0C",
"m. c #18A50C",
"M. c #0DAB19",
"N. c #13AC14",
"B. c #1CA51B",
"V. c #14AA1B",
"C. c #1BA91A",
"Z. c #19A616",
"A. c #06B319",
"S. c #09B410",
"D. c #21A31C",
"F. c #26A417",
"G. c #34AC1C",
"H. c #279E25",
"J. c #389925",
"K. c #3D9434",
"L. c #318724",
"P. c #1CA423",
"I. c #13AA22",
"U. c #17A724",
"Y. c #0AAE22",
"T. c #22A322",
"R. c #27A428",
"E. c #33A327",
"W. c #2FA532",
"Q. c #1C9F22",
"!. c #488D12",
"~. c #6F9615",
"^. c #5CA80E",
"/. c #75A31C",
"(. c #65A412",
"). c #4A9130",
"_. c #799E24",
"`. c #53BA39",
"'. c #53B230",
"]. c #75A123",
"[. c #6BAA2A",
"{. c #6AC736",
"}. c #35827B",
"|. c #2F8071",
" X c #55B941",
".X c #79B659",
"XX c #6BB147",
"oX c #679365",
"OX c #71C348",
"+X c #8C941A",
"@X c #96961A",
"#X c #969013",
"$X c #B7880A",
"%X c #AA9708",
"&X c #B4970C",
"*X c #B58D17",
"=X c #A99716",
"-X c #B69516",
";X c #AD8D10",
":X c #B4A619",
">X c #8C9329",
",X c #B88A23",
"<X c #A79527",
"1X c #B69636",
"2X c #AD8E2E",
"3X c #A9BC2D",
"4X c #ADBC33",
"5X c #B5B130",
"6X c #8CB52B",
"7X c #C39515",
"8X c #C7A617",
"9X c #D2B213",
"0X c #E1BA19",
"qX c #D8B928",
"wX c #D8BC36",
"eX c #CFB32E",
"rX c #E5AD2A",
"tX c #E5B52B",
"yX c #C29B25",
"uX c #9CCA2B",
"iX c #97CE33",
"pX c #B5CC2F",
"aX c #C9C51B",
"sX c #D9C519",
"dX c #D2C810",
"fX c #E2C118",
"gX c #CACB27",
"hX c #D5C428",
"jX c #D8C836",
"kX c #CBCF34",
"lX c #E7CC34",
"zX c #AC9755",
"xX c #B7A94A",
"cX c #9B9F5D",
"vX c #CAB650",
"bX c #CEB76A",
"nX c #E6AD44",
"mX c #B3EC59",
"MX c #ACD85B",
"NX c #D6C647",
"BX c #D6D04C",
"VX c #E8CB46",
"CX c #E8D351",
"ZX c #CEC973",
"AX c #F0D66D",
"SX c #EFF170",
"DX c #DEF05F",
"FX c #4A7A83",
"GX c #397A80",
"HX c #52888B",
"JX c #659B9B",
"KX c #CFD185",
"LX c #FAF688",
"PX c #FFF59A",
"IX c #F4ED8A",
"UX c #E4DD85",
/* pixels */
"$.6.^ J L I ~ P E Q D E { _ K ^ ) / >.@.#.L T T T *.Q H 6.GXHXW S | | o.0.0.<.Q ,.HXJX5.H L 2.U P ( <...H ! 6.2.' S [ 6.",
"3.7.8.} H I Y +.} } } ,.' K K ^ U ^ ,.,.>. .I T T 5.! ! 3.-...I | E I Y <.-.,.-.D ,.e.+.I W 2.P {  .3.GX3.3.0.9.K +.&.6.",
";.8.,.Q L  .O.K | >.@.{ [ ` ~ ^ P 8.,.,.,.W D ~ -.7.;...E R W I K J Y *.O.o.;.-.Q Q S K P L *.Y _ I 4.JXHX}.}.<. .[ $.1.",
"X.5.,.S J ..9.@.K } K ` ` K W Q I FXFX,.} o...~ 3.&.~ ` _ F X.7.} J L o.@.[ P =.<.Q >.>.Q ~ &.3.[  .;.w.GX}.}.6.( L U 1.",
"3.:.>.W J ~  .{ E R R :.K >.,.E *.&.,.E }  .Y T $.6.Y I { ` +.w._ W ^ X.( k k [ &.:.HXHX>.+.6.<.Y 7.( 3.}.0.6.3.&. .( =.",
"3.^ R R E } W S R ^ -.) K _ F G ] 3 3 3 F 1 j T ( 6.3.$.&.+. .} I W Q -.&.j j j +.F ] ] ] j ~ <.&.0.( T / 3.<.3.5.O.&.3.",
"0.9.O.K K K } X.W -.9.~ ] &   % o @   #     2 @. .3.4.HX}.+.` h _ } R :.}.k @       o     # & @.$.7.( T L ~ o. .5.+. .&.",
"*.6.&.` P P _ 8.:.2.9.Y 4 r.p.p.p.cXu.t.y.u.A & | >.[ *.] 3 3 4 4 3 { E ' A Z u.y.u.p.p.p.p.r.: I w.o.P ...... . . .o.2.",
"+.[ +.{ T P ~ X.| +.w.2 o UXPXSXPXPXLXCXlXlXN @ #.e.* @   %   %   > q.F @ y.CXlXCXPXPXPXIXPXKX= h e.O.Y { .. .~ o.9.&./ ",
"` ` ` P ~ -. .K ` +.e.2 = ZXAXlXkXM Z v #XlX<X>Xq.3 oXzXzXp.zXzXzXp., B >X,XsX#Xv y.y.NXVXSXZX# h w.O.P ~ O.o.( <.}.$.( ",
"| S K W Q R R } E ..e.9 * ZXLXjX:Xo # # v lXjXUXZ   ZXPXSXLXIXIXPXZX  N UXNXVXN     o :XhXSXZX$ h }.*.T  .4.2.! $.9./ W ",
"E E W } :.-.E } W ) 9.&.h l c xXwX1XzXzXu.l z 5 N y.eXjXlXhXhXsXNXeXy.N 5 c l u.zXcX1XeXwXv B G %.|.T h ~ 2.O.Q ) 0./ P ",
"Q J W } -.E F } E ! 9.3.P * : bXvXNXvXAXi.# -   t.yXeX0X9XhXdXdX0XqX-Xt.# = # i.BXBXNXvXbX# O F %.1.U h I P _ J $.9.2._ ",
"~ K Q } :.} >.e.e.>.2.^ K ] B x l : v yX<XzXzXbX1X*X*X7XqXhXqXqX-X*X,XzXbXxX1XyX<Xv 5 l 5 4 ' @.%.*.*.[ I _ F K o.0.W D ",
"X.,.X.{ ^ } ' ] q.@.e.>.F G 3 O # % 5 <XxXbXbXbXxXi.i.2XvXvXvXxX2X2X2XzXbXbXbX1X2X5 # # 4 ] ] @.q.@.j ] F G F { -.6.^ S ",
"_ | X.{ E S < O = X * < > > $ $ , $ % - - - - - - - 6 - - - - ; - = = - 6 % 5 6 6 % , , . < < < & 4 , > > > G _ / 1.3.E ",
"K _ W ^ :.#., : t 7 9 ; 0 r z 5 z z q ; 9 t ; ; ; 0 0 0 0 0 0 9 8 8 8 8 8 8 7 7 8 8 9 q 5 5 5 ; 8 7 7 ; = = 3 ` L >.O.J ",
"K _ I H :.#.$ A cX.X.X.XcXZXUXIXIXUXZXcXcX.X.X.X.X.X.X.X.X.X.X.XK.K.K.K.K.K.K.K.K.).).xXNX<X>X).).K.K.V x $ 1 +.;.+.o.I ",
"S E ,.o.8.G   A OX`.`.XXOXmXSXAXCXSXmX X`. X`.`.`.`.`.`.`.`. X XL.v.v.v.v.L.v.L.L.v.j.iXkX=X>XV ).L.L.V w $ 3 7.}.5.4.o.",
"W >.>.8.>.G   C OXG.Z.E.).mXSXwXeXpXiXj.F.Z.m.N.Z.Z.m.Z.b.F.a.a.k.f.f.f.d.f.f.f.d.g.p 3XkX=X+Xp a k.y V x + j w.w.@.9./ ",
"W 8.>.} { G o n {.S.S.F.j.mXSXlXwX5X6Xj.F.N.N.M.N.V.C.B.B.B.B.B.z.z.g.g.g.z.z.a z.g.!.3XhX-X+Xm a k.k.V w o 2 o.o. .9.U ",
";.X.K  ._ 3 . r G.S.S.C.v.mXDXtX9X%X/.!.B.N.V.M.V.U.B.P.B.P.U.U.d s s s d f s d d i b 5XqX-X+Xm s d.f.V w * 3 [ P ~ 9.U ",
"e.S _ 2.X.F * e G.S.Y.D.v.mXSXVXrX=X/.v.B.V.V.I.P.P.T.T.a.B.P.U.d s s a a s a a d s b 4XwX-X@Xm a f.f.d w X 3 { R ~ 9.$.",
"} | X.8.5.>.. g E.M.Y.P.J.mXDXwXrX%X(.j.Z.V.M.B.B.P.T.D.B.B.I.a.a a a i a z.z.a s g.b 3XhX-X>Xm i y y ).t X 3 K W Q 9.6.",
"S } } 5.4.@.. e E.V.I.R.J.mXSXjXqX%X/.v.B.V.V.C.B.P.B.B.Z.Z.B.Z.a g.d.g.g.g.d.z.a g.b 3XhX&X+Xb b y y V w X 1 } W } 9.<.",
"E S X.7. .F & r E.N.U.H.K.mXDXfXqX=X/.v.D.C.P.D.D.P.U.B.Z.B.Z.B.a a g.a a a a z.a h.b pXeX&X+Xb i z.y V w & 3 X.E Q 4.! ",
"J R ;.4.W 3 & e J.N.V.T.v.mXDXlXrX@X_.v.R.P.P.P.P.P.U.V.V.B.B.c.s s s s a s a d s s b 4XhX-X@Xm n u k.).w X ] w...:.0.! ",
"R R ^ 5.X.3 & e E.N.V.T.v.mXCXlXrX=X_.v.H.P.U.P.P.U.V.V.V.B.P.Q.n s i s s s d s n s b 4XwX&X#Xm n y y V x X F w...^ 8.! ",
"R D { 5.| 3 $ r G.N.N.D.!.iXkX0XrX=X_.v.T.V.C.C.V.V.V.M.N.C.B.B.a s i a s a a s s i b 4XwX&X+Xb s z.u V x = 3 ^ 4.:.4.~ ",
"J } O.2.{ 3 * r E.N.M.D.j.iXgX0XqX=X].v.C.V.V.C.B.V.V.M.N.V.B.a.a u g.i a z.z.a a u b 3XhX&X+Xm i z.k.V 5 & 3 o.9.2.4./ ",
"J >.O.O.o.] . r E.S.A.R.G.iXgXhXqX=X/.v.B.N.C.B.B.B.C.V.Z.B.P.a.x.u u u a a z.a a u !.3XhX=X+Xm a d.a V x X j 3.9.;.5.! ",
"} _ ` 5.o.] . g E.M.I.P.j.iXgXqXrX=X/.c.B.V.B.D.c.D.B.B.C.P.H.H.s s a a a a x.f f i b 3XwX&X+Xb a k.k.n x X 2 Y &.T 2.L ",
":.| J ) %.j o x '.N.P.J.!.uXgXfXrX=X].c.P.B.D.D.D.C.C.F.G.v.R.a.h.b b i y h.h.i a y p pXhX&X+Xm f z.d.n x % G | K W o.L ",
"} |  .T ( ' X r H.A.A.Z.j.iXaXfXrX@X].c.T.C.C.I.I.M.N.C.D.D.I.M.f d d d f u i i L.x.b uXqX%X+Xm a d.d.n x $ 3 K J Y &.L ",
"} F _ P ;.F o r c.n.n.m.j.uXgXfXqX=X].x.c.F.s.P.I.I.m.a.D.B.M.A.f f f g y y p p s s b 3XhX=X+Xm b y y n t X 1 Q L o.2.o.",
"Q _ S E ,.F + C OX{.{.'./.pXaXsXqX=X@X~.].{.[.OXXXOXXX{.[.{.'.^.~.~./.~._.~.~._.>XN M eXjX%X=Xy.~.~.~._.c * F ..Q ..>.w.",
"T ;.I R :.F $ p.LXDXSXBXkXgXaXaXqX;X*X<XBXSXSXSXIXIXIXLXSXSXBXkXkXkXgXgXkXkXkXBXBXyX;XwXhX%X=X1XyXjXNXBXZ o 3 E S E ,.:.",
"( 7.W R ,.F % u.CXkXCXeX8XhXhXhXqX&X*X$X8XlXBXVXCXCXCXVXVXlX0X0X9X9X9X8X9X8X8X8XeX$X$XqXqX%X;X,X7X8X8XeXN o 3 { { } 5.Q ",
"6.9.T J ,.F # t.VXsXhX&X%X9XhXgXeX%X-X&X8XsXdXsXaX0XqX0XhXsXfXdX$Xi.7X$X;X$X$X$X$X$X7XqXhX&X;X*X7X$Xi.yXv o ' X.W } 9.3.",
"7.6.! L @.j # y.VXaXsX:X%XhXsXhXeX&X;X=X:XhXaXaXgXhXgXaXhXaXaXdX*X*X$X*X,X,X,X=X*X*X*X-X8X%X=X,X$X$X7X1Xv # 1 @.X.S 4.! ",
"|.7.! Y  .' o N BXpXpX:X@X9XgXaXeX=X<X@X3XpXgXpXpXpXpXgXpXpXpXpX<X<X<X2X2X2X<X<X=X<X<X*X$X7X,X2X<X<X;X1Xv X 1 | | F J Q ",
"6.6.&.T Y 1 . C /.^.^.(.~.3XhXsXwX,X>X~.~.(.^.(.^.^.^.^.^.(.~.(.M M M M !.M M M m ~.N 5XeX,X@XN M M M N c X 2 _ _ X.{ L ",
"7.}.7.L P K * e J.m.n.Z.!.uXgXfXrX=X>X!.c.c.b.c.b.m.m.m.s.c.c.c.a u a u n b p b p p b 5XVX*X+Xm f f b m w * J K +.w.5.I ",
"6.*.O.Y o.F < r W.A.A.I.b.uXgXfXrX=X].v.P.U.P.I.I.Y.Y.A.V.U.U.U.L.f f L.f f z.z.d.f.p 4XwX;X+Xb f f a V t . O...I *.Y T ",
"6.3.o.( 4.` + k W.I.Y.R.j.uXgXsXrX%X].c.I.I.I.U.I.Y.A.I.I.U.P.Q.f f l.f x.f a k.l.y !.5XeX-X+Xb l.l.y !.w . >.@.I P I ~ ",
"0.9.3.$.6.[ . r K.U.U.E.^.uXaXdX0X=X].c.C.I.U.P.R.U.C.D.c.R.H.H.f a f f i i i u l.y b pXqX&X@Xb i g.h.n w X G ,.I { K E ",
"<.2...$.7.k o r E.n.V.E.!.iXgXdXqX=X].v.B.B.C.D.T.F.D.F.B.T.T.a.i i g.a i i i x.l.d b 5XhX%X+Xm s p h.n w O 3 | K K _ X.",
"-.:.` Y =.j * g C.S.S.C.j.iXgXsXqX@X[.v.D.C.B.D.F.Z.C.N.V.V.M.M.g.g.z.g.i p i f f f b 5XhX&X+Xm s d.f.!.w O F { P _ _ ` ",
") ! L T 7.[ * e W.A.S.m.j.iXgXdX0X%X(.j.D.V.V.N.n.N.M.Y.Y.M.V.m.g.g.p i u u i h.y g.b 3XqX&X+Xb d f f.x.t * 3 | E  .` K ",
"Q R ` 5.7.[ & r K.M.N.F.!.iXgXfXqX%X/.v.R.T.T.F.F.D.R.R.P.P.T.B.a n n d s s n s a u b 4XjX&X+Xm n x.g.n q = 4 | X.W I L ",
"| #.#.5.6.' * r K.C.C.G.!.iXgXfXtX=X_.v.H.P.P.D.F.D.H.H.W.H.Q.c.s d s n d s s i f a b 4XwX-X>Xm s u y n q o 3 #.5.Q L &.",
"| FX>.*.*.P * e R.n.S.N.b.iXkXfXtX@X/.c.U.M.A.M.N.C.D.P.I.I.V.M.f.k.y k.k.d.u u d.d.b pXqX&X+Xb i g.f.x.t o 3 _ } R ! 0.",
"o.HXHX5.*.j * r W.A.S.S.b.6XgX0XtX@X/.c.V.A.A.S.n.S.N.N.V.M.n.n.f.f.d.k.f.f.d.h.y h.p uXhX=X#Xb a f.k.d t * 3 _ D Q ^ 0.",
"<.3.w.6.=.j o B ).R.R.G.).MXBXlXnX1X_.).K.W.R.R.R.R.E.E.W.E.E.J.x.n V !.n V n n n d m vXBXyX>Xm V V V C x O 3 _ S E Q 0.",
"<.H ( (  .3 $ 5 x r e t q m N t.t.v c w w e e e e t r e e e t t x 5 w : w w w : w t : v t.v c x 5 w w w : $ G | | E T 6.",
";.I I T ( S < $ $ o X X $ $ o o % # . + + O $ + O $ O + + + X $ $ $ $ $ $ O $ $ + & X % % % o + $ # o $ $ , F X.w...T |.",
"X.K K ~ 3.o.X.#.' ' h | F S ' 3 [ [ [ [ F G F F 3 F ' F K S ' ] F 3 3 | @.@.] ] X.K @.] 3 4 ] S j [ h 2 ' ] O.^ ! ^ $.6.",
"4.Q P ;.9.3... .T %.( / ~  .w.5.$.1.$.! R E E Q W ~ L U ( -.` ` Y L ~ 3.9.5.*.7.8.-.o.+.K E } ^ w.3.) L  .o.6.3.L ! ( 6.",
"-.J J ;.8.o.I D I I T ~ 5.e.JXHXo.2.o.W D E ^ -.! / ! H -.3.^ R P o.( 3.3.T } w.0.! / 4.:.R ) ! 0.-.H Q ~ ~ 4.3.P W o.6.",
"3.^ J K J W X.>.{ | _ @.@.@.}.}. .>.X.| | } >.3.^ X.W J 3.4.^ D +.e.;.2.4.P K X.,.:.HXFXFX,.:.Q ;.Q ^ } } O.7.4.X. .3.6."
};
