/* XPM */
static char *result[] = {
/* columns rows colors chars-per-pixel */
"60 60 249 2 ",
"   c #1E170D",
".  c #091817",
"X  c #181918",
"o  c #0E0B0A",
"O  c #2A0803",
"+  c #370B05",
"@  c #2B170A",
"#  c #351408",
"$  c #241916",
"%  c #361815",
"&  c #11241D",
"*  c #28261A",
"=  c #39261A",
"-  c #141B23",
";  c #1C312D",
":  c #1A3938",
">  c #152B2C",
",  c #292926",
"<  c #26342A",
"1  c #393629",
"2  c #263939",
"3  c #383535",
"4  c #2E2C30",
"5  c #211F22",
"6  c #470903",
"7  c #530C06",
"8  c #4B1608",
"9  c #491A17",
"0  c #591A16",
"q  c #551908",
"w  c #780D0B",
"e  c #6B170D",
"r  c #73140D",
"t  c #7A110D",
"y  c #7B1204",
"u  c #7B0D13",
"i  c #780E14",
"p  c #691817",
"a  c #741312",
"s  c #7A1214",
"d  c #771518",
"f  c #650500",
"g  c #472418",
"h  c #57221A",
"j  c #702415",
"k  c #721823",
"l  c #432E2A",
"z  c #482A26",
"x  c #47332A",
"c  c #473935",
"v  c #55322D",
"b  c #6F352D",
"n  c #531F23",
"m  c #1B453B",
"M  c #27443B",
"N  c #364539",
"B  c #574339",
"V  c #484239",
"C  c #7D4234",
"Z  c #193C46",
"A  c #0F3A41",
"S  c #253C44",
"D  c #333C41",
"F  c #4B3B41",
"G  c #0C4A49",
"H  c #134345",
"J  c #1B4445",
"K  c #14454B",
"L  c #1B444C",
"P  c #144A4C",
"I  c #1B4A4D",
"U  c #144B45",
"Y  c #0D544A",
"T  c #18524D",
"R  c #1B4552",
"E  c #154D52",
"W  c #1C4C53",
"Q  c #1D4C5A",
"!  c #164554",
"~  c #0D5755",
"^  c #155354",
"/  c #1C5354",
"(  c #1B5A55",
")  c #1C545A",
"_  c #1D5B5B",
"`  c #155A57",
"'  c #0C4F53",
"]  c #23454D",
"[  c #224B4C",
"{  c #2C4C4C",
"}  c #284646",
"|  c #374645",
" . c #28544C",
".. c #34534B",
"X. c #224653",
"o. c #234B54",
"O. c #2A4C54",
"+. c #274B59",
"@. c #225355",
"#. c #2A5254",
"$. c #23545A",
"%. c #2A545C",
"&. c #235B5C",
"*. c #2A5B5D",
"=. c #265A55",
"-. c #365859",
";. c #334E57",
":. c #17655A",
">. c #0F6A59",
",. c #23625D",
"<. c #2B635E",
"1. c #26695D",
"2. c #39645B",
"3. c #1C5863",
"4. c #1B4D62",
"5. c #255C61",
"6. c #2C5C62",
"7. c #295562",
"8. c #325B63",
"9. c #365765",
"0. c #214E64",
"q. c #1C6563",
"w. c #197864",
"e. c #246464",
"r. c #2B6364",
"t. c #246A64",
"y. c #2C6D6B",
"u. c #296A68",
"i. c #326465",
"p. c #34656A",
"a. c #336B6C",
"s. c #386768",
"d. c #29746A",
"f. c #35746C",
"g. c #386A72",
"h. c #2D7672",
"j. c #387675",
"k. c #2C6D72",
"l. c #4A4847",
"z. c #574745",
"x. c #475957",
"c. c #525451",
"v. c #685B5B",
"b. c #446969",
"n. c #466B75",
"m. c #47777A",
"M. c #546F6E",
"N. c #796B66",
"B. c #78766B",
"V. c #7C7874",
"C. c #69716C",
"Z. c #63675A",
"A. c #840C0B",
"S. c #8A0B0A",
"D. c #950B09",
"F. c #830D13",
"G. c #890917",
"H. c #990913",
"J. c #831313",
"K. c #991715",
"L. c #8E120C",
"P. c #B50C07",
"I. c #AB150D",
"U. c #B5130C",
"Y. c #BB140D",
"T. c #B5190D",
"R. c #B81808",
"E. c #BD0F12",
"W. c #A91717",
"Q. c #B51513",
"!. c #BC1413",
"~. c #B41912",
"^. c #BC1A13",
"/. c #BC141A",
"(. c #B6191A",
"). c #A70D12",
"_. c #902C17",
"`. c #B62A12",
"'. c #B31824",
"]. c #923424",
"[. c #A93327",
"{. c #C31609",
"}. c #C40E14",
"|. c #C21214",
" X c #C2121A",
".X c #C41B17",
"XX c #C40D0E",
"oX c #C72819",
"OX c #C93818",
"+X c #D33819",
"@X c #D12C11",
"#X c #CA3725",
"$X c #D53726",
"%X c #D2302B",
"&X c #D6261A",
"*X c #964531",
"=X c #AF442E",
"-X c #A0441F",
";X c #C7421B",
":X c #C94324",
">X c #C64434",
",X c #847775",
"<X c #837470",
"1X c #AF4B45",
"2X c #358378",
"3X c #2D8272",
"4X c #778475",
"5X c #48807D",
"6X c #8A827B",
"7X c #4E7981",
"8X c #8D7D80",
"9X c #3B8481",
"0X c #4A8586",
"qX c #56868A",
"wX c #5A8C93",
"eX c #678E8E",
"rX c #6A99A9",
"tX c #89998A",
"yX c #95978C",
"uX c #8C9594",
"iX c #969696",
"pX c #8D8987",
"aX c #A7A69B",
"sX c #ABB5AC",
"dX c #B4B5AE",
"fX c #ADB8B3",
"gX c #BCB5B3",
"hX c #B6B9B7",
"jX c #AFAAA8",
"kX c #9C9A9E",
"lX c #C4B9B9",
"zX c #CDB6AB",
"xX c #B9C3BA",
"cX c #C4C6BC",
"vX c #CFC4B1",
"bX c #BEBCC0",
"nX c #C3B9C2",
"mX c #BBC4C4",
"MX c #CACAC5",
"NX c #D1D4CF",
"BX c #E5DBD6",
"VX c #F4DCDC",
"CX c #D8E3D7",
"ZX c #E6E4DA",
"AX c #F2EADD",
"SX c #EEDDE8",
"DX c #F6F2E8",
"FX c #EFEEE6",
"GX c #D8F0E2",
/* pixels */
":.g.%.Z R E ) X.X.X.K E Q J L o.E &.<.=...[ T ( Y 1.[ ] u.9X0XW ! +.R &.h.a.<.] %.7XrXg.! E k.' I @.6.%.H ~ d.w.T m E h.",
"u.g.s.] K E W %.+.+.R @.$.K L %./ / @.@.<./ U Y ` <.o.[ r.q._ Z Z R R ) 5.:.&.@.L 7.7X0.K I r.' @./ a.7Xp.e.h.k.Y @.r.t.",
"q.a.%.L K $.6.R X.8.$.$.W W W o.I r.6.@.) W P ^ ( a.*.@.Y G T ] R ! W e.e.` ,.) &.G ! K I [ 1.( G Y i.eXqX9X3Xd./ @.<.u.",
":.r.$.L K *.j.7.L +.W / I @.o.I T m.qX7.) 3.0.Q ,.r.@.T Y G $.M.+.R W &.,./ / &.W E e.)  .U <.1.Y ( &.m.0X9X9Xq.=.U U <.",
"t.&.*.o.K W ) o.X.L H E W %.W I ( *.%.Z Q 0.4.+.5.a.( G ( G @.M.+.R @./ =.@.U t.y.&.0XqX*.T 2.,.` d.=.i.g.j.f.e.&.(  .t.",
"e.) L J I ^ W L L W &./ K #.I @.y.@.O.] $.7.@.W $.h.r.5.e.( &.o.Z ! W @.i.8.K &.y.E *.p.*.*.y.=.>.h./ I $.&.<.u.y.:.,.2.",
"j.m.$.L P K / @.L *.j./ I 6.@.6./ O.9.o.@.g.p.W ) 5.6.0Xj._ X.X.S +.o.%.n.g.=.,.k.&.K K =.@.=.-.>.f.@.I @./ $.&.1.( ( <.",
"a.a.6.o./ E o.s.%.*.j.&.*.m.%.p.p.] O.I K $.@.W W p.8.qXj.I : 4 4 2 ; 2 { -.1.:.h.r.K A =._ @.O.>.2X,.W @.$.%./ :.~ ( r.",
"&.@.@.X.W / W %./ _ j.5.qXqXp.5.8.W L E U Z H W e.p.8.b. .N $ # # # # +   < 2.f.f.p.o.! 3.3.3.Q >.2X,.U $.@.$./ 3.2Xq.&.",
"E W W K / &.@.J K &.j.*.qXm.s.i.5.! K W O.] #.$.,.j.2 2 , = b ]._._._.b b v 1 N N 2 > X.q.~ 3.4.w.f.e.T / 7.%.Q q.2X3.o.",
"R K W W W W I o.W _ h.5.o.@.*.&.q.3.! +.O.O.m.j.&.-., @ # 8 -X:XOX;X$X>X>X_.+ O + @ = D 7.! ^ 3.d.3Xt./ $.g.p.) ` j.&.W ",
"I R o.$.%.&.L L H ) f.a.L L K P 3.3.Z +.+.O.*.=.m * b *X].-X`.OX`.{.{.{.oXI.L._.].J.k n , , > I d.h.T U I p.%.G E h.&.[ ",
"R R R o.$.W J @./ ^ j.5.J L L ^ ^ 6.! Q W L J  .< + [.$XOX;X;XOXU.U.|. XE.!.^.W.(.W.W.f 7 % % 1 m d.T m U L K W 5.j.r.W ",
"+.L R $.&.o.9.m.0X_ y.) Z o.*.^ ! %.R ! W o.; @ b [.$X+X{.`.R.R.~././.E. X|.|.XX!.!.(.W.K.e g @ m 2. . .} ] J P 5.g./ A ",
"7.7.7.Q W +.R X.@.e.f.r.L ] K / =.%.I K / { l 8 _.:X+X@X{.R.R.!.!. X!.E.!.|.Y.XXY.Q./.Q.'.u 0 @ < x...M } } L K *.a.&.H ",
"Z +.+.Q W W L o.W ^ y.e.o.L %.^ J I $.W G & b =X`.+X@X+XOX%X X XY.E.!.^.~.!..XXX^.W.W.).H.G.0 % * & & . - - : I @.i.&.I ",
"L W Q ) &.j.g.5.*.r.d.( p.;.7X7.) ^ U : z f _.;X+X+X%X%X%X%X|.R.'. X}.XXP.K._.K.K.'.W.S.w e 0 7 = x c c F F F 2 G q.) { ",
"! R W Z %.m.wXg.%.T ,.` 6.X.X.3.qXs.M X v 1X;X+X+X+X^.E. X}.P.R.'./. X).y y S.S.H.F.J.u d p 0 O V AXZXCXSXDXN.. -.,.&.U ",
"R ! +.8.-.7.n.%.[ o.r.^ Q W G ' eXM.c 0 ].[.OX@XOXoX^.Y.}.|.R.T./.(.W.j q e F.G.u p 0 q e 0 h B B.ZXCXCXMXCX,X, x.{ s.` ",
"Z 6.8.n.9.] $.@.W o.&./ o.O.S +.Z.@ 0 1X#X$X^.R.R.R.Q.Y.!.!.U.Q.|.I.S.f 7 q p k k 9 # % % O z.VXAXGXMXsXhXhXyXB.l & f.:.",
"+.n.8.7.+.R K E I L 5.W [ } D S x v _.OX&X&X.XR.U.^.^.Y.Q.!. X/.XX~.D.L.F.p g g % c 3 < < $ c ZXBXMXMXgXhXxX6X4Xl X b.Y ",
"7.@.! W +.Z P E E E r.G P { S - q *X:X:X@XP.R.Q./.!.|.Y.U.Q./. XU.U.(.'.'.F.# @ $ D 2.{ ..$ V FXSXgXgXlXzXxXtX4Xv $ b.Y ",
"n.K ^ p.;.;.R Q 7.0.5.~ d.f...& e -X;X@X@X@X{.U. X|.|.Y.T.Q./. X^.T././. XK.s h % 2 Y [ l.$ c aXjXhXdXgXsXtX4X<Xv $ 2.>.",
";.R ) g.9.m.+.Z +.7X6.3.0XeXC.@ y =X;XOX@XOX`.R./.}.|.^.T.Q.!. X~.U.^././. X'.t % 2 T m.9.X , N.pXxXhXbXyXB.4X,Xz   f.3X",
"S X.) a.p.7X7.L O.9.9.5.i.c.B b `.;X`.;X;X#XoXoX.X XE.!.~.Y.!.!.Q.Y. XQ.Q.|.(.J.q , : =.,.1.| c x.iXuXiX8X,Xc.F 4 3 f.>.",
"S Z 3.k.E _ r./ X.X.7.$.] $ # 1XOX;X;XOX;X#X$X$X.X X!.!.Q.Y.Y.Y.|.|.|.Q.~.(.W.J.p g X m w.2X..X < V.,X<XN.eXl.X | [ h.` ",
"S K q.k.^ ` y.&.o.7.3.^ m * 8 -XOXOXOX$XoXR.{.oX.XQ.!.!.|.Y.R.R. X}. X).L.J.J.r e 8 * M 1.3Xq.T N 1 x l F D S x.[ / h./ ",
"L P ) k.^ ` f.&.p.n.e._ m @ q -X+X+X$X$XoX{.U.R.T.Q.!. X|.XXR.R.|. XQ.K.t a w t d 8 # N ..d.q.q.M & 5 5 - - | m.$.~ u.E ",
"Z Z Z g.^ ^ y.( #.n.-.: * b ;X;X+X+XoX.X|.XXY.Y.~.Q.!./. X!.Y.R.Q.U.L.y e s u F.a e 0 g ; <.:.' M { S } 2 S S ;.g.e.h.` ",
"Z +.9.9.$.q.h.( J ;.9.4 # [.OX@X+X#XoX|.{.XXY.^.Q.Q.!. X}.|.Q.T.^.I.S.y t F.G.s a a a 7 = -.[ [ @.g.=.L S +.+.9.g.&.y.` ",
"R 9.9.9.@.d.2X1.I } -.2 # [.;X+XOX^..XY.Y.!.Q.Q.~.!./.}.|.!.Q.~.|.~.W.W.(.H.A.u u u s p 9 , < 9.W ) 3.! X.L ! y.m.r.y.^ ",
"^ W +.n.$.3X3X:.U L O.< # *X;X@X#XI.T.Y.Y.Q.^.Q.^.!.!.}. X/.!.!.}.T.~.U..X).F.s s s e p p 6 , { Q Q 0.R Z W P ~ e.T r.I ",
"3.P W $./ t.f.a.9.O.{ * # -XOX+X#X~.U.!.|. X XXXQ.Y.T.~.T.Y.!.XX~.~.U.^.!.Q.(.L.y s a p 0 % 5 | _ 5.%.[ -.m.*.W W W *.I ",
") W W $.( :.t.5.n.%...< # -XOX&XoXU.U.!.|.|.|.E.|.Q.Y.Y.Y.!.!.|.Y.|.Y.|.E.!.(.K.y t a d k 9 = 1 I / 6.i.-.9.%.K K o.6.W ",
"W X.Z Q ( 1.t.&.$.$.{ * + =X#XR..XR.Q.!.Q.Q./.!.|.!.!.|.|.!.Q.!.XX|.|. XXX!.^.L.w r a u d k 0 % : J @.%.o.W R L I $.6.&.",
"W X.Z ] @.1.1.,.W : < x j [.#XR.Y.Q.!.!.Q.!.!./.!.|.|.|.|.!.!./.XX|.T.!.}. X/.H.t r s F.G.G.n # > } O.I K L L $.W &.a.n.",
"W %.S ] O.<.1._ ` ; X *X:X%X$X|.XXXX^.!.!.~./.!.!.|.|.|.!.!./.Q.~.~.W.Q.!. X/.K.w r d F.u d 0 # , | { +.! R R O.H P $.7.",
"` a.O.] } *.t.` ( ; @ -X>X+X$XT.|.|.!.!./././.!.Q.Q.Q.Q.Q.Q.Q.(.I.~.~.~./.Q.).L.t r r s u i p 0 = , } 8.4.! X.X.I T r.$.",
"u.j./ H U &.u._ ( < # ].$X@X&X^.Y.{.XX!.!.!.!.Q.!.^.T.^.!.!.!.!.^.!.!.(.W.).A.w r e r s u w a a g @ 2 7.4.0.+.7.I T j.r.",
"h.h.Y Y ( :.e.) =.; @ ].OX@XoXR.Y.!.T. X!.!.!.Q.Q.Y.T.Q.Y.!.!.|. X|.!.Q.).J.y r r r a t s s F.u h @ 4 o.4.0.R 8.@.m a.Q ",
"2Xf.` ~ ~ q.5.@.@.< # _.;X{.R.R.Q.Y.^.Y.^.!.!.!.!.Y.!.{.{.XX X}.}. X(.I.A.t t w s s t d w J.A.A.0 # 3 o.! ! +.R T U G ! ",
"y.j.,.( G ^ 7.6.O.< 8 ].;X{.{.R.U.!.Q..X!.Q.!.!.Y.Y.Y.Y.Y.|.|.|./.Q.L.A.y r a a d w s s s s u u q # < ] 0.Z Z ] U / W ! ",
"f.f.y.P E &.*.#.;.4 6 [.$X{.{.R.E./.E.W.Q.~.Q.E.!..X XY. X!.U.~./.K.A.e e e r r s d d u u s w s 9 % , S R Z +.L %.m.p.L ",
"j.<.u.^ ( /  .< ; 5 + ].#X.XT.(././.(.K.W.D.D.D.I.!.Q.~.~.W.D.L.H.S.t p e e s d u s u u u d a p 0 # , } X.n.7X+.I i.@.W ",
"f.u.:.~ d.1.N N , 4 = *X1XK.[.K.'.W.'.'.G.A.S.S.K.W.W.W.W.K.J.t A.w s e r a u u G.u u d d p h h 9 % , D ;.eXqX$.J W K +.",
",.j.q.:.3XM . 4XBXNXBXB + 7 7 6 f F.d d a d J.w A.S.S.S.J.A.t r u s a a u s u u d u d k p + # # % $ $ X x.eXb.+.L o.R W ",
"e.r.) <.2.N = 6XDXBXZXZ.x v v c b 0 n 0 0 p p d r s u u w d d d a a u u a p p p p 0 p h 0 g z x l l 1 3 | { [ I R L o.%.",
"3.$.X.} . Z.vXvXZXZXZXZXAXBXCXGXzXO + + + 6 7 p p a s s u u u i d d F.J.r 7 # O + + + + @ <X,XzXzXlXgXcXM.. : @.W R R L ",
"o.W I ] X v.lXMXCXNXNXNXCXBXNXSXMXz.z.B B z.v h n h h h p 0 0 h 9 h q n 9 x z.c l.l.c l.z.V.tXfXfXxXfXbXC., 3 N J / Q X.",
"O.Z @.-.. c.NXdXgXlXxXsXdXdXxXSXFXZXFXFXAXDX,XO O O O O O + O O + O O + O N.MXhXxXnXgXgXzXcXdXhXxXhXhXbXkX6Xz.X [ W ! W ",
"D +.@.*.: x.V.yXjXyXiXgXhXsXfXMXMXNXNXMXNXFXaXv.N.N.N.N.N.N.N.B.N.N.<XN.z.pXhXdXfXhXgXgXgXgXjXfXsXiXjXkX6X,XV X ;.@.^ 6.",
"+.7Xk.e.b.D o F ,X,X<XaXxXxXxXfXfXdXgXjXMXZXDXDXDXDXDXFXDXDXFXFXAXDXAXZXcXlXgXhXhXgXlXnXbXhXbXmXjXB.V.V.6X,Xz.X ] W E a.",
"7.wX9Xd.y.} 2 c z.z.z.pXiXtXyXsXhXgXgXlXhXNXMXlXMXMXMXMXMXmXMXmXMXcXMXcXdXgXdXgXcXiXiXkXkXkXuXuXpX8XN.F c.l.c ; Z K T f.",
"7.k.9Xd._ @.[ ; . X X v.6XB.6XzXbXgXbXnXhXnXhXgXlXhXgXhXhXbXhXbXxXfXhXhXhXxXxXhXxX6XV.<XV.,X4XV.,X8Xc.X . X < } K G ^ f.",
"6.L _ ) _ ( P T  ...2 D z.l.z.v.C.uXiXuXpXuXiXiXiXpXpXuXuXiXuXuXuXuXuXuXuXtXeXyXtX4XB.z.c B B B F z.| 2 2 M m ] / G E j.",
"5.E A I @.T ( ( t.2.-.; X X $ o , C.B.V.,X<X<X<XV.<X,XV.,X,X,X,X,X7X,XV.V.V.4XB.B.4X<X,       $ - . : ..}  .-.@.j.&.^ j.",
"` E I o.9.9.p.6.$.W [  .2 : { 2 c 1 l 1 l l x x x x x x x x z v v z x x x x l l x l 3 D D : S Z ] } J J o.=.2.@.o.7.7.f.",
"t.P I 9.M.9.7.+.R / $.@.I %.n.f.l.> X X * X X X X $ X X X 5 $ X $ $         $ $ 5 X - O.] W ) 3.m.<.P U @.=.y.5.W W $.u.",
",.H J 8.g.7.R L Q E ^ ) u.j.wXqX*.*.=.J Z 2 { { [ [ J J %.8.o.S M { M ..2.M } x.-.{ O.s.$.P Q ^ f.&.K I / ) y.y.W Q 3.d.",
"r.o.L W E E ^ &.R ! E ) e.&.0X7X^ e.u.^ P ) p.u.` e.' G u.k.) G *.m.u.y.u.T Y ( =.*.m.qXm.$.*.[ #.W W Q $.,.h.f.3.^ t.h."
};
