/* XPM */
static char *result[] = {
/* columns rows colors chars-per-pixel */
"60 60 198 2 ",
"   c #0F0805",
".  c #0C0B0E",
"X  c #150B06",
"o  c #180805",
"O  c #140B0A",
"+  c #1A0C0C",
"@  c #1A1306",
"#  c #1D120C",
"$  c #140A11",
"%  c #0B1317",
"&  c #0C141B",
"*  c #0A1A1A",
"=  c #121817",
"-  c #131A1C",
";  c #1A1D1B",
":  c #210D06",
">  c #251409",
",  c #22150D",
"<  c #251A0D",
"1  c #2B1B0E",
"2  c #311D0E",
"3  c #291712",
"4  c #261B13",
"5  c #2D1C14",
"6  c #2C1D18",
"7  c #311B13",
"8  c #13221E",
"9  c #1C271F",
"0  c #2D2117",
"q  c #34251C",
"w  c #221F21",
"e  c #0F292D",
"r  c #172628",
"t  c #0C3E3E",
"y  c #1E3735",
"u  c #1A353C",
"i  c #242524",
"p  c #212923",
"a  c #292B26",
"s  c #352A23",
"d  c #392D23",
"f  c #22322F",
"g  c #3F342D",
"h  c #233535",
"j  c #223D3B",
"k  c #283838",
"l  c #3E3934",
"z  c #42362E",
"x  c #42392F",
"c  c #433730",
"v  c #443A32",
"b  c #493831",
"n  c #24443E",
"m  c #123C47",
"M  c #1C3E47",
"N  c #163D4B",
"B  c #1A3E4B",
"V  c #1D3D50",
"C  c #233C41",
"Z  c #203F4F",
"A  c #0D4C4B",
"S  c #144245",
"D  c #134945",
"F  c #15444B",
"G  c #1B444D",
"H  c #154B4C",
"J  c #1A4A4E",
"K  c #0F584F",
"L  c #15564E",
"P  c #1D4551",
"I  c #174D51",
"U  c #1D4B52",
"Y  c #1F4959",
"T  c #155151",
"R  c #1D5355",
"E  c #1C5A56",
"W  c #1E5559",
"Q  c #1D5C5A",
"!  c #2A4446",
"~  c #21444D",
"^  c #224A4F",
"/  c #2A544D",
"(  c #214552",
")  c #224C54",
"_  c #2B4D57",
"`  c #244D59",
"'  c #215256",
"]  c #2C5452",
"[  c #215A56",
"{  c #2E5957",
"}  c #23545A",
"|  c #2A545C",
" . c #235B5C",
".. c #2B5B5E",
"X. c #315150",
"o. c #1E625C",
"O. c #1D6A5E",
"+. c #23625E",
"@. c #24695F",
"#. c #235462",
"$. c #2C5761",
"%. c #245C61",
"&. c #2B5C62",
"*. c #315D65",
"=. c #1D6461",
"-. c #1F6B65",
";. c #1F7164",
":. c #256461",
">. c #2B6364",
",. c #246B63",
"<. c #2A6B66",
"1. c #2D6668",
"2. c #276F68",
"3. c #2D6C6A",
"4. c #326266",
"5. c #33646A",
"6. c #39676D",
"7. c #336B6C",
"8. c #396B6D",
"9. c #247365",
"0. c #2A7265",
"q. c #25736A",
"w. c #2C736C",
"e. c #247B6B",
"r. c #2C7A6D",
"t. c #31736D",
"y. c #30796D",
"u. c #3C6572",
"i. c #3E6F74",
"p. c #2E7671",
"a. c #277F71",
"s. c #2E7D71",
"d. c #357472",
"f. c #3D7375",
"g. c #347974",
"h. c #3C7D76",
"j. c #3E7979",
"k. c #534B45",
"l. c #5B524C",
"z. c #6D645E",
"x. c #486E67",
"c. c #416F75",
"v. c #417476",
"b. c #45757B",
"n. c #437B7B",
"m. c #45797B",
"M. c #726B66",
"N. c #756E67",
"B. c #726B68",
"V. c #787976",
"C. c #797976",
"Z. c #797978",
"A. c #867E75",
"S. c #887F77",
"D. c #897F78",
"F. c #1C816A",
"G. c #25856E",
"H. c #2A836D",
"J. c #2D8373",
"K. c #2E8D75",
"L. c #328275",
"P. c #318A75",
"I. c #36877A",
"U. c #3F827D",
"Y. c #2C9278",
"T. c #45807E",
"R. c #878077",
"E. c #898077",
"W. c #878178",
"Q. c #8A8179",
"!. c #4A7C81",
"~. c #338D81",
"^. c #468282",
"/. c #4B8383",
"(. c #4B8A86",
"). c #4D838B",
"_. c #538789",
"`. c #538B8C",
"'. c #54928E",
"]. c #549192",
"[. c #579795",
"{. c #65999A",
"}. c #62A19B",
"|. c #659FA0",
" X c #67A2A0",
".X c #898784",
"XX c #898883",
"oX c #ADAEA9",
"OX c #B7AFA7",
"+X c #B9B2A9",
"@X c #CCC5BD",
"#X c #CCC8C0",
"$X c #D3D3CD",
"%X c #E2DFD5",
"&X c #E4DFD8",
"*X c #DFE2DA",
"=X c #E3E1D7",
"-X c #E2E2DA",
/* pixels */
"[ d.` V V U U ) ( P P U U ) F ) F =.:.:.' ) ' Q W <.G U 7.L.}.P P ( P Q w.w.%.P *.{.{.:.G G ;.I G ' >.' F T r.[ ~ B H J.",
"+.y.g.' P P R ' ` P P  .H S B ..P  .E G 6.} S D R 2.S ' 3.:.) G B ( P T  .Q o.P U ..m.G G G ;.H W } } v.>.-.a.3.J +.:.q.",
",.t. .P F R W P | *.) ..U J U  .( W W ' } J H T +.w.| } J T 5 < G P I Q ,.[ +.R U ( ) P H M 9.T G F  .'.'.I.J.:.J J @.9.",
"H 1.} P F I j...U ) P U ^ U } J G /.[.*.R } R [ Q w.) H D S 1 0 ^ ! ~  .+.' ' Q E B ` P R J O.3.R R } /.U.T.r.<.[ J J q.",
"d. .>.) F F %.' U P G ' J &.J J J 4.5.) P } W ' +.,.H D 2 7 -X-X5 < U W [ ' ' ,.Q $.{.!.K W O.2.P e.[ 1.U.g.w.,.R J [ 2.",
"$.R ) G H U U P P P W ) ~ | ) U 3.} ) ) U U P U :.r./ n 5 7 -X-X5 2 ! ^  .} J +.3.U u.i.O.} 1.:.[ G. .^ [ :.:.,.d.} >.>.",
"d.v.' G H J U ) P >.r.G ) ..^ >...) *.` P 5.&.) } 0.6 5 5 5 -X-X5 5 5 ; 7.8.[ >.p.I V )  .Q Q :.' H.+.J T W  .[ <.U >.+.",
"3.5.1.U J P ` *.} 1.J.) 5.v.' 4.>.U ` ( P | } ) } ,.4 5 S.S.*X-XS.S.1 9 &.1.>.+.p. .P m Q E Q W ' G.<.) R [ Q U +.}  .>.",
"..U  .I T } U } ) >.r.| ]./.*...:.U P P P P P U 4.w.# 5 -X-X-X-X-X-X5 - ' [ 3.w.w.+.G J =.R  .' Q G.2.R ) W Q R :.J. .[ ",
"G G U T H ' U ) P %.r...`.6.f.>.+.Y P U ` ) | | >.>.! ! v v XXXXx l ] { $.} <.3.2.1.G U  .U I U ,.G.:.R ' | | W +.Y.U } ",
"G G P H U U U P U :.r.) F G R H @.} P P ' #.n.f.} ..G G 5 5 Z.Z.5 5 :.>.f.*.' E <.>...) } U ) G @.G.r.R | c.&.G E G.H Y ",
"U H Y ' >.} ( P P } L.3.B G G R D O . P ' ) ) ) ' ..6 5 7 7 Z.C.5 7 7 % G J J J Q >. X$ 4 Y ` G -.J.Q S ) $.U G E K.' U ",
"( P N ..U P P ` ( } r.' G G F U ) o o G P F P U  .W 4 5 5 5 C.C.5 5 0 i G W %.U ' >.|.7 7 G N F S 9.E S G G G ) >.J.&.G ",
"_ ( P ) %.} $.!.^.&.q.R M _ %.. @ =X=X: & ) e 5 5 5 =X-X1 5 -X-X5 5 =X@X, o o M U O 5 -X&X5 3 >.I @.@.W G Z B ` <.,.m m ",
"$.*.$.) F  .P P ` 3.t. .P ( F   5 -X=X2 i #.k 5 5 7 =X-X6 7 -X-X5 5 &X@X5 5 7 ~ U 6 5 -X-X5 5 q.+.0.[ R ~ G G P [ q.+.B ",
"V G ` ` U P P P P } w.+.G X   5 5 -X-X7 5 5 D.-X-X-X6 5 5 7 -X-X5 5 3 v -X-X-Xv 5 5 5 -X-X5 6 5 1 e.@.T.7.J F U %.,. .G ",
"P P ' W T u.8.$.<.<.3.| >.o 5 5 3 -X=X5 3 5 W.-X=X-X6 5 5 7 -X-X5 5 5 v -X*X-Xx 5 6 5 -X=X5 5 5 5 r.@.U.g.T.Q G T :.&.G ",
"P P G P ) f.].f.R ' 2.+ o -X-X-X-X-X-X5 v -X-X-Xx 5 5 5 5 5 -X-X5 5 5 5 5 R.-X*X-X5 5 =X-X*X*X-X-X4 9 m.!.>.T R Q +.R S ",
"V ) ) F 4.&.v.&.` W ,.+ > &X=X=X-X-X=X5 x =X-X=Xx 5 0 5 5 5 -X-X5 5 3 5 5 A.=X=X-X6 5 -X*X=X=X-X=X6 * [ ..&.W 8.m...w.) ",
"V P *.v.5.` } W U R +.) ..> 5 5 5 5 7 C.M.5 5 5 5 5 -X-X5 7 -X-X5 6 -X@X5 5 5 5 5 C.Z.5 5 5 5 5 7 :.>.J G ^ | '.n.Q I.` ",
"P !.*.*.| P P P P R =.G ^ & i 5 5 v x M.z.c d 5 z v @X#X5 7 -X-X5 5 @X+Xx d 5 z g M.M.v x 6 7 i ; o.+.' G G J 4.4.R K.P ",
"} $.P Y ( P P P U Y o.G ( ) V 6 3 -X-X0 c -XQ.5 @X-X5 5 5 3 -X&X7 7 5 c =XS.5 @X-X0 5 -X=X5 5 W W +.R J R R J R U ) P.G ",
"i.P G 3.} | U P } &. .) 8.k h R.Q.Q.W.5 q A.W.W.A.D.5 5 W.W.-X-XD.W.7 d A.A.E.S.R.5 5 E.R.W.W.k h  .' U W [ R P P } P.U ",
"P ) P g.#.!.$.P $.1. ..._., 5 -X-X7 5 5 6 5 W.-Xv 5 5 7 -X-X-X-X-X-X5 5 5 A.-Xx 5 5 5 5 5 -X-X5 1 Q ' U W T U G P } P.>.",
"B ) P f.} b.*.Y U ' &.* a @X@Xx v 7 3 #X@X#XS.x +X#X@X@X-X-X-X-X-X=X@X@X#XW.g OX@X@X@X6 5 v v @X#Xp r ' } W U ) ~ ) H.[ ",
"V V ( g.` I >. .) | 4.+ 5 -X*X5 0 5 5 -X-X-XW.5 #X-X-X-X-X-X-X-X-X-X-X*X-XS.5 @X-X-X-X6 5 7 5 -X-X5 i ~ U }  .[ J } r.U ",
"F V #.g.| C O +   ! R T P 6 6 -X-X7 6 -X-X&XW.5 @X&X6 6 -X-X-X-X-X=X6 v -XS.5 @X-X-X-X5 0 -X&X5 6 m.4.' y # > + J Q J.G ",
"F Y N w.%.C 5 5 7 x.T Q F 5 5 *X-X5 5 -X-X-XE.5 @X&X5 5 -X-X-X-X-X-X5 v -XS.7 @X-X-X-X5 5 -X-X7 5 i...} k 0 5 5 R I 0.G ",
"B G G 8.X 5 5 S.-Xv 5 6 5 5 5 *X-X5 5 5 6 6 A.-X-X-X=X-X5 5 5 5 5 5 -X-X-X-X-Xz 6 5 5 5 5 -X-X5 1 6 7 5 D.-Xv 5 5 + r.G ",
"B P $.4.5 5 6 S.&Xv 6 7 7 5 5 -X-X7 5 5 5 5 R.-X-X-X-X-X5 5 5 5 5 5 -X-X-X-X-Xb 5 5 5 5 5 *X-X5 5 7 5 5 D.-Xv 7 7 5 w.&.",
"m 6.5 1 -X-X-X*X-X.XZ.Z.Z.-X-X-X-XZ.Z.Z..X*X-X-X-X-X-X-X6 5 W W 5 5 -X-X-XoXZ.Z.Z.Z.C.C.C.-X-X-X-XV.Z.Z.oX-X-X*X-X-X0 1 ",
") | 5 5 -X-X-X-X-X.XZ.C.Z.-X-X-X&XZ.Z.C.XX-X-X-X-X-X-X-X5 5 F.Y 6 6 -X-X-XoXC.V.Z.Z.C.Z.C.-X-X-X-XC.Z.Z.oX-X-X-X-X=X7 5 ",
"[ P N ..5 0 1 k.C.s 5 5 5 0 5 C.Z.5 5 0 5 5 k.Z.$X-X-X-X6 5 0 5 5 5 -X$XC.Z.Z.d 5 5 5 5 5 Z.Z.5 5 5 5 5 k.Z.s 5 5 5 :.J ",
"..G ) ) < 0 5 k.C.s 6 4 5 1 5 Z.Z.5 5 5 5 5 k.C.$X-X-X-X6 6 5 5 5 4 -X$XV.C.C.s 5 5 6 5 5 Z.Z.7 5 7 , < k.V.s 5 6 O >.S ",
"U U ( U J / 5 7 7 j W 1. .5 7 C.Z.5 3 -X-X-XW.5 B.Z.5 5 -X-X-X-X-X-X1 s C.k.0 #X-X-X*X5 5 Z.Z.5 > ( } &.k 6 5 5 J &.<.P ",
") U m F Q / 9 r - G ' ] X.v v M.M.5 5 -X-X-XW.5 B.Z.s s $X$X$X$X$X$Xs l C.k.5 @X-X-X-X5 5 M.M.v s j G I e ; w = ~ } 1.m.",
"P +.G B R o.,.E T P ' > 5 -X*X5 5 5 5 -X-X-XE.5 B.C.V.V.V.C.C.C.C.Z.V.V.C.k.3 @X-X-X-X5 5 5 5 -X=X1 & U P P ( ' U G  .*.",
") r.) G ) W O.o.Q U W h ! A.E.R.E.5 1 S.S.S.R.S.l.k.k.k.V.C.C.C.C.C.k.k.k.z.S.A.D.W.A.5 3 W.Q.R.A.h u W ) ( ) U G U 3.) ",
"3.L.) G U W :.o.T R } &.u.< 1 -X-X7 5 5 5 5 D.-Xx 6 0 5 V.C.C.C.Z.V.2 5 5 S.&Xv 5 5 5 5 5 -X-X0 3 ( ' ' ` R ' } J } ^.} ",
"r.J.) G W +.:.L R W ) ) ( _ ! v x @X@X5 z @XS.x +X@X5 5 s s $X$Xd s 5 z @XA.z OX@X6 5 @X@Xv b ! C P } U ) U '  .W P } J ",
"s.J.[ R W R :.R U &.&.| U ~.G 6 0 -X-X0 g -XW.7 @X-X0 5 5 6 -X-X5 5 q x -XS.5 @X-X5 5 -X-X5 7 ) %.' ' P P G G G W G P P ",
"w.e.3.R U I  . .U } i.c.W # 6 5 5 5 6 C.B.6 5 5 5 5 -X-X5 7 -X-X5 5 =X@X5 5 0 5 5 C.C.0 0 5 5 6 6 | ) ( P G S G P &.U B ",
"s.w.g.H F Q  .W  .U ' i.} 5 5 5 7 5 5 V.M.5 5 5 0 5 -X-X5 7 -X-X5 5 -X@X5 5 7 0 1 V.V.5 5 7 7 5 5 Z ) P B ` U G | [.3.M ",
"s.+.2.T  .W W U U R G 3 1 -X-X-X-X-X=X5 x -X-X-Xv 1 6 5 5 7 -X-X5 5 5 5 1 R.-X-X-X5 5 -X=X-X-X-X&X7 % ~ ) b.m.G R R J U ",
"3.+.E H w.:. .U I I P 4 5 =X-X-X=X-X-X6 x -X-X-Xv 5 5 5 5 5 -X-X5 5 5 5 7 Q.-X-X-X0 1 -X-X-X-X-X-X7 & ~ ..].(.S F G (  .",
"..(.w. .r.t.^.&.P P ( ( -.5 5 5 5 -X=X5 5 5 E.-X-X-X5 5 6 7 -X-X5 5 5 v -X-X-Xv 5 5 7 -X-X7 5 5 6 ).*.) /.`.&.| P | G G ",
"%.:.} Q r. .' ) U G P H K @ 5 5 5 -X%X5 5 2 E.-X-X=X0 4 7 5 -X-X5 5 5 v -X-X-Xz 7 7 5 -X-X5 7 2 . ( P G ` ..J ^ G U G ..",
"Q Q U R 2.' J $.^.p.P G K H.1.5 3 -X-X5 i P f 5 7 5 =X*X5 5 -X-X5 5 -X@X5 5 5 u F 6 5 -X=X7 : t N V %.) P ) ) ) G G G ~ ",
"U ' J D :.<.R P 1.w.V U Q q.R X 0 *X=X5 % G r 5 5 6 &X=X5 5 -X-X3 0 -X@X5 5 # M G . 5 &X&X6 . o.I P %.U P P ) } G } J ^ ",
"P U U :.y.3.) G } q.P  .2.q.+.P E 5 4 ^ h.&.( P J U 6 5 7 5 Z.C.5 5 5 p  .[ P m G B ( 7 5 P U :.:.P } U G ( ( P G U U J ",
"P ) U 1.w.%.P P W ,.U 3.7.q.Q  .@.8 * G $.` P U W [ 8 0 5 7 Z.Z.5 1 p e [ } ) U } ) D * % P U  .} G J F G ) P } 7.F U E ",
"B m.3.>.0.%.P ( :.9.J | 1.O.U } 0.H.+.J V ) U U U E o.' 1 5 Z.Z.5 5 | ' [ } ) `  .G G E G G R  .} J J J ) } P ( } F U r.",
") `.(.7.3.} J U :.2.H J :.+.R +.[ e.q.) ) v.5.U R ' y n N.R.oXoXE.C.j j  .R G ..7.P ) E S H ..} [ P J U  .5.G G G P P H.",
"..| n.<.>.[ H R ,.9.J U R [ } t.[ e.r.W &././.[ R } 5 4 *X-X-X-X=X*X0 0 +.R P U ) G } W G R 7.U U W U P ' ' G G B G P H.",
"O.G U T Q R T W w.:.[ R ' R U y.o.q.2...&.&.7. .J +.0 1 x b -X-Xx v 5 r Q W P G P G ` W U R &.U J Q %.W U ) ) ) $.G P K.",
"-.G G F } ' [ W  .:.} R P G U :.I q. . ._ ( U U J H , 0 5 5 *X-X5 5 5 = +.&.` ) ..U *.W F ) G G G H +.U G  .:.&._.J W P.",
"E G P W 7.%.>.:.R W U } G G | H [ q.,.} ( ( P P G U ) G 0 5 *X-X5 6 G ' 0.3.} &.$.| v.) P N P P ` >.U F ` :.:.G P P 3.r.",
"q.U U P !.d.W I U R U >.) ) _.t.,.0.' U G G P ( U Q G G # 7 -X-X5 @ ~ +.r.w.7.d.>.' ) ' P P $.P !.7.U P W  .r.&.P ( E 9.",
"R I m &.5.} A F U ) J } >.`.[.[.[ ,.,.U B G ) | U o.S G +.p.0 1 F | ) +.+.J } m.6.J ..m.U P H m n. .F U P } p.:.F *.' 9.",
"2.I P G B U  ...( P ) &.5.~ U./.J +.:.J U R 2.:.W o.G P 0.1.5 5 ~ (.8.:.w.' P P G 6.`.v.].U ;.U ` ' U Y  .:.J.3.} A e.H."
};
