/* XPM */
static char *result[] = {
/* columns rows colors chars-per-pixel */
"60 60 118 2 ",
"   c gray72",
".  c #010000",
"X  c #AFAFAF",
"o  c #ACACAC",
"O  c #939393",
"+  c #B8B7B7",
"@  c #929191",
"#  c #B4B4B4",
"$  c gray69",
"%  c #205156",
"&  c #1D4650",
"*  c #B2B2B2",
"=  c gray70",
"-  c #B9B9B9",
";  c #980000",
":  c #1B494F",
">  c #AEAEAE",
",  c #1E4B52",
"<  c #1C434E",
"1  c #1F5858",
"2  c #BABBBB",
"3  c #B1B1B1",
"4  c #1B414E",
"5  c #B6B6B6",
"6  c #214E56",
"7  c #838282",
"8  c #A00000",
"9  c #8F0101",
"0  c #17464B",
"q  c #5C0000",
"w  c gray2",
"e  c #205B5B",
"r  c #225559",
"t  c #888888",
"y  c #256762",
"u  c #29545B",
"i  c #1B5456",
"p  c #BEBFBF",
"a  c #256B64",
"s  c #2B5A60",
"d  c #989999",
"f  c #1B4D51",
"g  c #265F60",
"h  c #A80000",
"j  c #276F66",
"k  c #21635F",
"l  c #214955",
"z  c #A9AAAA",
"x  c #267468",
"c  c #080A0A",
"v  c #9C9D9D",
"b  c #1A1E1F",
"n  c gray59",
"m  c #C2C3C3",
"M  c #22373A",
"N  c #620101",
"B  c #1E5F5B",
"V  c #34676B",
"C  c gray65",
"Z  c #4E0202",
"A  c #202F32",
"S  c #175050",
"D  c #498383",
"F  c #9B9B9B",
"G  c #7D7C7D",
"H  c #183F4A",
"J  c #380303",
"K  c #8E8D8D",
"L  c #141516",
"P  c #727070",
"I  c #2C6164",
"U  c #3A6E71",
"Y  c #0D0F0F",
"T  c #2D4E56",
"R  c #240101",
"E  c #484748",
"W  c #1B2729",
"Q  c #B20101",
"!  c #267C6A",
"~  c #BE0000",
"^  c #830101",
"/  c #585453",
"(  c #292525",
")  c #A2A2A2",
"_  c #130101",
"`  c #2C464B",
"'  c #9F9F9F",
"]  c #2A8470",
"[  c #508E8B",
"{  c #41797A",
"}  c #3D3B3B",
"|  c #686565",
" . c #264146",
".. c #760101",
"X. c #6F0101",
"o. c #5F5C5D",
"O. c #680102",
"+. c #337470",
"@. c #357F76",
"#. c #365A5D",
"$. c #343031",
"%. c #947272",
"&. c #436768",
"*. c #892425",
"=. c #954E4E",
"-. c #754E4F",
";. c #7C2D2D",
":. c #5F3132",
">. c #A21516",
",. c #64A09D",
"<. c #721C1D",
"1. c #773535",
"2. c #866262",
"3. c #917D7D",
"4. c #661010",
"5. c #B19898",
"6. c #993433",
"7. c #8B0C0C",
/* pixels */
"f , & 4 H & f f 6 l & M W $.:.1.;.;.*.*.*.;.;.:.-.E ` g x @.[ s H & l & i y x +.a % 4 l { ,.[ e 0 4 e y & & % g y % < 0 ",
"% 6 % l < 6 1 f M L R J q ^ 9 ; ; ; ; ; ; 9 9 9 9 ; >.*./ I e 0 H < & & : e y i k e & , 6 U U & 0 < e y : % r % g D V e ",
"r < , V s % s A _ Z N O.9 ; ; ; ; ; ; ; ; ; 9 9 9 9 ; Q ~ >.:.T f 4 < , i y a S e g i i < < < 4 f < 1 a S & < : V ,.,.D ",
"U & & l : 6 M . Z N q ^ ; ; ; ; ; ; ; ; ; ; ; ; 9 9 9 9 h ~ ~ >.-.l < < r k g r , 1 k B & T s u i f 1 j a , i i u [ { @.",
"% : , 4 <  .. J N q ^ 8 8 ; 8 8 8 8 8 ; ; ; ; ; ; 9 9 9 9 h Q ~ ~ *.` i % r 1 % < i j a f { ,.D B i B a y 6 x x & r { @.",
"0 0 < < s b _ N q N ..X...; 8 8 8 8 8 8 8 ; ; ; ; ; 9 9 9 9 h ~ Q ~ >.E B s g r & : k @.i & s V a e e y y 1 ! ! < 0 f r ",
"6 6 & u #.w J N q q q q ^ 8 8 8 8 8 8 8 8 8 8 ; ; ; 9 9 9 9 9 Q ~ Q ~ Q :.s D { g 1 a +.e & H < 1 e e B k % x x : 6 S S ",
"V U , I  .. Z N q q q ^ h h 8 8 h h h 8 8 8 8 8 ; ; ; 9 9 9 ^ 9 Q Q Q ~ h J s V V g B +.j % H H i 1 1 1 % r ! ] e & % r ",
"% u , 6 b _ q q q q ..; ; ^ ^ 8 h h h h 8 8 8 8 8 8 ; ; ; ; ; 9 8 ~ ~ ~ ~ Q R M V j j +.a % H : k e 1 r % 1 ! ] g , 6 % ",
"l l & l w R N q q N X.O.q ..8 h h h h h Q Q h 8 ; 9 ^ ..X.N q Z Z N O.X...9 O._ ` @.@.j j % H i B % , % r y ] ! 1 , 6 % ",
"l l & #.c R N q q q q q ^ h Q Q ~ Q h 9 X.q J R _ . . . . . . . . . . . . . . . . b M u U I % , % , : : , a ] ] j f : I ",
"< < 4 T c R N q q q O.; Q Q 8 ^ q J _ . . . c L b } / o.o.| G 7 7 7 7 G | o./ E b c . . c M &.+.1 , 6 l : a ] x S H < s ",
", % 6 T w R N q N ^ 8 9 N J _ . . Y W E P G v X 5 2 m m m m m m p p m m m m m p 5 z t o.b . . A u 6 H H 4 0 a a 0 0 < & ",
"V D D #.w R O.N q N R . . . b E 7 ) - p m m p -   5 # # = = # # # # # # = = = # + 2 p m # G b . c  .& , s f y x e S & < ",
"l % u &.c R q J . . . ( | n # m m 2 + # # # # # # 5 5 5 5 5 5 5 5 5 5 5 # # # # # # = * # p o $.. w  .i a e j a S 1 % & ",
"& l l #.c . . . Y / O   m p   # # # # 5 5 # # 5 5 5 # # # # # # # # # # # # # # # # # # = 3 - o ( . L 6 f B x a B [ U r ",
"I s U #.c . w / C m p + = # # # # # # # # # # # # # # # # # # # # # # # # = = = = = = = = = X p P . w  .f y x x x [ +.{ ",
"D I ` Y . ( n m 2 # = # # # # # # # # # # # # # # # = = = = = = = = = = = * * * * * * * * * $   @ c . A g k j @.[ y D { ",
"V T c . E 5 p = = # # = = = = = = = = = = = = = = = * * * * * * * * * * * * * * * * 3 3 3 3 3 * z b . A r e j j I : 6 s ",
"s b . $.5 2 $ = = = = * * * * * * * * * * * * * * * * 3 3 3 3 3 3 3 3 3 3 3 $ $ $ $ $ $ $ $ $ X 5 } . L r 1 k a g , H < ",
"M w . K p X * * * * * * * * * * 3 3 3 3 3 3 3 3 3 3 3 $ $ $ $ $ $ $ $ $ $ $ $ $ $ $ X X X X X > # | . w s % e y g % : 0 ",
"A . b o = 3 3 3 3 3 3 3 $ 3 3 3 $ $ $ $ $ $ $ $ $ $ $ $ $ $ $ X X X X X X X X X X X > > > > > o # 7 w w T i B e 0 < i e ",
"A . Y n 5 X $ $ $ $ $ $ $ $ $ $ X $ $ $ $ X X X X X X > > > > > > > > > > > > > > > > o > o o o o d ( . W r 1 e f : % g ",
"` Y . E # X X X X X X X X X X X > > > > > > > > > > > > > > > > > > > > > o o o o o o o o o o > ) v E . W u % r , : i i ",
"6 A . w t 5 > > > > > > > > > > > > > > > o o o o o o o o o o o o o o o o o o o o o o o o o o z n d | . b #.s 1 6 % k e ",
"s l Y . } ) C > > o o o o o o o o o o o o o o o o o o o o o o o o o o o o o o o o o o o o z C d @ n G w . &.D I , , : % ",
"y u M . c G n F z > o o o o o o o o o o o o o o o o o o o o o o z z C ) ) ' ' v v v v v v n O @ @ n t Y . #.D U % 6 6 % ",
"a r &.L . E F @ n ) o o o o o o o o o o o z z o o o o z C ) v F n O @ @ @ @ @ @ @ @ @ @ @ O O O @ O @ ( . W U V 6 u u 6 ",
"y < s ` . L t n @ @ n ) z o o z z z z z o o z C ) ' d n O @ @ @ O O O O O O O O @ @ @ K K @ @ O @ @ F E . L s r f l & & ",
"j l 4 T b . / F @ O @ @ n ' C z z z o z C ' F n @ @ @ O O O O O @ @ K K t 7 7 7 7 7 7 7 7 t t K O O v E . L &.U % & l l ",
"@.I < & ` . b K n @ O O @ @ O d v ' ' d O @ @ O O O O @ @ K t 7 7 7 7 7 7 t t t t t G G P P P | P 7 v | . c ` r 1 & < < ",
"j i < 4 T b . / F @ O O O O O @ @ @ @ @ O O O O @ K t 7 7 G G 7 t t t G P | / E $.( b L c . . . . c b b . L T i e 0 H & ",
"! a I & , ` . L t n @ O O O O O O O O O O @ K t 7 G G 7 t t 7 P o.E $.L c . . . . . . . w b $.$.$.( Y . . . b T I r & V ",
"k I D 6 & I W . E F @ O O O O O O O O O t 7 G 7 7 t t G o.} ( c . . . . w Y ( } E o.P t ' > + - - # o O | L . w M U u s ",
"k i g & 0 e u . w G d @ O O O O O @ t 7 G 7 t 7 P / ( c . . . c b } / | 7 K O F v v z 2 p 2 -     - 2 p m 5.4._ . W T 4 ",
"j B i 0 : r V A . ( O O O O O O K 7 G 7 t G / ( . . . c ( E P 7 n d v v n O @ @ v X - + + + +     + + 5 # m %..._ . A l ",
"k S S : : 1 g ` w . / v @ @ O K 7 7 t P } Y . . L } | 7 n F F n O @ @ K @ n ) $ - -         +           + 2 o >.O.. c  .",
"B i B r 6 1 e u A . c P ' O @ t G P } w . w } P K F F n @ @ @ @ @ O d ) o # 2 -           - 2 5 5 + + + + 5 2 6.9 J . M ",
"a B i f 6 % I { #.L . w o.O F F t $.. . } G d d @ K K @ O n d ' C > 5 2 2 -             - * > p p 2 - -   2 - 6.; q . b ",
"e S 1 f , , 6 l , T A w . L E P 7 b . / - > C C C C z o $ #   - 2 2                   + - * =.=.3.5.> # 5 > =.9 9 Z . W ",
"e , 6 g s u , & +.y u V ` Y . . c w . P m + 2 2 2 2 2 2 2 -                             5 p 5.7.q Z <.*.*.7.^ ^ O._ . M ",
"k r l , I U V % ] j 0 y [ D #.M W c . | p 5 +                                             5 p %..._ . R J J J R . . W l ",
"1 % 1 % 0 s U u ! a : g D y S r s A . o.p 5                       - -                         5 6.X.w . w w . Y L M & < ",
"f 0 S 1 : < l , ! a 6 V D V 0 4 u M . / p 5                     - # # 2 2 2 - -     - - 2   + 2 @ 7.Z . Y  .M ` T & H u ",
"1 : f i f 4 < r ! a : l 6 j y 4 6 A . } p +                     - ' O v C > = 5 + + # 3 o 5     # =.^ R . A u l 4 4 % { ",
"V : 0 0 & < & B ! y 0 4 4 ! x < l A . ( -                 + - - C @ F v n O O O n n d v o     + - n *.q . w &.U H < U [ ",
"% 6 % 6 , & 0 S ! a , 4 < x j & < T c L C 2 +           - 2 + ) @ n # 2 5 3 o o z o 3   2       + > =...R . A u & 0 l s ",
": s D D g 4 < S x x 1 < & x j : H u Y . t m 5       - + = C n @ F 3 -   - 2 2 2 2 2 -             # 3.^ Z . Y #.I & H l ",
"4 < s ] k 4 , e j y S : g ] x : < s A . / p +     # o ) F d ' o + -                               5 n <.X._ .  .a 0 H & ",
"4 H : ] k l I j x j B 6 1 ! ! 1 6 [ &.. ( ) -     + # # 5   2 2                                   5 v 1...J . M g 0 4 < ",
"4 4 6 ! B 6 V U j k 1 g a ] x S & 6 T Y . | o       - -                         -                 5 v 1.X.Z . W 6 0 < & ",
"4 l g ] B : r I a e f 1 j ] x i < H 6 M . ( @ C - -                         - = o - - +       + - = O <.X.Z . b 6 : f u ",
"0 , y ! B 0 : g k 1 i B 1 x ] j & < U D Y . / F ' 5 2                       - 3 n ) # 2 - - - - 5 z %.O.X.J . A % : r +.",
"0 6 j ! B : : % 1 e I a 1 j @.a f s D ,.&.. w P d n o - -   +                 5 d @ n C X 3 $ > C 3.<.N N R . M 6 < : % ",
"0 r @.x k 1 % i % % g x a x x a g V I U [ ` . Y P F n ' > 5 -   + + + 5 5 5 5 - ) O n n d v d K -.4.N O.J . L I 1 i f , ",
"S % y a k 1 % , : : r k r a a 1 g 6 < l % s A . w E 3.@ d ) > # 2 2 p p p p p 2 z K t %.2.-.1.4.N N Z R . w  .k a f 0 , ",
"a e f e i % % < 4 , 6 f i a j g % < < & & 0 , M c . _ ( :.-.2.2.%.%.%.%.2.2.-.1.;.<.4.N q Z Z Z J R . . L ` g r < H , r ",
"1 S , r f % g 6 : V { a y j k f : < < < & 6 & % u A w . . _ J J Z Z Z Z Z Z Z Z J J J R _ . . . . . L A u { +.% 4 4 1 r ",
"0 0 , 6 : , 1 s U [ [ D g k a e : 4 4 & % s l % B ,  .M W c w . . . . . . . . . . w w w L W W M `  .% S l { V 0 & : : & ",
"r T < & & , s V u V D { % 1 a B & , & i x j % 1 k 0 4 k +.s ` W b A M A A M M W W  .T < u D [ D D s 1 k & u r f & , s e "
};
